<svg width="332" height="90" viewBox="0 0 332 90" fill="none" xmlns="http://www.w3.org/2000/svg">
<rect width="91" height="90" rx="20" fill="#FFF2F2"/>
<path d="M144.575 36.625L139.425 54H136.2L132.55 40.85L128.675 54L125.475 54.025L120.55 36.625H123.575L127.175 50.775L131.075 36.625H134.275L137.9 50.7L141.525 36.625H144.575ZM159.801 46.775C159.801 47.2917 159.767 47.7583 159.701 48.175H149.176C149.259 49.275 149.667 50.1583 150.401 50.825C151.134 51.4917 152.034 51.825 153.101 51.825C154.634 51.825 155.717 51.1833 156.351 49.9H159.426C159.009 51.1667 158.251 52.2083 157.151 53.025C156.067 53.825 154.717 54.225 153.101 54.225C151.784 54.225 150.601 53.9333 149.551 53.35C148.517 52.75 147.701 51.9167 147.101 50.85C146.517 49.7667 146.226 48.5167 146.226 47.1C146.226 45.6833 146.509 44.4417 147.076 43.375C147.659 42.2917 148.467 41.4583 149.501 40.875C150.551 40.2917 151.751 40 153.101 40C154.401 40 155.559 40.2833 156.576 40.85C157.592 41.4167 158.384 42.2167 158.951 43.25C159.517 44.2667 159.801 45.4417 159.801 46.775ZM156.826 45.875C156.809 44.825 156.434 43.9833 155.701 43.35C154.967 42.7167 154.059 42.4 152.976 42.4C151.992 42.4 151.151 42.7167 150.451 43.35C149.751 43.9667 149.334 44.8083 149.201 45.875H156.826ZM165.705 42.275C166.189 41.6083 166.847 41.0667 167.68 40.65C168.53 40.2167 169.472 40 170.505 40C171.722 40 172.822 40.2917 173.805 40.875C174.789 41.4583 175.564 42.2917 176.13 43.375C176.697 44.4417 176.98 45.6667 176.98 47.05C176.98 48.4333 176.697 49.675 176.13 50.775C175.564 51.8583 174.78 52.7083 173.78 53.325C172.797 53.925 171.705 54.225 170.505 54.225C169.439 54.225 168.489 54.0167 167.655 53.6C166.839 53.1833 166.189 52.65 165.705 52V54H162.855V35.5H165.705V42.275ZM174.08 47.05C174.08 46.1 173.88 45.2833 173.48 44.6C173.097 43.9 172.58 43.375 171.93 43.025C171.297 42.6583 170.614 42.475 169.88 42.475C169.164 42.475 168.48 42.6583 167.83 43.025C167.197 43.3917 166.68 43.925 166.28 44.625C165.897 45.325 165.705 46.15 165.705 47.1C165.705 48.05 165.897 48.8833 166.28 49.6C166.68 50.3 167.197 50.8333 167.83 51.2C168.48 51.5667 169.164 51.75 169.88 51.75C170.614 51.75 171.297 51.5667 171.93 51.2C172.58 50.8167 173.097 50.2667 173.48 49.55C173.88 48.8333 174.08 48 174.08 47.05ZM197.268 50.45H189.993L188.743 54H185.768L191.993 36.6H195.293L201.518 54H198.518L197.268 50.45ZM196.468 48.125L193.643 40.05L190.793 48.125H196.468ZM207.325 42.25C207.808 41.6167 208.466 41.0833 209.3 40.65C210.133 40.2167 211.075 40 212.125 40C213.325 40 214.416 40.3 215.4 40.9C216.4 41.4833 217.183 42.3083 217.75 43.375C218.316 44.4417 218.6 45.6667 218.6 47.05C218.6 48.4333 218.316 49.675 217.75 50.775C217.183 51.8583 216.4 52.7083 215.4 53.325C214.416 53.925 213.325 54.225 212.125 54.225C211.075 54.225 210.141 54.0167 209.325 53.6C208.508 53.1667 207.841 52.6333 207.325 52V60.55H204.475V40.225H207.325V42.25ZM215.7 47.05C215.7 46.1 215.5 45.2833 215.1 44.6C214.716 43.9 214.2 43.375 213.55 43.025C212.916 42.6583 212.233 42.475 211.5 42.475C210.783 42.475 210.1 42.6583 209.45 43.025C208.816 43.3917 208.3 43.925 207.9 44.625C207.516 45.325 207.325 46.15 207.325 47.1C207.325 48.05 207.516 48.8833 207.9 49.6C208.3 50.3 208.816 50.8333 209.45 51.2C210.1 51.5667 210.783 51.75 211.5 51.75C212.233 51.75 212.916 51.5667 213.55 51.2C214.2 50.8167 214.716 50.2667 215.1 49.55C215.5 48.8333 215.7 48 215.7 47.05ZM224.518 42.25C225.001 41.6167 225.66 41.0833 226.493 40.65C227.326 40.2167 228.268 40 229.318 40C230.518 40 231.61 40.3 232.593 40.9C233.593 41.4833 234.376 42.3083 234.943 43.375C235.51 44.4417 235.793 45.6667 235.793 47.05C235.793 48.4333 235.51 49.675 234.943 50.775C234.376 51.8583 233.593 52.7083 232.593 53.325C231.61 53.925 230.518 54.225 229.318 54.225C228.268 54.225 227.335 54.0167 226.518 53.6C225.701 53.1667 225.035 52.6333 224.518 52V60.55H221.668V40.225H224.518V42.25ZM232.893 47.05C232.893 46.1 232.693 45.2833 232.293 44.6C231.91 43.9 231.393 43.375 230.743 43.025C230.11 42.6583 229.426 42.475 228.693 42.475C227.976 42.475 227.293 42.6583 226.643 43.025C226.01 43.3917 225.493 43.925 225.093 44.625C224.71 45.325 224.518 46.15 224.518 47.1C224.518 48.05 224.71 48.8833 225.093 49.6C225.493 50.3 226.01 50.8333 226.643 51.2C227.293 51.5667 227.976 51.75 228.693 51.75C229.426 51.75 230.11 51.5667 230.743 51.2C231.393 50.8167 231.91 50.2667 232.293 49.55C232.693 48.8333 232.893 48 232.893 47.05ZM241.711 35.5V54H238.861V35.5H241.711ZM247.153 38.4C246.636 38.4 246.203 38.225 245.853 37.875C245.503 37.525 245.328 37.0917 245.328 36.575C245.328 36.0583 245.503 35.625 245.853 35.275C246.203 34.925 246.636 34.75 247.153 34.75C247.653 34.75 248.078 34.925 248.428 35.275C248.778 35.625 248.953 36.0583 248.953 36.575C248.953 37.0917 248.778 37.525 248.428 37.875C248.078 38.225 247.653 38.4 247.153 38.4ZM248.553 40.225V54H245.703V40.225H248.553ZM251.595 47.1C251.595 45.6833 251.878 44.4417 252.445 43.375C253.028 42.2917 253.828 41.4583 254.845 40.875C255.862 40.2917 257.028 40 258.345 40C260.012 40 261.387 40.4 262.47 41.2C263.57 41.9833 264.312 43.1083 264.695 44.575H261.62C261.37 43.8917 260.97 43.3583 260.42 42.975C259.87 42.5917 259.178 42.4 258.345 42.4C257.178 42.4 256.245 42.8167 255.545 43.65C254.862 44.4667 254.52 45.6167 254.52 47.1C254.52 48.5833 254.862 49.7417 255.545 50.575C256.245 51.4083 257.178 51.825 258.345 51.825C259.995 51.825 261.087 51.1 261.62 49.65H264.695C264.295 51.05 263.545 52.1667 262.445 53C261.345 53.8167 259.978 54.225 258.345 54.225C257.028 54.225 255.862 53.9333 254.845 53.35C253.828 52.75 253.028 51.9167 252.445 50.85C251.878 49.7667 251.595 48.5167 251.595 47.1ZM266.835 47.05C266.835 45.6667 267.118 44.4417 267.685 43.375C268.268 42.3083 269.052 41.4833 270.035 40.9C271.035 40.3 272.135 40 273.335 40C274.418 40 275.36 40.2167 276.16 40.65C276.977 41.0667 277.627 41.5917 278.11 42.225V40.225H280.985V54H278.11V51.95C277.627 52.6 276.968 53.1417 276.135 53.575C275.302 54.0083 274.352 54.225 273.285 54.225C272.102 54.225 271.018 53.925 270.035 53.325C269.052 52.7083 268.268 51.8583 267.685 50.775C267.118 49.675 266.835 48.4333 266.835 47.05ZM278.11 47.1C278.11 46.15 277.91 45.325 277.51 44.625C277.127 43.925 276.618 43.3917 275.985 43.025C275.352 42.6583 274.668 42.475 273.935 42.475C273.202 42.475 272.518 42.6583 271.885 43.025C271.252 43.375 270.735 43.9 270.335 44.6C269.952 45.2833 269.76 46.1 269.76 47.05C269.76 48 269.952 48.8333 270.335 49.55C270.735 50.2667 271.252 50.8167 271.885 51.2C272.535 51.5667 273.218 51.75 273.935 51.75C274.668 51.75 275.352 51.5667 275.985 51.2C276.618 50.8333 277.127 50.3 277.51 49.6C277.91 48.8833 278.11 48.05 278.11 47.1ZM288.304 42.55V50.175C288.304 50.6917 288.42 51.0667 288.654 51.3C288.904 51.5167 289.32 51.625 289.904 51.625H291.654V54H289.404C288.12 54 287.137 53.7 286.454 53.1C285.77 52.5 285.429 51.525 285.429 50.175V42.55H283.804V40.225H285.429V36.8H288.304V40.225H291.654V42.55H288.304ZM295.98 38.4C295.464 38.4 295.03 38.225 294.68 37.875C294.33 37.525 294.155 37.0917 294.155 36.575C294.155 36.0583 294.33 35.625 294.68 35.275C295.03 34.925 295.464 34.75 295.98 34.75C296.48 34.75 296.905 34.925 297.255 35.275C297.605 35.625 297.78 36.0583 297.78 36.575C297.78 37.0917 297.605 37.525 297.255 37.875C296.905 38.225 296.48 38.4 295.98 38.4ZM297.38 40.225V54H294.53V40.225H297.38ZM307.347 54.225C306.047 54.225 304.872 53.9333 303.822 53.35C302.772 52.75 301.947 51.9167 301.347 50.85C300.747 49.7667 300.447 48.5167 300.447 47.1C300.447 45.7 300.755 44.4583 301.372 43.375C301.989 42.2917 302.83 41.4583 303.897 40.875C304.964 40.2917 306.155 40 307.472 40C308.789 40 309.98 40.2917 311.047 40.875C312.114 41.4583 312.955 42.2917 313.572 43.375C314.189 44.4583 314.497 45.7 314.497 47.1C314.497 48.5 314.18 49.7417 313.547 50.825C312.914 51.9083 312.047 52.75 310.947 53.35C309.864 53.9333 308.664 54.225 307.347 54.225ZM307.347 51.75C308.08 51.75 308.764 51.575 309.397 51.225C310.047 50.875 310.572 50.35 310.972 49.65C311.372 48.95 311.572 48.1 311.572 47.1C311.572 46.1 311.38 45.2583 310.997 44.575C310.614 43.875 310.105 43.35 309.472 43C308.839 42.65 308.155 42.475 307.422 42.475C306.689 42.475 306.005 42.65 305.372 43C304.755 43.35 304.264 43.875 303.897 44.575C303.53 45.2583 303.347 46.1 303.347 47.1C303.347 48.5833 303.722 49.7333 304.472 50.55C305.239 51.35 306.197 51.75 307.347 51.75ZM324.514 40C325.598 40 326.564 40.225 327.414 40.675C328.281 41.125 328.956 41.7917 329.439 42.675C329.923 43.5583 330.164 44.625 330.164 45.875V54H327.339V46.3C327.339 45.0667 327.031 44.125 326.414 43.475C325.798 42.8083 324.956 42.475 323.889 42.475C322.823 42.475 321.973 42.8083 321.339 43.475C320.723 44.125 320.414 45.0667 320.414 46.3V54H317.564V40.225H320.414V41.8C320.881 41.2333 321.473 40.7917 322.189 40.475C322.923 40.1583 323.698 40 324.514 40Z" fill="#2E0D64"/>
<g clip-path="url(#clip0_2_1405)">
<path d="M45.5 25C34.1956 25 25 34.1965 25 45.5C25 56.8035 34.1956 66 45.5 66C56.8044 66 66 56.8035 66 45.5C66 34.1965 56.8044 25 45.5 25ZM45.5 64.2917C35.1382 64.2917 26.7083 55.8618 26.7083 45.5C26.7083 35.1382 35.1382 26.7083 45.5 26.7083C55.8618 26.7083 64.2917 35.1382 64.2917 45.5C64.2917 55.8618 55.8618 64.2917 45.5 64.2917Z" fill="#FF4E4E"/>
<path d="M41.2291 33.5416H36.1041C34.6911 33.5416 33.5416 34.6911 33.5416 36.1041V41.2291C33.5416 42.6422 34.6911 43.7916 36.1041 43.7916H41.2291C42.6422 43.7916 43.7916 42.6422 43.7916 41.2291V36.1041C43.7916 34.6911 42.6422 33.5416 41.2291 33.5416ZM42.0832 41.2291C42.0832 41.7004 41.6995 42.0833 41.229 42.0833H36.104C35.6336 42.0833 35.2499 41.7005 35.2499 41.2291V36.1041C35.2499 35.6329 35.6336 35.2499 36.104 35.2499H41.229C41.6995 35.2499 42.0832 35.6328 42.0832 36.1041V41.2291Z" fill="#FF4E4E"/>
<path d="M54.8959 33.5416H49.7709C48.3578 33.5416 47.2084 34.6911 47.2084 36.1041V41.2291C47.2084 42.6422 48.3578 43.7916 49.7709 43.7916H54.8959C56.3089 43.7916 57.4584 42.6422 57.4584 41.2291V36.1041C57.4584 34.6911 56.3089 33.5416 54.8959 33.5416ZM55.7501 41.2291C55.7501 41.7004 55.3663 42.0833 54.8959 42.0833H49.7709C49.3004 42.0833 48.9167 41.7005 48.9167 41.2291V36.1041C48.9167 35.6329 49.3004 35.2499 49.7709 35.2499H54.8959C55.3663 35.2499 55.7501 35.6328 55.7501 36.1041V41.2291Z" fill="#FF4E4E"/>
<path d="M41.2291 47.2083H36.1041C34.6911 47.2083 33.5416 48.3578 33.5416 49.7708V54.8958C33.5416 56.3089 34.6911 57.4583 36.1041 57.4583H41.2291C42.6422 57.4583 43.7916 56.3089 43.7916 54.8958V49.7708C43.7916 48.3578 42.6422 47.2083 41.2291 47.2083ZM42.0832 54.8958C42.0832 55.3671 41.6995 55.75 41.229 55.75H36.104C35.6336 55.75 35.2499 55.3672 35.2499 54.8958V49.7708C35.2499 49.2996 35.6336 48.9166 36.104 48.9166H41.229C41.6995 48.9166 42.0832 49.2995 42.0832 49.7708V54.8958Z" fill="#FF4E4E"/>
<path d="M54.8959 47.2083H49.7709C48.3578 47.2083 47.2084 48.3578 47.2084 49.7708V54.8958C47.2084 56.3089 48.3578 57.4583 49.7709 57.4583H54.8959C56.3089 57.4583 57.4584 56.3089 57.4584 54.8958V49.7708C57.4584 48.3578 56.3089 47.2083 54.8959 47.2083ZM55.7501 54.8958C55.7501 55.3671 55.3663 55.75 54.8959 55.75H49.7709C49.3004 55.75 48.9167 55.3672 48.9167 54.8958V49.7708C48.9167 49.2996 49.3004 48.9166 49.7709 48.9166H54.8959C55.3663 48.9166 55.7501 49.2995 55.7501 49.7708V54.8958Z" fill="#FF4E4E"/>
</g>
<defs>
<clipPath id="clip0_2_1405">
<rect width="41" height="41" fill="white" transform="translate(25 25)"/>
</clipPath>
</defs>
</svg>
