<svg width="366" height="90" viewBox="0 0 366 90" fill="none" xmlns="http://www.w3.org/2000/svg">
<rect width="91" height="90" rx="20" fill="#F1E8FF"/>
<path d="M133.475 33.625V51H130.625V39.1L125.325 51H123.35L118.025 39.1V51H115.175V33.625H118.25L124.35 47.25L130.425 33.625H133.475ZM143.446 51.225C142.146 51.225 140.971 50.9333 139.921 50.35C138.871 49.75 138.046 48.9167 137.446 47.85C136.846 46.7667 136.546 45.5167 136.546 44.1C136.546 42.7 136.854 41.4583 137.471 40.375C138.087 39.2917 138.929 38.4583 139.996 37.875C141.062 37.2917 142.254 37 143.571 37C144.887 37 146.079 37.2917 147.146 37.875C148.212 38.4583 149.054 39.2917 149.671 40.375C150.287 41.4583 150.596 42.7 150.596 44.1C150.596 45.5 150.279 46.7417 149.646 47.825C149.012 48.9083 148.146 49.75 147.046 50.35C145.962 50.9333 144.762 51.225 143.446 51.225ZM143.446 48.75C144.179 48.75 144.862 48.575 145.496 48.225C146.146 47.875 146.671 47.35 147.071 46.65C147.471 45.95 147.671 45.1 147.671 44.1C147.671 43.1 147.479 42.2583 147.096 41.575C146.712 40.875 146.204 40.35 145.571 40C144.937 39.65 144.254 39.475 143.521 39.475C142.787 39.475 142.104 39.65 141.471 40C140.854 40.35 140.362 40.875 139.996 41.575C139.629 42.2583 139.446 43.1 139.446 44.1C139.446 45.5833 139.821 46.7333 140.571 47.55C141.337 48.35 142.296 48.75 143.446 48.75ZM156.513 39.275C156.996 38.6083 157.655 38.0667 158.488 37.65C159.338 37.2167 160.28 37 161.313 37C162.53 37 163.63 37.2917 164.613 37.875C165.596 38.4583 166.371 39.2917 166.938 40.375C167.505 41.4417 167.788 42.6667 167.788 44.05C167.788 45.4333 167.505 46.675 166.938 47.775C166.371 48.8583 165.588 49.7083 164.588 50.325C163.605 50.925 162.513 51.225 161.313 51.225C160.246 51.225 159.296 51.0167 158.463 50.6C157.646 50.1833 156.996 49.65 156.513 49V51H153.663V32.5H156.513V39.275ZM164.888 44.05C164.888 43.1 164.688 42.2833 164.288 41.6C163.905 40.9 163.388 40.375 162.738 40.025C162.105 39.6583 161.421 39.475 160.688 39.475C159.971 39.475 159.288 39.6583 158.638 40.025C158.005 40.3917 157.488 40.925 157.088 41.625C156.705 42.325 156.513 43.15 156.513 44.1C156.513 45.05 156.705 45.8833 157.088 46.6C157.488 47.3 158.005 47.8333 158.638 48.2C159.288 48.5667 159.971 48.75 160.688 48.75C161.421 48.75 162.105 48.5667 162.738 48.2C163.388 47.8167 163.905 47.2667 164.288 46.55C164.688 45.8333 164.888 45 164.888 44.05ZM172.306 35.4C171.79 35.4 171.356 35.225 171.006 34.875C170.656 34.525 170.481 34.0917 170.481 33.575C170.481 33.0583 170.656 32.625 171.006 32.275C171.356 31.925 171.79 31.75 172.306 31.75C172.806 31.75 173.231 31.925 173.581 32.275C173.931 32.625 174.106 33.0583 174.106 33.575C174.106 34.0917 173.931 34.525 173.581 34.875C173.231 35.225 172.806 35.4 172.306 35.4ZM173.706 37.225V51H170.856V37.225H173.706ZM180.548 32.5V51H177.698V32.5H180.548ZM197.165 43.775C197.165 44.2917 197.132 44.7583 197.065 45.175H186.54C186.623 46.275 187.032 47.1583 187.765 47.825C188.498 48.4917 189.398 48.825 190.465 48.825C191.998 48.825 193.082 48.1833 193.715 46.9H196.79C196.373 48.1667 195.615 49.2083 194.515 50.025C193.432 50.825 192.082 51.225 190.465 51.225C189.148 51.225 187.965 50.9333 186.915 50.35C185.882 49.75 185.065 48.9167 184.465 47.85C183.882 46.7667 183.59 45.5167 183.59 44.1C183.59 42.6833 183.873 41.4417 184.44 40.375C185.023 39.2917 185.832 38.4583 186.865 37.875C187.915 37.2917 189.115 37 190.465 37C191.765 37 192.923 37.2833 193.94 37.85C194.957 38.4167 195.748 39.2167 196.315 40.25C196.882 41.2667 197.165 42.4417 197.165 43.775ZM194.19 42.875C194.173 41.825 193.798 40.9833 193.065 40.35C192.332 39.7167 191.423 39.4 190.34 39.4C189.357 39.4 188.515 39.7167 187.815 40.35C187.115 40.9667 186.698 41.8083 186.565 42.875H194.19ZM217.439 47.45H210.164L208.914 51H205.939L212.164 33.6H215.464L221.689 51H218.689L217.439 47.45ZM216.639 45.125L213.814 37.05L210.964 45.125H216.639ZM227.496 39.25C227.979 38.6167 228.637 38.0833 229.471 37.65C230.304 37.2167 231.246 37 232.296 37C233.496 37 234.587 37.3 235.571 37.9C236.571 38.4833 237.354 39.3083 237.921 40.375C238.487 41.4417 238.771 42.6667 238.771 44.05C238.771 45.4333 238.487 46.675 237.921 47.775C237.354 48.8583 236.571 49.7083 235.571 50.325C234.587 50.925 233.496 51.225 232.296 51.225C231.246 51.225 230.312 51.0167 229.496 50.6C228.679 50.1667 228.012 49.6333 227.496 49V57.55H224.646V37.225H227.496V39.25ZM235.871 44.05C235.871 43.1 235.671 42.2833 235.271 41.6C234.887 40.9 234.371 40.375 233.721 40.025C233.087 39.6583 232.404 39.475 231.671 39.475C230.954 39.475 230.271 39.6583 229.621 40.025C228.987 40.3917 228.471 40.925 228.071 41.625C227.687 42.325 227.496 43.15 227.496 44.1C227.496 45.05 227.687 45.8833 228.071 46.6C228.471 47.3 228.987 47.8333 229.621 48.2C230.271 48.5667 230.954 48.75 231.671 48.75C232.404 48.75 233.087 48.5667 233.721 48.2C234.371 47.8167 234.887 47.2667 235.271 46.55C235.671 45.8333 235.871 45 235.871 44.05ZM244.689 39.25C245.172 38.6167 245.831 38.0833 246.664 37.65C247.497 37.2167 248.439 37 249.489 37C250.689 37 251.781 37.3 252.764 37.9C253.764 38.4833 254.547 39.3083 255.114 40.375C255.681 41.4417 255.964 42.6667 255.964 44.05C255.964 45.4333 255.681 46.675 255.114 47.775C254.547 48.8583 253.764 49.7083 252.764 50.325C251.781 50.925 250.689 51.225 249.489 51.225C248.439 51.225 247.506 51.0167 246.689 50.6C245.872 50.1667 245.206 49.6333 244.689 49V57.55H241.839V37.225H244.689V39.25ZM253.064 44.05C253.064 43.1 252.864 42.2833 252.464 41.6C252.081 40.9 251.564 40.375 250.914 40.025C250.281 39.6583 249.597 39.475 248.864 39.475C248.147 39.475 247.464 39.6583 246.814 40.025C246.181 40.3917 245.664 40.925 245.264 41.625C244.881 42.325 244.689 43.15 244.689 44.1C244.689 45.05 244.881 45.8833 245.264 46.6C245.664 47.3 246.181 47.8333 246.814 48.2C247.464 48.5667 248.147 48.75 248.864 48.75C249.597 48.75 250.281 48.5667 250.914 48.2C251.564 47.8167 252.081 47.2667 252.464 46.55C252.864 45.8333 253.064 45 253.064 44.05ZM261.882 32.5V51H259.032V32.5H261.882ZM267.324 35.4C266.807 35.4 266.374 35.225 266.024 34.875C265.674 34.525 265.499 34.0917 265.499 33.575C265.499 33.0583 265.674 32.625 266.024 32.275C266.374 31.925 266.807 31.75 267.324 31.75C267.824 31.75 268.249 31.925 268.599 32.275C268.949 32.625 269.124 33.0583 269.124 33.575C269.124 34.0917 268.949 34.525 268.599 34.875C268.249 35.225 267.824 35.4 267.324 35.4ZM268.724 37.225V51H265.874V37.225H268.724ZM271.766 44.1C271.766 42.6833 272.049 41.4417 272.616 40.375C273.199 39.2917 273.999 38.4583 275.016 37.875C276.032 37.2917 277.199 37 278.516 37C280.182 37 281.557 37.4 282.641 38.2C283.741 38.9833 284.482 40.1083 284.866 41.575H281.791C281.541 40.8917 281.141 40.3583 280.591 39.975C280.041 39.5917 279.349 39.4 278.516 39.4C277.349 39.4 276.416 39.8167 275.716 40.65C275.032 41.4667 274.691 42.6167 274.691 44.1C274.691 45.5833 275.032 46.7417 275.716 47.575C276.416 48.4083 277.349 48.825 278.516 48.825C280.166 48.825 281.257 48.1 281.791 46.65H284.866C284.466 48.05 283.716 49.1667 282.616 50C281.516 50.8167 280.149 51.225 278.516 51.225C277.199 51.225 276.032 50.9333 275.016 50.35C273.999 49.75 273.199 48.9167 272.616 47.85C272.049 46.7667 271.766 45.5167 271.766 44.1ZM287.006 44.05C287.006 42.6667 287.289 41.4417 287.856 40.375C288.439 39.3083 289.223 38.4833 290.206 37.9C291.206 37.3 292.306 37 293.506 37C294.589 37 295.531 37.2167 296.331 37.65C297.148 38.0667 297.798 38.5917 298.281 39.225V37.225H301.156V51H298.281V48.95C297.798 49.6 297.139 50.1417 296.306 50.575C295.473 51.0083 294.523 51.225 293.456 51.225C292.273 51.225 291.189 50.925 290.206 50.325C289.223 49.7083 288.439 48.8583 287.856 47.775C287.289 46.675 287.006 45.4333 287.006 44.05ZM298.281 44.1C298.281 43.15 298.081 42.325 297.681 41.625C297.298 40.925 296.789 40.3917 296.156 40.025C295.523 39.6583 294.839 39.475 294.106 39.475C293.373 39.475 292.689 39.6583 292.056 40.025C291.423 40.375 290.906 40.9 290.506 41.6C290.123 42.2833 289.931 43.1 289.931 44.05C289.931 45 290.123 45.8333 290.506 46.55C290.906 47.2667 291.423 47.8167 292.056 48.2C292.706 48.5667 293.389 48.75 294.106 48.75C294.839 48.75 295.523 48.5667 296.156 48.2C296.789 47.8333 297.298 47.3 297.681 46.6C298.081 45.8833 298.281 45.05 298.281 44.1ZM308.474 39.55V47.175C308.474 47.6917 308.591 48.0667 308.824 48.3C309.074 48.5167 309.491 48.625 310.074 48.625H311.824V51H309.574C308.291 51 307.308 50.7 306.624 50.1C305.941 49.5 305.599 48.525 305.599 47.175V39.55H303.974V37.225H305.599V33.8H308.474V37.225H311.824V39.55H308.474ZM316.151 35.4C315.635 35.4 315.201 35.225 314.851 34.875C314.501 34.525 314.326 34.0917 314.326 33.575C314.326 33.0583 314.501 32.625 314.851 32.275C315.201 31.925 315.635 31.75 316.151 31.75C316.651 31.75 317.076 31.925 317.426 32.275C317.776 32.625 317.951 33.0583 317.951 33.575C317.951 34.0917 317.776 34.525 317.426 34.875C317.076 35.225 316.651 35.4 316.151 35.4ZM317.551 37.225V51H314.701V37.225H317.551ZM327.518 51.225C326.218 51.225 325.043 50.9333 323.993 50.35C322.943 49.75 322.118 48.9167 321.518 47.85C320.918 46.7667 320.618 45.5167 320.618 44.1C320.618 42.7 320.926 41.4583 321.543 40.375C322.16 39.2917 323.001 38.4583 324.068 37.875C325.135 37.2917 326.326 37 327.643 37C328.96 37 330.151 37.2917 331.218 37.875C332.285 38.4583 333.126 39.2917 333.743 40.375C334.36 41.4583 334.668 42.7 334.668 44.1C334.668 45.5 334.351 46.7417 333.718 47.825C333.085 48.9083 332.218 49.75 331.118 50.35C330.035 50.9333 328.835 51.225 327.518 51.225ZM327.518 48.75C328.251 48.75 328.935 48.575 329.568 48.225C330.218 47.875 330.743 47.35 331.143 46.65C331.543 45.95 331.743 45.1 331.743 44.1C331.743 43.1 331.551 42.2583 331.168 41.575C330.785 40.875 330.276 40.35 329.643 40C329.01 39.65 328.326 39.475 327.593 39.475C326.86 39.475 326.176 39.65 325.543 40C324.926 40.35 324.435 40.875 324.068 41.575C323.701 42.2583 323.518 43.1 323.518 44.1C323.518 45.5833 323.893 46.7333 324.643 47.55C325.41 48.35 326.368 48.75 327.518 48.75ZM344.685 37C345.769 37 346.735 37.225 347.585 37.675C348.452 38.125 349.127 38.7917 349.61 39.675C350.094 40.5583 350.335 41.625 350.335 42.875V51H347.51V43.3C347.51 42.0667 347.202 41.125 346.585 40.475C345.969 39.8083 345.127 39.475 344.06 39.475C342.994 39.475 342.144 39.8083 341.51 40.475C340.894 41.125 340.585 42.0667 340.585 43.3V51H337.735V37.225H340.585V38.8C341.052 38.2333 341.644 37.7917 342.36 37.475C343.094 37.1583 343.869 37 344.685 37ZM359.221 51.225C358.137 51.225 357.162 51.0333 356.296 50.65C355.446 50.25 354.771 49.7167 354.271 49.05C353.771 48.3667 353.504 47.6083 353.471 46.775H356.421C356.471 47.3583 356.746 47.85 357.246 48.25C357.762 48.6333 358.404 48.825 359.171 48.825C359.971 48.825 360.587 48.675 361.021 48.375C361.471 48.0583 361.696 47.6583 361.696 47.175C361.696 46.6583 361.446 46.275 360.946 46.025C360.462 45.775 359.687 45.5 358.621 45.2C357.587 44.9167 356.746 44.6417 356.096 44.375C355.446 44.1083 354.879 43.7 354.396 43.15C353.929 42.6 353.696 41.875 353.696 40.975C353.696 40.2417 353.912 39.575 354.346 38.975C354.779 38.3583 355.396 37.875 356.196 37.525C357.012 37.175 357.946 37 358.996 37C360.562 37 361.821 37.4 362.771 38.2C363.737 38.9833 364.254 40.0583 364.321 41.425H361.471C361.421 40.8083 361.171 40.3167 360.721 39.95C360.271 39.5833 359.662 39.4 358.896 39.4C358.146 39.4 357.571 39.5417 357.171 39.825C356.771 40.1083 356.571 40.4833 356.571 40.95C356.571 41.3167 356.704 41.625 356.971 41.875C357.237 42.125 357.562 42.325 357.946 42.475C358.329 42.6083 358.896 42.7833 359.646 43C360.646 43.2667 361.462 43.5417 362.096 43.825C362.746 44.0917 363.304 44.4917 363.771 45.025C364.237 45.5583 364.479 46.2667 364.496 47.15C364.496 47.9333 364.279 48.6333 363.846 49.25C363.412 49.8667 362.796 50.35 361.996 50.7C361.212 51.05 360.287 51.225 359.221 51.225Z" fill="#2E0D64"/>
<path d="M53.8281 25.6406H37.1719C36.4925 25.6415 35.8413 25.9118 35.3609 26.3921C34.8805 26.8725 34.6103 27.5238 34.6094 28.2031V62.7969C34.6103 63.4762 34.8805 64.1275 35.3609 64.6079C35.8413 65.0882 36.4925 65.3585 37.1719 65.3594H53.8281C54.5075 65.3585 55.1587 65.0882 55.6391 64.6079C56.1195 64.1275 56.3897 63.4762 56.3906 62.7969V28.2031C56.3897 27.5238 56.1195 26.8725 55.6391 26.3921C55.1587 25.9118 54.5075 25.6415 53.8281 25.6406ZM48.4981 26.9219L48.1378 28.2031H42.7974L42.4771 26.9219H48.4981ZM55.1094 62.7969C55.1089 63.1365 54.9738 63.4622 54.7336 63.7024C54.4934 63.9426 54.1678 64.0777 53.8281 64.0781H37.1719C36.8322 64.0777 36.5066 63.9426 36.2664 63.7024C36.0262 63.4622 35.8911 63.1365 35.8906 62.7969V28.2031C35.8911 27.8635 36.0262 27.5378 36.2664 27.2976C36.5066 27.0575 36.8322 26.9223 37.1719 26.9219H41.1558L41.6755 28.9991C41.7101 29.1377 41.7901 29.2607 41.9027 29.3487C42.0153 29.4366 42.154 29.4844 42.2969 29.4844H48.623C48.7627 29.4844 48.8984 29.4388 49.0097 29.3545C49.1211 29.2702 49.2018 29.1519 49.2396 29.0175L49.829 26.9219H53.8281C54.1678 26.9223 54.4934 27.0575 54.7336 27.2976C54.9738 27.5378 55.1089 27.8635 55.1094 28.2031V62.7969Z" fill="#6E00FA"/>
<path d="M42.2969 61.5156H37.8125C37.6426 61.5156 37.4796 61.5831 37.3595 61.7033C37.2394 61.8234 37.1719 61.9863 37.1719 62.1562C37.1719 62.3262 37.2394 62.4891 37.3595 62.6092C37.4796 62.7294 37.6426 62.7969 37.8125 62.7969H42.2969C42.4668 62.7969 42.6297 62.7294 42.7499 62.6092C42.87 62.4891 42.9375 62.3262 42.9375 62.1562C42.9375 61.9863 42.87 61.8234 42.7499 61.7033C42.6297 61.5831 42.4668 61.5156 42.2969 61.5156Z" fill="#6E00FA"/>
<path d="M44.8594 61.5156H44.2188C44.0488 61.5156 43.8859 61.5831 43.7658 61.7033C43.6456 61.8234 43.5781 61.9863 43.5781 62.1562C43.5781 62.3262 43.6456 62.4891 43.7658 62.6092C43.8859 62.7294 44.0488 62.7969 44.2188 62.7969H44.8594C45.0293 62.7969 45.1922 62.7294 45.3124 62.6092C45.4325 62.4891 45.5 62.3262 45.5 62.1562C45.5 61.9863 45.4325 61.8234 45.3124 61.7033C45.1922 61.5831 45.0293 61.5156 44.8594 61.5156Z" fill="#6E00FA"/>
<path d="M47.7515 41.7475C47.6794 41.7043 47.5994 41.6756 47.5162 41.6632C47.433 41.6508 47.3481 41.655 47.2665 41.6754C47.1849 41.6958 47.1081 41.7321 47.0405 41.7821C46.9729 41.8322 46.9158 41.8951 46.8726 41.9673L43.0288 48.3735C42.9414 48.5192 42.9154 48.6937 42.9566 48.8585C42.9978 49.0234 43.1028 49.1651 43.2485 49.2525C43.3942 49.3399 43.5687 49.3659 43.7335 49.3246C43.8983 49.2834 44.0401 49.1784 44.1275 49.0327L47.9712 42.6265C48.0145 42.5543 48.0432 42.4744 48.0555 42.3912C48.0679 42.308 48.0638 42.2231 48.0434 42.1415C48.023 42.0599 47.9867 41.9831 47.9366 41.9155C47.8865 41.8479 47.8236 41.7908 47.7515 41.7475Z" fill="#6E00FA"/>
<path d="M49.844 41.8965C49.7914 41.8308 49.7264 41.7761 49.6527 41.7355C49.579 41.695 49.498 41.6693 49.4144 41.66C49.2455 41.6413 49.076 41.6904 48.9434 41.7966C48.8107 41.9028 48.7256 42.0574 48.7069 42.2263C48.6882 42.3952 48.7373 42.5646 48.8435 42.6973L51.0857 45.5L48.8435 48.3027C48.7373 48.4354 48.6882 48.6048 48.7069 48.7737C48.7256 48.9426 48.8107 49.0972 48.9434 49.2034C49.076 49.3096 49.2455 49.3587 49.4144 49.34C49.5833 49.3212 49.7378 49.2362 49.844 49.1035L52.4065 45.9004C52.4975 45.7868 52.547 45.6456 52.547 45.5C52.547 45.3544 52.4975 45.2132 52.4065 45.0996L49.844 41.8965Z" fill="#6E00FA"/>
<path d="M41.1559 49.1035C41.2621 49.2362 41.4167 49.3213 41.5856 49.34C41.7545 49.3587 41.9239 49.3096 42.0566 49.2034C42.1892 49.0972 42.2743 48.9427 42.293 48.7737C42.3117 48.6048 42.2626 48.4354 42.1564 48.3027L39.9142 45.5L42.1564 42.6973C42.209 42.6316 42.2481 42.5562 42.2716 42.4754C42.295 42.3945 42.3023 42.3099 42.293 42.2263C42.2837 42.1426 42.2581 42.0617 42.2175 41.9879C42.1769 41.9142 42.1222 41.8492 42.0566 41.7966C41.9909 41.7441 41.9155 41.7049 41.8346 41.6815C41.7538 41.658 41.6692 41.6508 41.5856 41.66C41.5019 41.6693 41.4209 41.695 41.3472 41.7355C41.2735 41.7761 41.2085 41.8308 41.1559 41.8965L38.5934 45.0996C38.5024 45.2132 38.4529 45.3545 38.4529 45.5C38.4529 45.6456 38.5024 45.7868 38.5934 45.9004L41.1559 49.1035Z" fill="#6E00FA"/>
</svg>
