<svg width="162" height="90" viewBox="0 0 162 90" fill="none" xmlns="http://www.w3.org/2000/svg">
<rect width="91" height="90" rx="20" fill="#E2F3FF"/>
<path d="M120.949 49.175C119.782 49.175 118.732 48.975 117.799 48.575C116.865 48.1583 116.132 47.575 115.599 46.825C115.065 46.075 114.799 45.2 114.799 44.2H117.849C117.915 44.95 118.207 45.5667 118.724 46.05C119.257 46.5333 119.999 46.775 120.949 46.775C121.932 46.775 122.699 46.5417 123.249 46.075C123.799 45.5917 124.074 44.975 124.074 44.225C124.074 43.6417 123.899 43.1667 123.549 42.8C123.215 42.4333 122.79 42.15 122.274 41.95C121.774 41.75 121.074 41.5333 120.174 41.3C119.04 41 118.115 40.7 117.399 40.4C116.699 40.0833 116.099 39.6 115.599 38.95C115.099 38.3 114.849 37.4333 114.849 36.35C114.849 35.35 115.099 34.475 115.599 33.725C116.099 32.975 116.799 32.4 117.699 32C118.599 31.6 119.64 31.4 120.824 31.4C122.507 31.4 123.882 31.825 124.949 32.675C126.032 33.5083 126.632 34.6583 126.749 36.125H123.599C123.549 35.4917 123.249 34.95 122.699 34.5C122.149 34.05 121.424 33.825 120.524 33.825C119.707 33.825 119.04 34.0333 118.524 34.45C118.007 34.8667 117.749 35.4667 117.749 36.25C117.749 36.7833 117.907 37.225 118.224 37.575C118.557 37.9083 118.974 38.175 119.474 38.375C119.974 38.575 120.657 38.7917 121.524 39.025C122.674 39.3417 123.607 39.6583 124.324 39.975C125.057 40.2917 125.674 40.7833 126.174 41.45C126.69 42.1 126.949 42.975 126.949 44.075C126.949 44.9583 126.707 45.7917 126.224 46.575C125.757 47.3583 125.065 47.9917 124.149 48.475C123.249 48.9417 122.182 49.175 120.949 49.175ZM133.412 33.925V39.025H139.412V41.35H133.412V46.675H140.162V49H130.562V31.6H140.162V33.925H133.412ZM151.847 49.175C150.23 49.175 148.739 48.8 147.372 48.05C146.022 47.2833 144.947 46.225 144.147 44.875C143.364 43.5083 142.972 41.975 142.972 40.275C142.972 38.575 143.364 37.05 144.147 35.7C144.947 34.35 146.022 33.3 147.372 32.55C148.739 31.7833 150.23 31.4 151.847 31.4C153.48 31.4 154.972 31.7833 156.322 32.55C157.689 33.3 158.764 34.35 159.547 35.7C160.33 37.05 160.722 38.575 160.722 40.275C160.722 41.975 160.33 43.5083 159.547 44.875C158.764 46.225 157.689 47.2833 156.322 48.05C154.972 48.8 153.48 49.175 151.847 49.175ZM151.847 46.7C152.997 46.7 154.022 46.4417 154.922 45.925C155.822 45.3917 156.522 44.6417 157.022 43.675C157.539 42.6917 157.797 41.5583 157.797 40.275C157.797 38.9917 157.539 37.8667 157.022 36.9C156.522 35.9333 155.822 35.1917 154.922 34.675C154.022 34.1583 152.997 33.9 151.847 33.9C150.697 33.9 149.672 34.1583 148.772 34.675C147.872 35.1917 147.164 35.9333 146.647 36.9C146.147 37.8667 145.897 38.9917 145.897 40.275C145.897 41.5583 146.147 42.6917 146.647 43.675C147.164 44.6417 147.872 45.3917 148.772 45.925C149.672 46.4417 150.697 46.7 151.847 46.7Z" fill="#2E0D64"/>
<g clip-path="url(#clip0_2_1417)">
<path d="M46.5139 43.4871C46.2008 43.174 45.6939 43.174 45.3808 43.4871C45.0685 43.7994 45.0685 44.3063 45.3808 44.6194C45.6939 44.9317 46.2008 44.9317 46.5139 44.6194C46.8262 44.3063 46.8262 43.7994 46.5139 43.4871Z" fill="#0073C6"/>
<path d="M56.7055 33.2947C55.1408 31.73 52.6078 31.7299 51.043 33.2947C49.4823 34.8553 49.4823 37.3954 51.0432 38.9573C52.6044 40.5175 55.1445 40.5182 56.7055 38.9571C58.2701 37.3926 58.2704 34.8595 56.7055 33.2947ZM55.5731 37.8246C54.6367 38.761 53.1125 38.761 52.1757 37.8248C51.2392 36.8877 51.2391 35.3635 52.1755 34.4271C53.1143 33.4884 54.6342 33.4882 55.5731 34.4271C56.5118 35.3658 56.512 36.8858 55.5731 37.8246Z" fill="#0073C6"/>
<path d="M65.7653 24.2345C65.608 24.0773 65.3934 23.9921 65.1703 24.0005C64.9892 24.007 60.6782 24.1803 55.5537 25.9916C51.4473 27.4415 48.0245 29.5173 45.3804 32.1615C44.7879 32.754 44.2113 33.3823 43.6597 34.035C41.0453 32.4961 38.9503 32.9786 37.6259 33.6874C34.5764 35.3194 32.6889 39.7506 32.6889 42.9201C32.6891 43.2439 32.8843 43.5359 33.1835 43.6598C33.2825 43.7009 33.3866 43.7208 33.4898 43.7208C33.6982 43.7208 33.903 43.6394 34.0562 43.4863C35.6644 41.8781 37.648 41.9787 38.296 42.0639L38.5764 42.3443C38.0245 43.6576 37.5799 44.9635 37.2538 46.2336C37.1361 46.6932 37.1758 47.1796 37.3508 47.6246C36.5798 47.9799 35.836 48.5016 35.1883 49.1492C33.127 51.2106 32.7084 56.2342 32.6916 56.4471C32.6732 56.6807 32.7579 56.9106 32.9236 57.0763C33.0744 57.227 33.2784 57.3109 33.4898 57.3109C33.5107 57.3109 33.5318 57.3101 33.5529 57.3084C33.7657 57.2916 38.7895 56.8731 40.8508 54.8118C41.4982 54.1644 42.0198 53.4206 42.3751 52.6498C42.8462 52.835 43.3309 52.8578 43.7669 52.7461C45.0364 52.4201 46.3422 51.9757 47.6556 51.4237L47.9361 51.7041C48.0212 52.3522 48.1218 54.3358 46.5136 55.9439C46.2847 56.1729 46.2162 56.5173 46.3401 56.8165C46.464 57.1157 46.756 57.3108 47.0799 57.3108C50.2494 57.3108 54.6805 55.4233 56.3125 52.3738C57.0212 51.0496 57.5038 48.9546 55.9648 46.3401C56.6172 45.7887 57.2456 45.2121 57.8384 44.6194C60.4825 41.9752 62.5583 38.5524 64.0082 34.4464C65.8196 29.3215 65.9928 25.0105 65.9993 24.8295C66.0073 24.6073 65.9225 24.3918 65.7653 24.2345ZM34.4793 41.1977C34.9767 38.7903 36.4216 36.1486 38.3819 35.0994C39.6919 34.3984 41.1238 34.4671 42.6462 35.3005C41.3492 37.0063 40.2216 38.8441 39.2817 40.7848C39.2698 40.7774 39.1257 40.5962 38.8579 40.5358C38.7478 40.5109 36.629 40.0552 34.4793 41.1977ZM39.7183 53.6792C38.6172 54.7803 36.0343 55.361 34.4018 55.5982C34.639 53.9655 35.2198 51.3827 36.3208 50.2817C36.9374 49.6651 37.6523 49.1976 38.3709 48.9343L41.0657 51.6291C40.8024 52.3477 40.335 53.0626 39.7183 53.6792ZM43.3691 51.1947C43.1373 51.254 42.8689 51.1669 42.6693 50.9676C41.6334 49.9317 41.2281 49.5264 41.1009 49.3993C40.8677 49.1661 40.2959 48.5943 39.0328 47.3311C38.8331 47.131 38.746 46.8627 38.8052 46.6313C39.0617 45.6325 39.3971 44.6076 39.805 43.5729L46.4271 50.195C45.3922 50.603 44.3676 50.9383 43.3691 51.1947ZM54.9006 51.6181C53.8514 53.5784 51.2098 55.0233 48.8025 55.5206C49.5701 54.0763 49.7393 52.2376 49.4588 51.1227C49.3937 50.8637 49.2248 50.7335 49.2153 50.7182C51.1558 49.7783 52.9936 48.6508 54.6995 47.3537C55.5329 48.8763 55.6015 50.3084 54.9006 51.6181ZM56.7061 43.4869C55.9845 44.2084 55.2075 44.9055 54.3966 45.5587C52.4473 47.1282 50.3019 48.4577 48.0129 49.516L40.484 41.9872C41.5423 39.6981 42.8718 37.5527 44.4411 35.6036C45.0949 34.7922 45.7919 34.0151 46.5132 33.294C48.8855 30.9216 51.9472 29.0335 55.6157 27.6744L62.3256 34.3843C60.9667 38.0528 59.0786 41.1145 56.7061 43.4869ZM62.9018 32.6954L57.3046 27.0982C60.3541 26.1511 63.007 25.7964 64.3312 25.6689C64.2036 26.9933 63.8488 29.6462 62.9018 32.6954Z" fill="#0073C6"/>
<path d="M44.2484 57.0761C43.9355 56.7634 43.4285 56.7636 43.1158 57.0763L40.8512 59.3417C40.5386 59.6545 40.5387 60.1615 40.8514 60.4742C41.1643 60.7868 41.6713 60.7868 41.9839 60.474L44.2485 58.2086C44.5612 57.8958 44.5611 57.3887 44.2484 57.0761Z" fill="#0073C6"/>
<path d="M32.9241 45.7516C32.6115 45.4389 32.1045 45.4389 31.7916 45.7515L29.5262 48.0161C29.2134 48.3287 29.2133 48.8358 29.526 49.1485C29.8385 49.4612 30.3455 49.4615 30.6584 49.1487L32.9238 46.8841C33.2366 46.5715 33.2367 46.0644 32.9241 45.7516Z" fill="#0073C6"/>
<path d="M38.5863 58.2093C38.2738 57.8966 37.7667 57.8966 37.4539 58.2093L32.0294 63.6329C31.7166 63.9456 31.7166 64.4527 32.0293 64.7654C32.3419 65.0781 32.849 65.0783 33.1618 64.7655L38.5863 59.3418C38.899 59.0291 38.899 58.522 38.5863 58.2093Z" fill="#0073C6"/>
<path d="M32.18 58.2093C31.8674 57.8966 31.3603 57.8966 31.0476 58.2093L25.6231 63.6329C25.3103 63.9456 25.3103 64.4527 25.623 64.7654C25.9356 65.0781 26.4427 65.0783 26.7555 64.7655L32.18 59.3418C32.4927 59.0291 32.4927 58.522 32.18 58.2093Z" fill="#0073C6"/>
<path d="M31.7908 51.4137C31.4782 51.1011 30.971 51.1011 30.6583 51.4138L25.2346 56.8383C24.9219 57.1511 24.9219 57.658 25.2347 57.9708C25.5474 58.2835 26.0545 58.2835 26.3672 57.9707L31.7909 52.5463C32.1036 52.2335 32.1036 51.7265 31.7908 51.4137Z" fill="#0073C6"/>
<path d="M49.9109 40.0892C49.5981 39.7765 49.0912 39.7765 48.7783 40.0892L47.646 41.2215C47.3333 41.5342 47.3333 42.0413 47.646 42.354C47.9588 42.6668 48.4658 42.6668 48.7786 42.354L49.9109 41.2217C50.2236 40.909 50.2236 40.402 49.9109 40.0892Z" fill="#0073C6"/>
</g>
<defs>
<clipPath id="clip0_2_1417">
<rect width="41" height="41" fill="white" transform="translate(25 24)"/>
</clipPath>
</defs>
</svg>
