<svg width="508" height="109" viewBox="0 0 508 109" fill="none" xmlns="http://www.w3.org/2000/svg">
<rect y="7" width="91" height="90" rx="20" fill="#FFE7FB"/>
<g clip-path="url(#clip0_2_1618)">
<path d="M44.8125 52.5C44.433 52.5 44.125 52.192 44.125 51.8125V44.9375C44.125 44.558 44.433 44.25 44.8125 44.25H46.875C48.3916 44.25 49.625 45.4834 49.625 47C49.625 48.5166 48.3916 49.75 46.875 49.75H45.5V51.8125C45.5 52.192 45.192 52.5 44.8125 52.5ZM45.5 48.375H46.875C47.634 48.375 48.25 47.7576 48.25 47C48.25 46.2424 47.634 45.625 46.875 45.625H45.5V48.375Z" fill="#B50097"/>
<path d="M48.9375 52.5001C48.7615 52.5001 48.5855 52.4327 48.4508 52.2993L45.7008 49.5493C45.4326 49.2812 45.4326 48.8453 45.7008 48.5772C45.9689 48.3091 46.4048 48.3091 46.6729 48.5772L49.4229 51.3272C49.691 51.5953 49.691 52.0312 49.4229 52.2993C49.2895 52.4327 49.1135 52.5001 48.9375 52.5001Z" fill="#B50097"/>
<path d="M38.625 52.5C38.3211 52.5 38.0544 52.3006 37.9664 52.0105L35.9039 45.1355C35.7939 44.7725 36.0001 44.3888 36.3645 44.2788C36.7275 44.1716 37.1111 44.3765 37.2211 44.7395L38.625 49.42L40.0289 44.7408C40.1375 44.3765 40.5239 44.173 40.8841 44.2802C41.2485 44.3902 41.4547 44.7725 41.3447 45.1368L39.2822 52.0118C39.1956 52.3006 38.9289 52.5 38.625 52.5Z" fill="#B50097"/>
<path d="M54.4375 48.375C53.3004 48.375 52.375 47.4496 52.375 46.3125C52.375 45.1754 53.3004 44.25 54.4375 44.25C55.5746 44.25 56.5 45.1754 56.5 46.3125C56.5 47.4496 55.5746 48.375 54.4375 48.375ZM54.4375 45.625C54.0594 45.625 53.75 45.933 53.75 46.3125C53.75 46.692 54.0594 47 54.4375 47C54.8156 47 55.125 46.692 55.125 46.3125C55.125 45.933 54.8156 45.625 54.4375 45.625Z" fill="#B50097"/>
<path d="M58.5625 59.375H49.8587C49.5631 59.375 49.3005 59.1853 49.2056 58.9048L48.602 57.0898C48.5071 56.8161 48.2417 56.625 47.9475 56.625H43.0525C42.7583 56.625 42.4943 56.8161 42.3939 57.1008L41.793 58.9061C41.6995 59.1853 41.4369 59.375 41.1412 59.375H32.4375C30.5414 59.375 29 57.8323 29 55.9375V43.5625C29 41.6678 30.5414 40.125 32.4375 40.125H58.5625C60.4586 40.125 62 41.6678 62 43.5625V55.9375C62 57.8323 60.4586 59.375 58.5625 59.375ZM50.3538 58H58.5625C59.6996 58 60.625 57.0746 60.625 55.9375V43.5625C60.625 42.4254 59.6996 41.5 58.5625 41.5H32.4375C31.3004 41.5 30.375 42.4254 30.375 43.5625V55.9375C30.375 57.0746 31.3004 58 32.4375 58H40.6463L41.0931 56.6553C41.3901 55.811 42.1753 55.25 43.0525 55.25H47.9489C48.8261 55.25 49.6112 55.811 49.9041 56.6456L50.3538 58Z" fill="#B50097"/>
<path d="M57.1875 41.5C56.808 41.5 56.5 41.192 56.5 40.8125V39.4375C56.5 38.3004 55.5746 37.375 54.4375 37.375H36.5625C35.4254 37.375 34.5 38.3004 34.5 39.4375V40.8125C34.5 41.192 34.192 41.5 33.8125 41.5C33.433 41.5 33.125 41.192 33.125 40.8125V39.4375C33.125 37.5428 34.6664 36 36.5625 36H54.4375C56.3336 36 57.875 37.5428 57.875 39.4375V40.8125C57.875 41.192 57.567 41.5 57.1875 41.5Z" fill="#B50097"/>
<path d="M44.125 69C43.9174 69 43.7097 68.9051 43.575 68.725C43.3481 68.4211 43.41 67.9907 43.7139 67.7625L45.731 66.25L43.7125 64.7375C43.4086 64.5092 43.3467 64.0789 43.5736 63.775C43.8032 63.4697 44.2336 63.412 44.5361 63.6375L47.2861 65.7C47.4594 65.8292 47.5611 66.0341 47.5611 66.25C47.5611 66.4658 47.4594 66.6707 47.2861 66.8L44.5361 68.8625C44.4137 68.9546 44.268 69 44.125 69Z" fill="#B50097"/>
<path d="M45.5 66.9375C44.0906 66.9375 42.6537 66.8852 41.2306 66.7848C35.3181 66.3586 29 64.9107 29 62.125C29 61.8348 29.0756 61.5365 29.2241 61.2395C29.3946 60.8985 29.8099 60.7623 30.1481 60.9328C30.4864 61.1033 30.6239 61.5158 30.4547 61.8555C30.4025 61.96 30.375 62.0507 30.375 62.125C30.375 63.1328 33.8551 64.875 41.3282 65.414C42.7294 65.513 44.1209 65.6106 45.5289 65.5625C45.8534 65.5625 46.1655 65.5625 46.4762 65.5501C46.8736 65.5336 47.1761 65.8292 47.1926 66.2087C47.2077 66.5882 46.9121 66.9086 46.534 66.9237C46.193 66.9375 45.8534 66.9375 45.5 66.9375Z" fill="#B50097"/>
<path d="M50.2974 66.7312C49.944 66.7312 49.6429 66.4589 49.614 66.1001C49.5838 65.7219 49.8643 65.3892 50.2424 65.3576C57.3264 64.7787 60.625 63.0861 60.625 62.125C60.625 62.0507 60.5975 61.96 60.5453 61.8555C60.3761 61.5158 60.5136 61.1033 60.8519 60.9328C61.1888 60.761 61.604 60.8985 61.7759 61.2395C61.9244 61.5365 62 61.8348 62 62.125C62 65.5116 53.0873 66.5057 50.3551 66.7298C50.3373 66.7312 50.3166 66.7312 50.2974 66.7312Z" fill="#B50097"/>
</g>
<path d="M134.6 27.45H127.325L126.075 31H123.1L129.325 13.6H132.625L138.85 31H135.85L134.6 27.45ZM133.8 25.125L130.975 17.05L128.125 25.125H133.8ZM150.831 31L146.831 24.05H144.656V31H141.806V13.625H147.806C149.139 13.625 150.264 13.8583 151.181 14.325C152.114 14.7917 152.806 15.4167 153.256 16.2C153.723 16.9833 153.956 17.8583 153.956 18.825C153.956 19.9583 153.623 20.9917 152.956 21.925C152.306 22.8417 151.298 23.4667 149.931 23.8L154.231 31H150.831ZM144.656 21.775H147.806C148.873 21.775 149.673 21.5083 150.206 20.975C150.756 20.4417 151.031 19.725 151.031 18.825C151.031 17.925 150.764 17.225 150.231 16.725C149.698 16.2083 148.889 15.95 147.806 15.95H144.656V21.775ZM167.102 7.4L160.302 35.375H157.502L164.277 7.4H167.102ZM185.919 13.625L179.394 31H176.094L169.544 13.625H172.594L177.744 28.075L182.919 13.625H185.919ZM197.577 31L193.577 24.05H191.402V31H188.552V13.625H194.552C195.886 13.625 197.011 13.8583 197.927 14.325C198.861 14.7917 199.552 15.4167 200.002 16.2C200.469 16.9833 200.702 17.8583 200.702 18.825C200.702 19.9583 200.369 20.9917 199.702 21.925C199.052 22.8417 198.044 23.4667 196.677 23.8L200.977 31H197.577ZM191.402 21.775H194.552C195.619 21.775 196.419 21.5083 196.952 20.975C197.502 20.4417 197.777 19.725 197.777 18.825C197.777 17.925 197.511 17.225 196.977 16.725C196.444 16.2083 195.636 15.95 194.552 15.95H191.402V21.775ZM217.067 31.175C215.901 31.175 214.851 30.975 213.917 30.575C212.984 30.1583 212.251 29.575 211.717 28.825C211.184 28.075 210.917 27.2 210.917 26.2H213.967C214.034 26.95 214.326 27.5667 214.842 28.05C215.376 28.5333 216.117 28.775 217.067 28.775C218.051 28.775 218.817 28.5417 219.367 28.075C219.917 27.5917 220.192 26.975 220.192 26.225C220.192 25.6417 220.017 25.1667 219.667 24.8C219.334 24.4333 218.909 24.15 218.392 23.95C217.892 23.75 217.192 23.5333 216.292 23.3C215.159 23 214.234 22.7 213.517 22.4C212.817 22.0833 212.217 21.6 211.717 20.95C211.217 20.3 210.967 19.4333 210.967 18.35C210.967 17.35 211.217 16.475 211.717 15.725C212.217 14.975 212.917 14.4 213.817 14C214.717 13.6 215.759 13.4 216.942 13.4C218.626 13.4 220.001 13.825 221.067 14.675C222.151 15.5083 222.751 16.6583 222.867 18.125H219.717C219.667 17.4917 219.367 16.95 218.817 16.5C218.267 16.05 217.542 15.825 216.642 15.825C215.826 15.825 215.159 16.0333 214.642 16.45C214.126 16.8667 213.867 17.4667 213.867 18.25C213.867 18.7833 214.026 19.225 214.342 19.575C214.676 19.9083 215.092 20.175 215.592 20.375C216.092 20.575 216.776 20.7917 217.642 21.025C218.792 21.3417 219.726 21.6583 220.442 21.975C221.176 22.2917 221.792 22.7833 222.292 23.45C222.809 24.1 223.067 24.975 223.067 26.075C223.067 26.9583 222.826 27.7917 222.342 28.575C221.876 29.3583 221.184 29.9917 220.267 30.475C219.367 30.9417 218.301 31.175 217.067 31.175ZM232.655 31.225C231.355 31.225 230.18 30.9333 229.13 30.35C228.08 29.75 227.255 28.9167 226.655 27.85C226.055 26.7667 225.755 25.5167 225.755 24.1C225.755 22.7 226.064 21.4583 226.68 20.375C227.297 19.2917 228.139 18.4583 229.205 17.875C230.272 17.2917 231.464 17 232.78 17C234.097 17 235.289 17.2917 236.355 17.875C237.422 18.4583 238.264 19.2917 238.88 20.375C239.497 21.4583 239.805 22.7 239.805 24.1C239.805 25.5 239.489 26.7417 238.855 27.825C238.222 28.9083 237.355 29.75 236.255 30.35C235.172 30.9333 233.972 31.225 232.655 31.225ZM232.655 28.75C233.389 28.75 234.072 28.575 234.705 28.225C235.355 27.875 235.88 27.35 236.28 26.65C236.68 25.95 236.88 25.1 236.88 24.1C236.88 23.1 236.689 22.2583 236.305 21.575C235.922 20.875 235.414 20.35 234.78 20C234.147 19.65 233.464 19.475 232.73 19.475C231.997 19.475 231.314 19.65 230.68 20C230.064 20.35 229.572 20.875 229.205 21.575C228.839 22.2583 228.655 23.1 228.655 24.1C228.655 25.5833 229.03 26.7333 229.78 27.55C230.547 28.35 231.505 28.75 232.655 28.75ZM245.723 12.5V31H242.873V12.5H245.723ZM262.189 17.225V31H259.339V29.375C258.889 29.9417 258.298 30.3917 257.564 30.725C256.848 31.0417 256.081 31.2 255.264 31.2C254.181 31.2 253.206 30.975 252.339 30.525C251.489 30.075 250.814 29.4083 250.314 28.525C249.831 27.6417 249.589 26.575 249.589 25.325V17.225H252.414V24.9C252.414 26.1333 252.723 27.0833 253.339 27.75C253.956 28.4 254.798 28.725 255.864 28.725C256.931 28.725 257.773 28.4 258.389 27.75C259.023 27.0833 259.339 26.1333 259.339 24.9V17.225H262.189ZM269.525 19.55V27.175C269.525 27.6917 269.641 28.0667 269.875 28.3C270.125 28.5167 270.541 28.625 271.125 28.625H272.875V31H270.625C269.341 31 268.358 30.7 267.675 30.1C266.991 29.5 266.65 28.525 266.65 27.175V19.55H265.025V17.225H266.65V13.8H269.525V17.225H272.875V19.55H269.525ZM277.201 15.4C276.685 15.4 276.251 15.225 275.901 14.875C275.551 14.525 275.376 14.0917 275.376 13.575C275.376 13.0583 275.551 12.625 275.901 12.275C276.251 11.925 276.685 11.75 277.201 11.75C277.701 11.75 278.126 11.925 278.476 12.275C278.826 12.625 279.001 13.0583 279.001 13.575C279.001 14.0917 278.826 14.525 278.476 14.875C278.126 15.225 277.701 15.4 277.201 15.4ZM278.601 17.225V31H275.751V17.225H278.601ZM288.568 31.225C287.268 31.225 286.093 30.9333 285.043 30.35C283.993 29.75 283.168 28.9167 282.568 27.85C281.968 26.7667 281.668 25.5167 281.668 24.1C281.668 22.7 281.977 21.4583 282.593 20.375C283.21 19.2917 284.052 18.4583 285.118 17.875C286.185 17.2917 287.377 17 288.693 17C290.01 17 291.202 17.2917 292.268 17.875C293.335 18.4583 294.177 19.2917 294.793 20.375C295.41 21.4583 295.718 22.7 295.718 24.1C295.718 25.5 295.402 26.7417 294.768 27.825C294.135 28.9083 293.268 29.75 292.168 30.35C291.085 30.9333 289.885 31.225 288.568 31.225ZM288.568 28.75C289.302 28.75 289.985 28.575 290.618 28.225C291.268 27.875 291.793 27.35 292.193 26.65C292.593 25.95 292.793 25.1 292.793 24.1C292.793 23.1 292.602 22.2583 292.218 21.575C291.835 20.875 291.327 20.35 290.693 20C290.06 19.65 289.377 19.475 288.643 19.475C287.91 19.475 287.227 19.65 286.593 20C285.977 20.35 285.485 20.875 285.118 21.575C284.752 22.2583 284.568 23.1 284.568 24.1C284.568 25.5833 284.943 26.7333 285.693 27.55C286.46 28.35 287.418 28.75 288.568 28.75ZM305.736 17C306.819 17 307.786 17.225 308.636 17.675C309.502 18.125 310.177 18.7917 310.661 19.675C311.144 20.5583 311.386 21.625 311.386 22.875V31H308.561V23.3C308.561 22.0667 308.252 21.125 307.636 20.475C307.019 19.8083 306.177 19.475 305.111 19.475C304.044 19.475 303.194 19.8083 302.561 20.475C301.944 21.125 301.636 22.0667 301.636 23.3V31H298.786V17.225H301.636V18.8C302.102 18.2333 302.694 17.7917 303.411 17.475C304.144 17.1583 304.919 17 305.736 17ZM320.271 31.225C319.188 31.225 318.213 31.0333 317.346 30.65C316.496 30.25 315.821 29.7167 315.321 29.05C314.821 28.3667 314.554 27.6083 314.521 26.775H317.471C317.521 27.3583 317.796 27.85 318.296 28.25C318.813 28.6333 319.454 28.825 320.221 28.825C321.021 28.825 321.638 28.675 322.071 28.375C322.521 28.0583 322.746 27.6583 322.746 27.175C322.746 26.6583 322.496 26.275 321.996 26.025C321.513 25.775 320.738 25.5 319.671 25.2C318.638 24.9167 317.796 24.6417 317.146 24.375C316.496 24.1083 315.929 23.7 315.446 23.15C314.979 22.6 314.746 21.875 314.746 20.975C314.746 20.2417 314.963 19.575 315.396 18.975C315.829 18.3583 316.446 17.875 317.246 17.525C318.063 17.175 318.996 17 320.046 17C321.613 17 322.871 17.4 323.821 18.2C324.788 18.9833 325.304 20.0583 325.371 21.425H322.521C322.471 20.8083 322.221 20.3167 321.771 19.95C321.321 19.5833 320.713 19.4 319.946 19.4C319.196 19.4 318.621 19.5417 318.221 19.825C317.821 20.1083 317.621 20.4833 317.621 20.95C317.621 21.3167 317.754 21.625 318.021 21.875C318.288 22.125 318.613 22.325 318.996 22.475C319.379 22.6083 319.946 22.7833 320.696 23C321.696 23.2667 322.513 23.5417 323.146 23.825C323.796 24.0917 324.354 24.4917 324.821 25.025C325.288 25.5583 325.529 26.2667 325.546 27.15C325.546 27.9333 325.329 28.6333 324.896 29.25C324.463 29.8667 323.846 30.35 323.046 30.7C322.263 31.05 321.338 31.225 320.271 31.225Z" fill="black"/>
<path d="M129.824 70.52H124.96L124.064 73H122.528L126.56 61.912H128.24L132.256 73H130.72L129.824 70.52ZM129.408 69.336L127.392 63.704L125.376 69.336H129.408ZM133.629 68.584C133.629 67.688 133.811 66.904 134.173 66.232C134.536 65.5493 135.032 65.0213 135.661 64.648C136.301 64.2747 137.016 64.088 137.805 64.088C138.488 64.088 139.123 64.248 139.709 64.568C140.296 64.8773 140.744 65.288 141.053 65.8V61.16H142.525V73H141.053V71.352C140.765 71.8747 140.339 72.3067 139.773 72.648C139.208 72.9787 138.547 73.144 137.789 73.144C137.011 73.144 136.301 72.952 135.661 72.568C135.032 72.184 134.536 71.6453 134.173 70.952C133.811 70.2587 133.629 69.4693 133.629 68.584ZM141.053 68.6C141.053 67.9387 140.92 67.3627 140.653 66.872C140.387 66.3813 140.024 66.008 139.565 65.752C139.117 65.4853 138.621 65.352 138.077 65.352C137.533 65.352 137.037 65.48 136.589 65.736C136.141 65.992 135.784 66.3653 135.517 66.856C135.251 67.3467 135.117 67.9227 135.117 68.584C135.117 69.256 135.251 69.8427 135.517 70.344C135.784 70.8347 136.141 71.2133 136.589 71.48C137.037 71.736 137.533 71.864 138.077 71.864C138.621 71.864 139.117 71.736 139.565 71.48C140.024 71.2133 140.387 70.8347 140.653 70.344C140.92 69.8427 141.053 69.2613 141.053 68.6ZM148.41 71.656L151.13 64.232H152.682L149.242 73H147.546L144.106 64.232H145.674L148.41 71.656ZM153.73 68.584C153.73 67.688 153.912 66.904 154.274 66.232C154.637 65.5493 155.133 65.0213 155.762 64.648C156.402 64.2747 157.112 64.088 157.89 64.088C158.658 64.088 159.325 64.2533 159.891 64.584C160.456 64.9147 160.877 65.3307 161.155 65.832V64.232H162.627V73H161.155V71.368C160.866 71.88 160.434 72.3067 159.859 72.648C159.293 72.9787 158.632 73.144 157.874 73.144C157.096 73.144 156.392 72.952 155.762 72.568C155.133 72.184 154.637 71.6453 154.274 70.952C153.912 70.2587 153.73 69.4693 153.73 68.584ZM161.155 68.6C161.155 67.9387 161.021 67.3627 160.754 66.872C160.488 66.3813 160.125 66.008 159.667 65.752C159.218 65.4853 158.722 65.352 158.178 65.352C157.634 65.352 157.138 65.48 156.69 65.736C156.242 65.992 155.885 66.3653 155.618 66.856C155.352 67.3467 155.218 67.9227 155.218 68.584C155.218 69.256 155.352 69.8427 155.618 70.344C155.885 70.8347 156.242 71.2133 156.69 71.48C157.138 71.736 157.634 71.864 158.178 71.864C158.722 71.864 159.218 71.736 159.667 71.48C160.125 71.2133 160.488 70.8347 160.754 70.344C161.021 69.8427 161.155 69.2613 161.155 68.6ZM169.519 64.072C170.586 64.072 171.45 64.3973 172.111 65.048C172.772 65.688 173.103 66.616 173.103 67.832V73H171.663V68.04C171.663 67.1653 171.444 66.4987 171.007 66.04C170.57 65.5707 169.972 65.336 169.215 65.336C168.447 65.336 167.834 65.576 167.375 66.056C166.927 66.536 166.703 67.2347 166.703 68.152V73H165.247V64.232H166.703V65.48C166.991 65.032 167.38 64.6853 167.871 64.44C168.372 64.1947 168.922 64.072 169.519 64.072ZM175.097 68.6C175.097 67.6933 175.279 66.904 175.641 66.232C176.004 65.5493 176.505 65.0213 177.145 64.648C177.796 64.2747 178.537 64.088 179.369 64.088C180.447 64.088 181.332 64.3493 182.025 64.872C182.729 65.3947 183.193 66.12 183.417 67.048H181.849C181.7 66.5147 181.407 66.0933 180.969 65.784C180.543 65.4747 180.009 65.32 179.369 65.32C178.537 65.32 177.865 65.608 177.353 66.184C176.841 66.7493 176.585 67.5547 176.585 68.6C176.585 69.656 176.841 70.472 177.353 71.048C177.865 71.624 178.537 71.912 179.369 71.912C180.009 71.912 180.543 71.7627 180.969 71.464C181.396 71.1653 181.689 70.7387 181.849 70.184H183.417C183.183 71.08 182.713 71.8 182.009 72.344C181.305 72.8773 180.425 73.144 179.369 73.144C178.537 73.144 177.796 72.9573 177.145 72.584C176.505 72.2107 176.004 71.6827 175.641 71C175.279 70.3173 175.097 69.5173 175.097 68.6ZM193.52 68.28C193.52 68.5573 193.504 68.8507 193.472 69.16H186.464C186.517 70.024 186.811 70.7013 187.344 71.192C187.888 71.672 188.544 71.912 189.312 71.912C189.941 71.912 190.464 71.768 190.88 71.48C191.307 71.1813 191.605 70.7867 191.776 70.296H193.344C193.109 71.1387 192.64 71.8267 191.936 72.36C191.232 72.8827 190.357 73.144 189.312 73.144C188.48 73.144 187.733 72.9573 187.072 72.584C186.421 72.2107 185.909 71.6827 185.536 71C185.163 70.3067 184.976 69.5067 184.976 68.6C184.976 67.6933 185.157 66.8987 185.52 66.216C185.883 65.5333 186.389 65.0107 187.04 64.648C187.701 64.2747 188.459 64.088 189.312 64.088C190.144 64.088 190.88 64.2693 191.52 64.632C192.16 64.9947 192.651 65.496 192.992 66.136C193.344 66.7653 193.52 67.48 193.52 68.28ZM192.016 67.976C192.016 67.4213 191.893 66.9467 191.648 66.552C191.403 66.1467 191.067 65.8427 190.64 65.64C190.224 65.4267 189.76 65.32 189.248 65.32C188.512 65.32 187.883 65.5547 187.36 66.024C186.848 66.4933 186.555 67.144 186.48 67.976H192.016ZM195.058 68.584C195.058 67.688 195.239 66.904 195.602 66.232C195.965 65.5493 196.461 65.0213 197.09 64.648C197.73 64.2747 198.445 64.088 199.234 64.088C199.917 64.088 200.551 64.248 201.138 64.568C201.725 64.8773 202.173 65.288 202.482 65.8V61.16H203.954V73H202.482V71.352C202.194 71.8747 201.767 72.3067 201.202 72.648C200.637 72.9787 199.975 73.144 199.218 73.144C198.439 73.144 197.73 72.952 197.09 72.568C196.461 72.184 195.965 71.6453 195.602 70.952C195.239 70.2587 195.058 69.4693 195.058 68.584ZM202.482 68.6C202.482 67.9387 202.349 67.3627 202.082 66.872C201.815 66.3813 201.453 66.008 200.994 65.752C200.546 65.4853 200.05 65.352 199.506 65.352C198.962 65.352 198.466 65.48 198.018 65.736C197.57 65.992 197.213 66.3653 196.946 66.856C196.679 67.3467 196.546 67.9227 196.546 68.584C196.546 69.256 196.679 69.8427 196.946 70.344C197.213 70.8347 197.57 71.2133 198.018 71.48C198.466 71.736 198.962 71.864 199.506 71.864C200.05 71.864 200.546 71.736 200.994 71.48C201.453 71.2133 201.815 70.8347 202.082 70.344C202.349 69.8427 202.482 69.2613 202.482 68.6ZM210.456 68.584C210.456 67.688 210.637 66.904 211 66.232C211.363 65.5493 211.859 65.0213 212.488 64.648C213.128 64.2747 213.837 64.088 214.616 64.088C215.384 64.088 216.051 64.2533 216.616 64.584C217.181 64.9147 217.603 65.3307 217.88 65.832V64.232H219.352V73H217.88V71.368C217.592 71.88 217.16 72.3067 216.584 72.648C216.019 72.9787 215.357 73.144 214.6 73.144C213.821 73.144 213.117 72.952 212.488 72.568C211.859 72.184 211.363 71.6453 211 70.952C210.637 70.2587 210.456 69.4693 210.456 68.584ZM217.88 68.6C217.88 67.9387 217.747 67.3627 217.48 66.872C217.213 66.3813 216.851 66.008 216.392 65.752C215.944 65.4853 215.448 65.352 214.904 65.352C214.36 65.352 213.864 65.48 213.416 65.736C212.968 65.992 212.611 66.3653 212.344 66.856C212.077 67.3467 211.944 67.9227 211.944 68.584C211.944 69.256 212.077 69.8427 212.344 70.344C212.611 70.8347 212.968 71.2133 213.416 71.48C213.864 71.736 214.36 71.864 214.904 71.864C215.448 71.864 215.944 71.736 216.392 71.48C216.851 71.2133 217.213 70.8347 217.48 70.344C217.747 69.8427 217.88 69.2613 217.88 68.6ZM229.749 64.232V73H228.293V71.704C228.015 72.152 227.626 72.504 227.125 72.76C226.634 73.0053 226.09 73.128 225.493 73.128C224.81 73.128 224.197 72.9893 223.653 72.712C223.109 72.424 222.677 71.9973 222.357 71.432C222.047 70.8667 221.893 70.1787 221.893 69.368V64.232H223.333V69.176C223.333 70.04 223.551 70.7067 223.989 71.176C224.426 71.6347 225.023 71.864 225.781 71.864C226.559 71.864 227.173 71.624 227.621 71.144C228.069 70.664 228.293 69.9653 228.293 69.048V64.232H229.749ZM234.143 65.432V70.6C234.143 71.0267 234.234 71.3307 234.415 71.512C234.596 71.6827 234.911 71.768 235.359 71.768H236.431V73H235.119C234.308 73 233.7 72.8133 233.295 72.44C232.89 72.0667 232.687 71.4533 232.687 70.6V65.432H231.551V64.232H232.687V62.024H234.143V64.232H236.431V65.432H234.143ZM242.179 73.144C241.358 73.144 240.611 72.9573 239.939 72.584C239.278 72.2107 238.755 71.6827 238.371 71C237.998 70.3067 237.811 69.5067 237.811 68.6C237.811 67.704 238.003 66.9147 238.387 66.232C238.782 65.5387 239.315 65.0107 239.987 64.648C240.659 64.2747 241.411 64.088 242.243 64.088C243.075 64.088 243.827 64.2747 244.499 64.648C245.171 65.0107 245.699 65.5333 246.083 66.216C246.478 66.8987 246.675 67.6933 246.675 68.6C246.675 69.5067 246.472 70.3067 246.067 71C245.672 71.6827 245.134 72.2107 244.451 72.584C243.768 72.9573 243.011 73.144 242.179 73.144ZM242.179 71.864C242.702 71.864 243.192 71.7413 243.651 71.496C244.11 71.2507 244.478 70.8827 244.755 70.392C245.043 69.9013 245.187 69.304 245.187 68.6C245.187 67.896 245.048 67.2987 244.771 66.808C244.494 66.3173 244.131 65.9547 243.683 65.72C243.235 65.4747 242.75 65.352 242.227 65.352C241.694 65.352 241.203 65.4747 240.755 65.72C240.318 65.9547 239.966 66.3173 239.699 66.808C239.432 67.2987 239.299 67.896 239.299 68.6C239.299 69.3147 239.427 69.9173 239.683 70.408C239.95 70.8987 240.302 71.2667 240.739 71.512C241.176 71.7467 241.656 71.864 242.179 71.864ZM253.022 64.072C254.088 64.072 254.952 64.3973 255.614 65.048C256.275 65.688 256.606 66.616 256.606 67.832V73H255.166V68.04C255.166 67.1653 254.947 66.4987 254.51 66.04C254.072 65.5707 253.475 65.336 252.718 65.336C251.95 65.336 251.336 65.576 250.878 66.056C250.43 66.536 250.206 67.2347 250.206 68.152V73H248.75V64.232H250.206V65.48C250.494 65.032 250.883 64.6853 251.374 64.44C251.875 64.1947 252.424 64.072 253.022 64.072ZM262.968 73.144C262.147 73.144 261.4 72.9573 260.728 72.584C260.067 72.2107 259.544 71.6827 259.16 71C258.787 70.3067 258.6 69.5067 258.6 68.6C258.6 67.704 258.792 66.9147 259.176 66.232C259.571 65.5387 260.104 65.0107 260.776 64.648C261.448 64.2747 262.2 64.088 263.032 64.088C263.864 64.088 264.616 64.2747 265.288 64.648C265.96 65.0107 266.488 65.5333 266.872 66.216C267.267 66.8987 267.464 67.6933 267.464 68.6C267.464 69.5067 267.261 70.3067 266.856 71C266.461 71.6827 265.923 72.2107 265.24 72.584C264.557 72.9573 263.8 73.144 262.968 73.144ZM262.968 71.864C263.491 71.864 263.981 71.7413 264.44 71.496C264.899 71.2507 265.267 70.8827 265.544 70.392C265.832 69.9013 265.976 69.304 265.976 68.6C265.976 67.896 265.837 67.2987 265.56 66.808C265.283 66.3173 264.92 65.9547 264.472 65.72C264.024 65.4747 263.539 65.352 263.016 65.352C262.483 65.352 261.992 65.4747 261.544 65.72C261.107 65.9547 260.755 66.3173 260.488 66.808C260.221 67.2987 260.088 67.896 260.088 68.6C260.088 69.3147 260.216 69.9173 260.472 70.408C260.739 70.8987 261.091 71.2667 261.528 71.512C261.965 71.7467 262.445 71.864 262.968 71.864ZM280.082 64.072C280.765 64.072 281.373 64.216 281.906 64.504C282.44 64.7813 282.861 65.2027 283.17 65.768C283.48 66.3333 283.634 67.0213 283.634 67.832V73H282.194V68.04C282.194 67.1653 281.976 66.4987 281.538 66.04C281.112 65.5707 280.53 65.336 279.794 65.336C279.037 65.336 278.434 65.5813 277.986 66.072C277.538 66.552 277.314 67.2507 277.314 68.168V73H275.874V68.04C275.874 67.1653 275.656 66.4987 275.218 66.04C274.792 65.5707 274.21 65.336 273.474 65.336C272.717 65.336 272.114 65.5813 271.666 66.072C271.218 66.552 270.994 67.2507 270.994 68.168V73H269.538V64.232H270.994V65.496C271.282 65.0373 271.666 64.6853 272.146 64.44C272.637 64.1947 273.176 64.072 273.762 64.072C274.498 64.072 275.149 64.2373 275.714 64.568C276.28 64.8987 276.701 65.384 276.978 66.024C277.224 65.4053 277.629 64.9253 278.194 64.584C278.76 64.2427 279.389 64.072 280.082 64.072ZM290.007 73.144C289.185 73.144 288.439 72.9573 287.767 72.584C287.105 72.2107 286.583 71.6827 286.199 71C285.825 70.3067 285.639 69.5067 285.639 68.6C285.639 67.704 285.831 66.9147 286.215 66.232C286.609 65.5387 287.143 65.0107 287.815 64.648C288.487 64.2747 289.239 64.088 290.071 64.088C290.903 64.088 291.655 64.2747 292.327 64.648C292.999 65.0107 293.527 65.5333 293.911 66.216C294.305 66.8987 294.503 67.6933 294.503 68.6C294.503 69.5067 294.3 70.3067 293.895 71C293.5 71.6827 292.961 72.2107 292.279 72.584C291.596 72.9573 290.839 73.144 290.007 73.144ZM290.007 71.864C290.529 71.864 291.02 71.7413 291.479 71.496C291.937 71.2507 292.305 70.8827 292.583 70.392C292.871 69.9013 293.015 69.304 293.015 68.6C293.015 67.896 292.876 67.2987 292.599 66.808C292.321 66.3173 291.959 65.9547 291.511 65.72C291.063 65.4747 290.577 65.352 290.055 65.352C289.521 65.352 289.031 65.4747 288.583 65.72C288.145 65.9547 287.793 66.3173 287.527 66.808C287.26 67.2987 287.127 67.896 287.127 68.6C287.127 69.3147 287.255 69.9173 287.511 70.408C287.777 70.8987 288.129 71.2667 288.567 71.512C289.004 71.7467 289.484 71.864 290.007 71.864ZM304.353 64.232V73H302.897V71.704C302.62 72.152 302.23 72.504 301.729 72.76C301.238 73.0053 300.694 73.128 300.097 73.128C299.414 73.128 298.801 72.9893 298.257 72.712C297.713 72.424 297.281 71.9973 296.961 71.432C296.652 70.8667 296.497 70.1787 296.497 69.368V64.232H297.937V69.176C297.937 70.04 298.156 70.7067 298.593 71.176C299.03 71.6347 299.628 71.864 300.385 71.864C301.164 71.864 301.777 71.624 302.225 71.144C302.673 70.664 302.897 69.9653 302.897 69.048V64.232H304.353ZM310.075 73.144C309.403 73.144 308.801 73.032 308.267 72.808C307.734 72.5733 307.313 72.2533 307.003 71.848C306.694 71.432 306.523 70.9573 306.491 70.424H307.995C308.038 70.8613 308.241 71.2187 308.603 71.496C308.977 71.7733 309.462 71.912 310.059 71.912C310.614 71.912 311.051 71.7893 311.371 71.544C311.691 71.2987 311.851 70.9893 311.851 70.616C311.851 70.232 311.681 69.9493 311.339 69.768C310.998 69.576 310.47 69.3893 309.755 69.208C309.105 69.0373 308.571 68.8667 308.155 68.696C307.75 68.5147 307.398 68.2533 307.099 67.912C306.811 67.56 306.667 67.1013 306.667 66.536C306.667 66.088 306.801 65.6773 307.067 65.304C307.334 64.9307 307.713 64.6373 308.203 64.424C308.694 64.2 309.254 64.088 309.883 64.088C310.854 64.088 311.638 64.3333 312.235 64.824C312.833 65.3147 313.153 65.9867 313.195 66.84H311.739C311.707 66.3813 311.521 66.0133 311.179 65.736C310.849 65.4587 310.401 65.32 309.835 65.32C309.313 65.32 308.897 65.432 308.587 65.656C308.278 65.88 308.123 66.1733 308.123 66.536C308.123 66.824 308.214 67.064 308.395 67.256C308.587 67.4373 308.822 67.5867 309.099 67.704C309.387 67.8107 309.782 67.9333 310.283 68.072C310.913 68.2427 311.425 68.4133 311.819 68.584C312.214 68.744 312.55 68.9893 312.827 69.32C313.115 69.6507 313.265 70.0827 313.275 70.616C313.275 71.096 313.142 71.528 312.875 71.912C312.609 72.296 312.23 72.6 311.739 72.824C311.259 73.0373 310.705 73.144 310.075 73.144ZM321.692 65.432V70.6C321.692 71.0267 321.783 71.3307 321.964 71.512C322.146 71.6827 322.46 71.768 322.908 71.768H323.98V73H322.668C321.858 73 321.25 72.8133 320.844 72.44C320.439 72.0667 320.236 71.4533 320.236 70.6V65.432H319.1V64.232H320.236V62.024H321.692V64.232H323.98V65.432H321.692ZM333.905 68.28C333.905 68.5573 333.889 68.8507 333.857 69.16H326.849C326.902 70.024 327.195 70.7013 327.729 71.192C328.273 71.672 328.929 71.912 329.697 71.912C330.326 71.912 330.849 71.768 331.265 71.48C331.691 71.1813 331.99 70.7867 332.161 70.296H333.729C333.494 71.1387 333.025 71.8267 332.321 72.36C331.617 72.8827 330.742 73.144 329.697 73.144C328.865 73.144 328.118 72.9573 327.457 72.584C326.806 72.2107 326.294 71.6827 325.921 71C325.547 70.3067 325.361 69.5067 325.361 68.6C325.361 67.6933 325.542 66.8987 325.905 66.216C326.267 65.5333 326.774 65.0107 327.425 64.648C328.086 64.2747 328.843 64.088 329.697 64.088C330.529 64.088 331.265 64.2693 331.905 64.632C332.545 64.9947 333.035 65.496 333.377 66.136C333.729 66.7653 333.905 67.48 333.905 68.28ZM332.401 67.976C332.401 67.4213 332.278 66.9467 332.033 66.552C331.787 66.1467 331.451 65.8427 331.025 65.64C330.609 65.4267 330.145 65.32 329.633 65.32C328.897 65.32 328.267 65.5547 327.745 66.024C327.233 66.4933 326.939 67.144 326.865 67.976H332.401ZM335.442 68.6C335.442 67.6933 335.624 66.904 335.986 66.232C336.349 65.5493 336.85 65.0213 337.49 64.648C338.141 64.2747 338.882 64.088 339.714 64.088C340.792 64.088 341.677 64.3493 342.37 64.872C343.074 65.3947 343.538 66.12 343.762 67.048H342.194C342.045 66.5147 341.752 66.0933 341.314 65.784C340.888 65.4747 340.354 65.32 339.714 65.32C338.882 65.32 338.21 65.608 337.698 66.184C337.186 66.7493 336.93 67.5547 336.93 68.6C336.93 69.656 337.186 70.472 337.698 71.048C338.21 71.624 338.882 71.912 339.714 71.912C340.354 71.912 340.888 71.7627 341.314 71.464C341.741 71.1653 342.034 70.7387 342.194 70.184H343.762C343.528 71.08 343.058 71.8 342.354 72.344C341.65 72.8773 340.77 73.144 339.714 73.144C338.882 73.144 338.141 72.9573 337.49 72.584C336.85 72.2107 336.349 71.6827 335.986 71C335.624 70.3173 335.442 69.5173 335.442 68.6ZM350.217 64.072C350.878 64.072 351.476 64.216 352.009 64.504C352.542 64.7813 352.958 65.2027 353.257 65.768C353.566 66.3333 353.721 67.0213 353.721 67.832V73H352.281V68.04C352.281 67.1653 352.062 66.4987 351.625 66.04C351.188 65.5707 350.59 65.336 349.833 65.336C349.065 65.336 348.452 65.576 347.993 66.056C347.545 66.536 347.321 67.2347 347.321 68.152V73H345.865V61.16H347.321V65.48C347.609 65.032 348.004 64.6853 348.505 64.44C349.017 64.1947 349.588 64.072 350.217 64.072ZM360.531 64.072C361.598 64.072 362.462 64.3973 363.123 65.048C363.785 65.688 364.115 66.616 364.115 67.832V73H362.675V68.04C362.675 67.1653 362.457 66.4987 362.019 66.04C361.582 65.5707 360.985 65.336 360.227 65.336C359.459 65.336 358.846 65.576 358.387 66.056C357.939 66.536 357.715 67.2347 357.715 68.152V73H356.259V64.232H357.715V65.48C358.003 65.032 358.393 64.6853 358.883 64.44C359.385 64.1947 359.934 64.072 360.531 64.072ZM370.478 73.144C369.657 73.144 368.91 72.9573 368.238 72.584C367.577 72.2107 367.054 71.6827 366.67 71C366.297 70.3067 366.11 69.5067 366.11 68.6C366.11 67.704 366.302 66.9147 366.686 66.232C367.081 65.5387 367.614 65.0107 368.286 64.648C368.958 64.2747 369.71 64.088 370.542 64.088C371.374 64.088 372.126 64.2747 372.798 64.648C373.47 65.0107 373.998 65.5333 374.382 66.216C374.777 66.8987 374.974 67.6933 374.974 68.6C374.974 69.5067 374.771 70.3067 374.366 71C373.971 71.6827 373.433 72.2107 372.75 72.584C372.067 72.9573 371.31 73.144 370.478 73.144ZM370.478 71.864C371.001 71.864 371.491 71.7413 371.95 71.496C372.409 71.2507 372.777 70.8827 373.054 70.392C373.342 69.9013 373.486 69.304 373.486 68.6C373.486 67.896 373.347 67.2987 373.07 66.808C372.793 66.3173 372.43 65.9547 371.982 65.72C371.534 65.4747 371.049 65.352 370.526 65.352C369.993 65.352 369.502 65.4747 369.054 65.72C368.617 65.9547 368.265 66.3173 367.998 66.808C367.731 67.2987 367.598 67.896 367.598 68.6C367.598 69.3147 367.726 69.9173 367.982 70.408C368.249 70.8987 368.601 71.2667 369.038 71.512C369.475 71.7467 369.955 71.864 370.478 71.864ZM378.504 61.16V73H377.048V61.16H378.504ZM384.97 73.144C384.148 73.144 383.402 72.9573 382.73 72.584C382.068 72.2107 381.546 71.6827 381.162 71C380.788 70.3067 380.602 69.5067 380.602 68.6C380.602 67.704 380.794 66.9147 381.178 66.232C381.572 65.5387 382.106 65.0107 382.778 64.648C383.45 64.2747 384.202 64.088 385.034 64.088C385.866 64.088 386.618 64.2747 387.29 64.648C387.962 65.0107 388.49 65.5333 388.874 66.216C389.268 66.8987 389.466 67.6933 389.466 68.6C389.466 69.5067 389.263 70.3067 388.858 71C388.463 71.6827 387.924 72.2107 387.242 72.584C386.559 72.9573 385.802 73.144 384.97 73.144ZM384.97 71.864C385.492 71.864 385.983 71.7413 386.442 71.496C386.9 71.2507 387.268 70.8827 387.546 70.392C387.834 69.9013 387.978 69.304 387.978 68.6C387.978 67.896 387.839 67.2987 387.562 66.808C387.284 66.3173 386.922 65.9547 386.474 65.72C386.026 65.4747 385.54 65.352 385.018 65.352C384.484 65.352 383.994 65.4747 383.546 65.72C383.108 65.9547 382.756 66.3173 382.49 66.808C382.223 67.2987 382.09 67.896 382.09 68.6C382.09 69.3147 382.218 69.9173 382.474 70.408C382.74 70.8987 383.092 71.2667 383.53 71.512C383.967 71.7467 384.447 71.864 384.97 71.864ZM395.156 64.088C395.913 64.088 396.575 64.2533 397.14 64.584C397.716 64.9147 398.143 65.3307 398.42 65.832V64.232H399.892V73.192C399.892 73.992 399.721 74.7013 399.38 75.32C399.039 75.9493 398.548 76.44 397.908 76.792C397.279 77.144 396.543 77.32 395.7 77.32C394.548 77.32 393.588 77.048 392.82 76.504C392.052 75.96 391.599 75.2187 391.46 74.28H392.9C393.06 74.8133 393.391 75.24 393.892 75.56C394.393 75.8907 394.996 76.056 395.7 76.056C396.5 76.056 397.151 75.8053 397.652 75.304C398.164 74.8027 398.42 74.0987 398.42 73.192V71.352C398.132 71.864 397.705 72.2907 397.14 72.632C396.575 72.9733 395.913 73.144 395.156 73.144C394.377 73.144 393.668 72.952 393.028 72.568C392.399 72.184 391.903 71.6453 391.54 70.952C391.177 70.2587 390.996 69.4693 390.996 68.584C390.996 67.688 391.177 66.904 391.54 66.232C391.903 65.5493 392.399 65.0213 393.028 64.648C393.668 64.2747 394.377 64.088 395.156 64.088ZM398.42 68.6C398.42 67.9387 398.287 67.3627 398.02 66.872C397.753 66.3813 397.391 66.008 396.932 65.752C396.484 65.4853 395.988 65.352 395.444 65.352C394.9 65.352 394.404 65.48 393.956 65.736C393.508 65.992 393.151 66.3653 392.884 66.856C392.617 67.3467 392.484 67.9227 392.484 68.584C392.484 69.256 392.617 69.8427 392.884 70.344C393.151 70.8347 393.508 71.2133 393.956 71.48C394.404 71.736 394.9 71.864 395.444 71.864C395.988 71.864 396.484 71.736 396.932 71.48C397.391 71.2133 397.753 70.8347 398.02 70.344C398.287 69.8427 398.42 69.2613 398.42 68.6ZM403.265 62.808C402.987 62.808 402.753 62.712 402.561 62.52C402.369 62.328 402.273 62.0933 402.273 61.816C402.273 61.5387 402.369 61.304 402.561 61.112C402.753 60.92 402.987 60.824 403.265 60.824C403.531 60.824 403.755 60.92 403.937 61.112C404.129 61.304 404.225 61.5387 404.225 61.816C404.225 62.0933 404.129 62.328 403.937 62.52C403.755 62.712 403.531 62.808 403.265 62.808ZM403.969 64.232V73H402.513V64.232H403.969ZM414.61 68.28C414.61 68.5573 414.594 68.8507 414.562 69.16H407.554C407.607 70.024 407.901 70.7013 408.434 71.192C408.978 71.672 409.634 71.912 410.402 71.912C411.031 71.912 411.554 71.768 411.97 71.48C412.397 71.1813 412.695 70.7867 412.866 70.296H414.434C414.199 71.1387 413.73 71.8267 413.026 72.36C412.322 72.8827 411.447 73.144 410.402 73.144C409.57 73.144 408.823 72.9573 408.162 72.584C407.511 72.2107 406.999 71.6827 406.626 71C406.253 70.3067 406.066 69.5067 406.066 68.6C406.066 67.6933 406.247 66.8987 406.61 66.216C406.973 65.5333 407.479 65.0107 408.13 64.648C408.791 64.2747 409.549 64.088 410.402 64.088C411.234 64.088 411.97 64.2693 412.61 64.632C413.25 64.9947 413.741 65.496 414.082 66.136C414.434 66.7653 414.61 67.48 414.61 68.28ZM413.106 67.976C413.106 67.4213 412.983 66.9467 412.738 66.552C412.493 66.1467 412.157 65.8427 411.73 65.64C411.314 65.4267 410.85 65.32 410.338 65.32C409.602 65.32 408.973 65.5547 408.45 66.024C407.938 66.4933 407.645 67.144 407.57 67.976H413.106ZM419.796 73.144C419.124 73.144 418.521 73.032 417.988 72.808C417.455 72.5733 417.033 72.2533 416.724 71.848C416.415 71.432 416.244 70.9573 416.212 70.424H417.716C417.759 70.8613 417.961 71.2187 418.324 71.496C418.697 71.7733 419.183 71.912 419.78 71.912C420.335 71.912 420.772 71.7893 421.092 71.544C421.412 71.2987 421.572 70.9893 421.572 70.616C421.572 70.232 421.401 69.9493 421.06 69.768C420.719 69.576 420.191 69.3893 419.476 69.208C418.825 69.0373 418.292 68.8667 417.876 68.696C417.471 68.5147 417.119 68.2533 416.82 67.912C416.532 67.56 416.388 67.1013 416.388 66.536C416.388 66.088 416.521 65.6773 416.788 65.304C417.055 64.9307 417.433 64.6373 417.924 64.424C418.415 64.2 418.975 64.088 419.604 64.088C420.575 64.088 421.359 64.3333 421.956 64.824C422.553 65.3147 422.873 65.9867 422.916 66.84H421.46C421.428 66.3813 421.241 66.0133 420.9 65.736C420.569 65.4587 420.121 65.32 419.556 65.32C419.033 65.32 418.617 65.432 418.308 65.656C417.999 65.88 417.844 66.1733 417.844 66.536C417.844 66.824 417.935 67.064 418.116 67.256C418.308 67.4373 418.543 67.5867 418.82 67.704C419.108 67.8107 419.503 67.9333 420.004 68.072C420.633 68.2427 421.145 68.4133 421.54 68.584C421.935 68.744 422.271 68.9893 422.548 69.32C422.836 69.6507 422.985 70.0827 422.996 70.616C422.996 71.096 422.863 71.528 422.596 71.912C422.329 72.296 421.951 72.6 421.46 72.824C420.98 73.0373 420.425 73.144 419.796 73.144ZM431.413 65.432V70.6C431.413 71.0267 431.504 71.3307 431.685 71.512C431.866 71.6827 432.181 71.768 432.629 71.768H433.701V73H432.389C431.578 73 430.97 72.8133 430.565 72.44C430.16 72.0667 429.957 71.4533 429.957 70.6V65.432H428.821V64.232H429.957V62.024H431.413V64.232H433.701V65.432H431.413ZM439.449 73.144C438.628 73.144 437.881 72.9573 437.209 72.584C436.548 72.2107 436.025 71.6827 435.641 71C435.268 70.3067 435.081 69.5067 435.081 68.6C435.081 67.704 435.273 66.9147 435.657 66.232C436.052 65.5387 436.585 65.0107 437.257 64.648C437.929 64.2747 438.681 64.088 439.513 64.088C440.345 64.088 441.097 64.2747 441.769 64.648C442.441 65.0107 442.969 65.5333 443.353 66.216C443.748 66.8987 443.945 67.6933 443.945 68.6C443.945 69.5067 443.742 70.3067 443.337 71C442.942 71.6827 442.404 72.2107 441.721 72.584C441.038 72.9573 440.281 73.144 439.449 73.144ZM439.449 71.864C439.972 71.864 440.462 71.7413 440.921 71.496C441.38 71.2507 441.748 70.8827 442.025 70.392C442.313 69.9013 442.457 69.304 442.457 68.6C442.457 67.896 442.318 67.2987 442.041 66.808C441.764 66.3173 441.401 65.9547 440.953 65.72C440.505 65.4747 440.02 65.352 439.497 65.352C438.964 65.352 438.473 65.4747 438.025 65.72C437.588 65.9547 437.236 66.3173 436.969 66.808C436.702 67.2987 436.569 67.896 436.569 68.6C436.569 69.3147 436.697 69.9173 436.953 70.408C437.22 70.8987 437.572 71.2667 438.009 71.512C438.446 71.7467 438.926 71.864 439.449 71.864ZM460.989 64.072C461.672 64.072 462.28 64.216 462.813 64.504C463.346 64.7813 463.768 65.2027 464.077 65.768C464.386 66.3333 464.541 67.0213 464.541 67.832V73H463.101V68.04C463.101 67.1653 462.882 66.4987 462.445 66.04C462.018 65.5707 461.437 65.336 460.701 65.336C459.944 65.336 459.341 65.5813 458.893 66.072C458.445 66.552 458.221 67.2507 458.221 68.168V73H456.781V68.04C456.781 67.1653 456.562 66.4987 456.125 66.04C455.698 65.5707 455.117 65.336 454.381 65.336C453.624 65.336 453.021 65.5813 452.573 66.072C452.125 66.552 451.901 67.2507 451.901 68.168V73H450.445V64.232H451.901V65.496C452.189 65.0373 452.573 64.6853 453.053 64.44C453.544 64.1947 454.082 64.072 454.669 64.072C455.405 64.072 456.056 64.2373 456.621 64.568C457.186 64.8987 457.608 65.384 457.885 66.024C458.13 65.4053 458.536 64.9253 459.101 64.584C459.666 64.2427 460.296 64.072 460.989 64.072ZM466.546 68.584C466.546 67.688 466.727 66.904 467.09 66.232C467.452 65.5493 467.948 65.0213 468.578 64.648C469.218 64.2747 469.927 64.088 470.706 64.088C471.474 64.088 472.14 64.2533 472.706 64.584C473.271 64.9147 473.692 65.3307 473.97 65.832V64.232H475.442V73H473.97V71.368C473.682 71.88 473.25 72.3067 472.674 72.648C472.108 72.9787 471.447 73.144 470.69 73.144C469.911 73.144 469.207 72.952 468.578 72.568C467.948 72.184 467.452 71.6453 467.09 70.952C466.727 70.2587 466.546 69.4693 466.546 68.584ZM473.97 68.6C473.97 67.9387 473.836 67.3627 473.57 66.872C473.303 66.3813 472.94 66.008 472.482 65.752C472.034 65.4853 471.538 65.352 470.994 65.352C470.45 65.352 469.954 65.48 469.506 65.736C469.058 65.992 468.7 66.3653 468.434 66.856C468.167 67.3467 468.034 67.9227 468.034 68.584C468.034 69.256 468.167 69.8427 468.434 70.344C468.7 70.8347 469.058 71.2133 469.506 71.48C469.954 71.736 470.45 71.864 470.994 71.864C471.538 71.864 472.034 71.736 472.482 71.48C472.94 71.2133 473.303 70.8347 473.57 70.344C473.836 69.8427 473.97 69.2613 473.97 68.6ZM482.958 73L479.518 69.128V73H478.062V61.16H479.518V68.12L482.894 64.232H484.926L480.798 68.6L484.942 73H482.958ZM494.456 68.28C494.456 68.5573 494.44 68.8507 494.408 69.16H487.4C487.454 70.024 487.747 70.7013 488.28 71.192C488.824 71.672 489.48 71.912 490.248 71.912C490.878 71.912 491.4 71.768 491.816 71.48C492.243 71.1813 492.542 70.7867 492.712 70.296H494.28C494.046 71.1387 493.576 71.8267 492.872 72.36C492.168 72.8827 491.294 73.144 490.248 73.144C489.416 73.144 488.67 72.9573 488.008 72.584C487.358 72.2107 486.846 71.6827 486.472 71C486.099 70.3067 485.912 69.5067 485.912 68.6C485.912 67.6933 486.094 66.8987 486.456 66.216C486.819 65.5333 487.326 65.0107 487.976 64.648C488.638 64.2747 489.395 64.088 490.248 64.088C491.08 64.088 491.816 64.2693 492.456 64.632C493.096 64.9947 493.587 65.496 493.928 66.136C494.28 66.7653 494.456 67.48 494.456 68.28ZM492.952 67.976C492.952 67.4213 492.83 66.9467 492.584 66.552C492.339 66.1467 492.003 65.8427 491.576 65.64C491.16 65.4267 490.696 65.32 490.184 65.32C489.448 65.32 488.819 65.5547 488.296 66.024C487.784 66.4933 487.491 67.144 487.416 67.976H492.952ZM124.688 89.16V101H123.232V89.16H124.688ZM128.081 90.808C127.804 90.808 127.569 90.712 127.377 90.52C127.185 90.328 127.089 90.0933 127.089 89.816C127.089 89.5387 127.185 89.304 127.377 89.112C127.569 88.92 127.804 88.824 128.081 88.824C128.348 88.824 128.572 88.92 128.753 89.112C128.946 89.304 129.042 89.5387 129.042 89.816C129.042 90.0933 128.946 90.328 128.753 90.52C128.572 90.712 128.348 90.808 128.081 90.808ZM128.786 92.232V101H127.329V92.232H128.786ZM134.995 93.432H133.155V101H131.699V93.432H130.563V92.232H131.699V91.608C131.699 90.6267 131.95 89.912 132.451 89.464C132.963 89.0053 133.779 88.776 134.899 88.776V89.992C134.259 89.992 133.806 90.12 133.539 90.376C133.283 90.6213 133.155 91.032 133.155 91.608V92.232H134.995V93.432ZM144.853 96.28C144.853 96.5573 144.837 96.8507 144.805 97.16H137.797C137.85 98.024 138.143 98.7013 138.677 99.192C139.221 99.672 139.877 99.912 140.645 99.912C141.274 99.912 141.797 99.768 142.213 99.48C142.639 99.1813 142.938 98.7867 143.109 98.296H144.677C144.442 99.1387 143.973 99.8267 143.269 100.36C142.565 100.883 141.69 101.144 140.645 101.144C139.813 101.144 139.066 100.957 138.405 100.584C137.754 100.211 137.242 99.6827 136.869 99C136.495 98.3067 136.309 97.5067 136.309 96.6C136.309 95.6933 136.49 94.8987 136.853 94.216C137.215 93.5333 137.722 93.0107 138.373 92.648C139.034 92.2747 139.791 92.088 140.645 92.088C141.477 92.088 142.213 92.2693 142.853 92.632C143.493 92.9947 143.983 93.496 144.325 94.136C144.677 94.7653 144.853 95.48 144.853 96.28ZM143.349 95.976C143.349 95.4213 143.226 94.9467 142.981 94.552C142.735 94.1467 142.399 93.8427 141.973 93.64C141.557 93.4267 141.093 93.32 140.581 93.32C139.845 93.32 139.215 93.5547 138.693 94.024C138.181 94.4933 137.887 95.144 137.813 95.976H143.349ZM154.464 101.144C153.792 101.144 153.189 101.032 152.656 100.808C152.123 100.573 151.701 100.253 151.392 99.848C151.083 99.432 150.912 98.9573 150.88 98.424H152.384C152.427 98.8613 152.629 99.2187 152.992 99.496C153.365 99.7733 153.851 99.912 154.448 99.912C155.003 99.912 155.44 99.7893 155.76 99.544C156.08 99.2987 156.24 98.9893 156.24 98.616C156.24 98.232 156.069 97.9493 155.728 97.768C155.387 97.576 154.859 97.3893 154.144 97.208C153.493 97.0373 152.96 96.8667 152.544 96.696C152.139 96.5147 151.787 96.2533 151.488 95.912C151.2 95.56 151.056 95.1013 151.056 94.536C151.056 94.088 151.189 93.6773 151.456 93.304C151.723 92.9307 152.101 92.6373 152.592 92.424C153.083 92.2 153.643 92.088 154.272 92.088C155.243 92.088 156.027 92.3333 156.624 92.824C157.221 93.3147 157.541 93.9867 157.584 94.84H156.128C156.096 94.3813 155.909 94.0133 155.568 93.736C155.237 93.4587 154.789 93.32 154.224 93.32C153.701 93.32 153.285 93.432 152.976 93.656C152.667 93.88 152.512 94.1733 152.512 94.536C152.512 94.824 152.603 95.064 152.784 95.256C152.976 95.4373 153.211 95.5867 153.488 95.704C153.776 95.8107 154.171 95.9333 154.672 96.072C155.301 96.2427 155.813 96.4133 156.208 96.584C156.603 96.744 156.939 96.9893 157.216 97.32C157.504 97.6507 157.653 98.0827 157.664 98.616C157.664 99.096 157.531 99.528 157.264 99.912C156.997 100.296 156.619 100.6 156.128 100.824C155.648 101.037 155.093 101.144 154.464 101.144ZM160.631 90.808C160.354 90.808 160.119 90.712 159.927 90.52C159.735 90.328 159.639 90.0933 159.639 89.816C159.639 89.5387 159.735 89.304 159.927 89.112C160.119 88.92 160.354 88.824 160.631 88.824C160.898 88.824 161.122 88.92 161.303 89.112C161.495 89.304 161.591 89.5387 161.591 89.816C161.591 90.0933 161.495 90.328 161.303 90.52C161.122 90.712 160.898 90.808 160.631 90.808ZM161.335 92.232V101H159.879V92.232H161.335ZM174.521 92.072C175.204 92.072 175.812 92.216 176.345 92.504C176.878 92.7813 177.3 93.2027 177.609 93.768C177.918 94.3333 178.073 95.0213 178.073 95.832V101H176.633V96.04C176.633 95.1653 176.414 94.4987 175.977 94.04C175.55 93.5707 174.969 93.336 174.233 93.336C173.476 93.336 172.873 93.5813 172.425 94.072C171.977 94.552 171.753 95.2507 171.753 96.168V101H170.313V96.04C170.313 95.1653 170.094 94.4987 169.657 94.04C169.23 93.5707 168.649 93.336 167.913 93.336C167.156 93.336 166.553 93.5813 166.105 94.072C165.657 94.552 165.433 95.2507 165.433 96.168V101H163.977V92.232H165.433V93.496C165.721 93.0373 166.105 92.6853 166.585 92.44C167.076 92.1947 167.614 92.072 168.201 92.072C168.937 92.072 169.588 92.2373 170.153 92.568C170.718 92.8987 171.14 93.384 171.417 94.024C171.662 93.4053 172.068 92.9253 172.633 92.584C173.198 92.2427 173.828 92.072 174.521 92.072ZM182.077 93.848C182.365 93.3467 182.792 92.9307 183.357 92.6C183.933 92.2587 184.6 92.088 185.357 92.088C186.136 92.088 186.84 92.2747 187.469 92.648C188.109 93.0213 188.611 93.5493 188.973 94.232C189.336 94.904 189.517 95.688 189.517 96.584C189.517 97.4693 189.336 98.2587 188.973 98.952C188.611 99.6453 188.109 100.184 187.469 100.568C186.84 100.952 186.136 101.144 185.357 101.144C184.611 101.144 183.949 100.979 183.373 100.648C182.808 100.307 182.376 99.8853 182.077 99.384V105.16H180.621V92.232H182.077V93.848ZM188.029 96.584C188.029 95.9227 187.896 95.3467 187.629 94.856C187.363 94.3653 187 93.992 186.541 93.736C186.093 93.48 185.597 93.352 185.053 93.352C184.52 93.352 184.024 93.4853 183.565 93.752C183.117 94.008 182.755 94.3867 182.477 94.888C182.211 95.3787 182.077 95.9493 182.077 96.6C182.077 97.2613 182.211 97.8427 182.477 98.344C182.755 98.8347 183.117 99.2133 183.565 99.48C184.024 99.736 184.52 99.864 185.053 99.864C185.597 99.864 186.093 99.736 186.541 99.48C187 99.2133 187.363 98.8347 187.629 98.344C187.896 97.8427 188.029 97.256 188.029 96.584ZM193.05 89.16V101H191.594V89.16H193.05ZM203.691 96.28C203.691 96.5573 203.675 96.8507 203.643 97.16H196.635C196.689 98.024 196.982 98.7013 197.515 99.192C198.059 99.672 198.715 99.912 199.483 99.912C200.113 99.912 200.635 99.768 201.051 99.48C201.478 99.1813 201.777 98.7867 201.947 98.296H203.515C203.281 99.1387 202.811 99.8267 202.107 100.36C201.403 100.883 200.529 101.144 199.483 101.144C198.651 101.144 197.905 100.957 197.243 100.584C196.593 100.211 196.081 99.6827 195.707 99C195.334 98.3067 195.147 97.5067 195.147 96.6C195.147 95.6933 195.329 94.8987 195.691 94.216C196.054 93.5333 196.561 93.0107 197.211 92.648C197.873 92.2747 198.63 92.088 199.483 92.088C200.315 92.088 201.051 92.2693 201.691 92.632C202.331 92.9947 202.822 93.496 203.163 94.136C203.515 94.7653 203.691 95.48 203.691 96.28ZM202.187 95.976C202.187 95.4213 202.065 94.9467 201.819 94.552C201.574 94.1467 201.238 93.8427 200.811 93.64C200.395 93.4267 199.931 93.32 199.419 93.32C198.683 93.32 198.054 93.5547 197.531 94.024C197.019 94.4933 196.726 95.144 196.651 95.976H202.187Z" fill="#797979"/>
<defs>
<clipPath id="clip0_2_1618">
<rect width="33" height="33" fill="white" transform="translate(29 36)"/>
</clipPath>
</defs>
</svg>
