<svg width="413" height="108" viewBox="0 0 413 108" fill="none" xmlns="http://www.w3.org/2000/svg">
<rect y="7" width="91" height="90" rx="20" fill="#E2F3FF"/>
<path d="M137.949 31.175C136.782 31.175 135.732 30.975 134.799 30.575C133.865 30.1583 133.132 29.575 132.599 28.825C132.065 28.075 131.799 27.2 131.799 26.2H134.849C134.915 26.95 135.207 27.5667 135.724 28.05C136.257 28.5333 136.999 28.775 137.949 28.775C138.932 28.775 139.699 28.5417 140.249 28.075C140.799 27.5917 141.074 26.975 141.074 26.225C141.074 25.6417 140.899 25.1667 140.549 24.8C140.215 24.4333 139.79 24.15 139.274 23.95C138.774 23.75 138.074 23.5333 137.174 23.3C136.04 23 135.115 22.7 134.399 22.4C133.699 22.0833 133.099 21.6 132.599 20.95C132.099 20.3 131.849 19.4333 131.849 18.35C131.849 17.35 132.099 16.475 132.599 15.725C133.099 14.975 133.799 14.4 134.699 14C135.599 13.6 136.64 13.4 137.824 13.4C139.507 13.4 140.882 13.825 141.949 14.675C143.032 15.5083 143.632 16.6583 143.749 18.125H140.599C140.549 17.4917 140.249 16.95 139.699 16.5C139.149 16.05 138.424 15.825 137.524 15.825C136.707 15.825 136.04 16.0333 135.524 16.45C135.007 16.8667 134.749 17.4667 134.749 18.25C134.749 18.7833 134.907 19.225 135.224 19.575C135.557 19.9083 135.974 20.175 136.474 20.375C136.974 20.575 137.657 20.7917 138.524 21.025C139.674 21.3417 140.607 21.6583 141.324 21.975C142.057 22.2917 142.674 22.7833 143.174 23.45C143.69 24.1 143.949 24.975 143.949 26.075C143.949 26.9583 143.707 27.7917 143.224 28.575C142.757 29.3583 142.065 29.9917 141.149 30.475C140.249 30.9417 139.182 31.175 137.949 31.175ZM150.412 15.925V21.025H156.412V23.35H150.412V28.675H157.162V31H147.562V13.6H157.162V15.925H150.412ZM168.847 31.175C167.23 31.175 165.739 30.8 164.372 30.05C163.022 29.2833 161.947 28.225 161.147 26.875C160.364 25.5083 159.972 23.975 159.972 22.275C159.972 20.575 160.364 19.05 161.147 17.7C161.947 16.35 163.022 15.3 164.372 14.55C165.739 13.7833 167.23 13.4 168.847 13.4C170.48 13.4 171.972 13.7833 173.322 14.55C174.689 15.3 175.764 16.35 176.547 17.7C177.33 19.05 177.722 20.575 177.722 22.275C177.722 23.975 177.33 25.5083 176.547 26.875C175.764 28.225 174.689 29.2833 173.322 30.05C171.972 30.8 170.48 31.175 168.847 31.175ZM168.847 28.7C169.997 28.7 171.022 28.4417 171.922 27.925C172.822 27.3917 173.522 26.6417 174.022 25.675C174.539 24.6917 174.797 23.5583 174.797 22.275C174.797 20.9917 174.539 19.8667 174.022 18.9C173.522 17.9333 172.822 17.1917 171.922 16.675C171.022 16.1583 169.997 15.9 168.847 15.9C167.697 15.9 166.672 16.1583 165.772 16.675C164.872 17.1917 164.164 17.9333 163.647 18.9C163.147 19.8667 162.897 20.9917 162.897 22.275C162.897 23.5583 163.147 24.6917 163.647 25.675C164.164 26.6417 164.872 27.3917 165.772 27.925C166.672 28.4417 167.697 28.7 168.847 28.7Z" fill="black"/>
<path d="M132.688 70.816H136.592V72H131.232V60.848H132.688V70.816ZM146.298 67.28C146.298 67.5573 146.282 67.8507 146.25 68.16H139.242C139.296 69.024 139.589 69.7013 140.122 70.192C140.666 70.672 141.322 70.912 142.09 70.912C142.72 70.912 143.242 70.768 143.658 70.48C144.085 70.1813 144.384 69.7867 144.554 69.296H146.122C145.888 70.1387 145.418 70.8267 144.714 71.36C144.01 71.8827 143.136 72.144 142.09 72.144C141.258 72.144 140.512 71.9573 139.85 71.584C139.2 71.2107 138.688 70.6827 138.314 70C137.941 69.3067 137.754 68.5067 137.754 67.6C137.754 66.6933 137.936 65.8987 138.298 65.216C138.661 64.5333 139.168 64.0107 139.818 63.648C140.48 63.2747 141.237 63.088 142.09 63.088C142.922 63.088 143.658 63.2693 144.298 63.632C144.938 63.9947 145.429 64.496 145.77 65.136C146.122 65.7653 146.298 66.48 146.298 67.28ZM144.794 66.976C144.794 66.4213 144.672 65.9467 144.426 65.552C144.181 65.1467 143.845 64.8427 143.418 64.64C143.002 64.4267 142.538 64.32 142.026 64.32C141.29 64.32 140.661 64.5547 140.138 65.024C139.626 65.4933 139.333 66.144 139.258 66.976H144.794ZM150.156 64.432V69.6C150.156 70.0267 150.247 70.3307 150.428 70.512C150.609 70.6827 150.924 70.768 151.372 70.768H152.444V72H151.132C150.321 72 149.713 71.8133 149.308 71.44C148.903 71.0667 148.7 70.4533 148.7 69.6V64.432H147.564V63.232H148.7V61.024H150.156V63.232H152.444V64.432H150.156ZM160.57 64.432V69.6C160.57 70.0267 160.661 70.3307 160.842 70.512C161.023 70.6827 161.338 70.768 161.786 70.768H162.858V72H161.546C160.735 72 160.127 71.8133 159.722 71.44C159.317 71.0667 159.114 70.4533 159.114 69.6V64.432H157.978V63.232H159.114V61.024H160.57V63.232H162.858V64.432H160.57ZM169.134 63.072C169.795 63.072 170.393 63.216 170.926 63.504C171.459 63.7813 171.875 64.2027 172.174 64.768C172.483 65.3333 172.638 66.0213 172.638 66.832V72H171.198V67.04C171.198 66.1653 170.979 65.4987 170.542 65.04C170.105 64.5707 169.507 64.336 168.75 64.336C167.982 64.336 167.369 64.576 166.91 65.056C166.462 65.536 166.238 66.2347 166.238 67.152V72H164.782V60.16H166.238V64.48C166.526 64.032 166.921 63.6853 167.422 63.44C167.934 63.1947 168.505 63.072 169.134 63.072ZM183.176 67.28C183.176 67.5573 183.16 67.8507 183.128 68.16H176.12C176.174 69.024 176.467 69.7013 177 70.192C177.544 70.672 178.2 70.912 178.968 70.912C179.598 70.912 180.12 70.768 180.536 70.48C180.963 70.1813 181.262 69.7867 181.432 69.296H183C182.766 70.1387 182.296 70.8267 181.592 71.36C180.888 71.8827 180.014 72.144 178.968 72.144C178.136 72.144 177.39 71.9573 176.728 71.584C176.078 71.2107 175.566 70.6827 175.192 70C174.819 69.3067 174.632 68.5067 174.632 67.6C174.632 66.6933 174.814 65.8987 175.176 65.216C175.539 64.5333 176.046 64.0107 176.696 63.648C177.358 63.2747 178.115 63.088 178.968 63.088C179.8 63.088 180.536 63.2693 181.176 63.632C181.816 63.9947 182.307 64.496 182.648 65.136C183 65.7653 183.176 66.48 183.176 67.28ZM181.672 66.976C181.672 66.4213 181.55 65.9467 181.304 65.552C181.059 65.1467 180.723 64.8427 180.296 64.64C179.88 64.4267 179.416 64.32 178.904 64.32C178.168 64.32 177.539 64.5547 177.016 65.024C176.504 65.4933 176.211 66.144 176.136 66.976H181.672ZM201.364 63.232L198.628 72H197.124L195.012 65.04L192.9 72H191.396L188.644 63.232H190.132L192.148 70.592L194.324 63.232H195.812L197.94 70.608L199.924 63.232H201.364ZM206.793 72.144C205.972 72.144 205.225 71.9573 204.553 71.584C203.892 71.2107 203.369 70.6827 202.985 70C202.612 69.3067 202.425 68.5067 202.425 67.6C202.425 66.704 202.617 65.9147 203.001 65.232C203.396 64.5387 203.929 64.0107 204.601 63.648C205.273 63.2747 206.025 63.088 206.857 63.088C207.689 63.088 208.441 63.2747 209.113 63.648C209.785 64.0107 210.313 64.5333 210.697 65.216C211.092 65.8987 211.289 66.6933 211.289 67.6C211.289 68.5067 211.086 69.3067 210.681 70C210.286 70.6827 209.748 71.2107 209.065 71.584C208.382 71.9573 207.625 72.144 206.793 72.144ZM206.793 70.864C207.316 70.864 207.806 70.7413 208.265 70.496C208.724 70.2507 209.092 69.8827 209.369 69.392C209.657 68.9013 209.801 68.304 209.801 67.6C209.801 66.896 209.662 66.2987 209.385 65.808C209.108 65.3173 208.745 64.9547 208.297 64.72C207.849 64.4747 207.364 64.352 206.841 64.352C206.308 64.352 205.817 64.4747 205.369 64.72C204.932 64.9547 204.58 65.3173 204.313 65.808C204.046 66.2987 203.913 66.896 203.913 67.6C203.913 68.3147 204.041 68.9173 204.297 69.408C204.564 69.8987 204.916 70.2667 205.353 70.512C205.79 70.7467 206.27 70.864 206.793 70.864ZM214.819 64.656C215.075 64.1547 215.438 63.7653 215.907 63.488C216.387 63.2107 216.969 63.072 217.651 63.072V64.576H217.267C215.635 64.576 214.819 65.4613 214.819 67.232V72H213.363V63.232H214.819V64.656ZM220.948 60.16V72H219.492V60.16H220.948ZM223.045 67.584C223.045 66.688 223.227 65.904 223.589 65.232C223.952 64.5493 224.448 64.0213 225.077 63.648C225.717 63.2747 226.432 63.088 227.221 63.088C227.904 63.088 228.539 63.248 229.125 63.568C229.712 63.8773 230.16 64.288 230.469 64.8V60.16H231.941V72H230.469V70.352C230.181 70.8747 229.755 71.3067 229.189 71.648C228.624 71.9787 227.963 72.144 227.205 72.144C226.427 72.144 225.717 71.952 225.077 71.568C224.448 71.184 223.952 70.6453 223.589 69.952C223.227 69.2587 223.045 68.4693 223.045 67.584ZM230.469 67.6C230.469 66.9387 230.336 66.3627 230.069 65.872C229.803 65.3813 229.44 65.008 228.981 64.752C228.533 64.4853 228.037 64.352 227.493 64.352C226.949 64.352 226.453 64.48 226.005 64.736C225.557 64.992 225.2 65.3653 224.933 65.856C224.667 66.3467 224.533 66.9227 224.533 67.584C224.533 68.256 224.667 68.8427 224.933 69.344C225.2 69.8347 225.557 70.2133 226.005 70.48C226.453 70.736 226.949 70.864 227.493 70.864C228.037 70.864 228.533 70.736 228.981 70.48C229.44 70.2133 229.803 69.8347 230.069 69.344C230.336 68.8427 230.469 68.2613 230.469 67.6ZM242.556 64.432H240.716V72H239.26V64.432H238.124V63.232H239.26V62.608C239.26 61.6267 239.51 60.912 240.012 60.464C240.524 60.0053 241.34 59.776 242.46 59.776V60.992C241.82 60.992 241.366 61.12 241.1 61.376C240.844 61.6213 240.716 62.032 240.716 62.608V63.232H242.556V64.432ZM245.165 61.808C244.888 61.808 244.653 61.712 244.461 61.52C244.269 61.328 244.173 61.0933 244.173 60.816C244.173 60.5387 244.269 60.304 244.461 60.112C244.653 59.92 244.888 59.824 245.165 59.824C245.432 59.824 245.656 59.92 245.837 60.112C246.029 60.304 246.125 60.5387 246.125 60.816C246.125 61.0933 246.029 61.328 245.837 61.52C245.656 61.712 245.432 61.808 245.165 61.808ZM245.869 63.232V72H244.413V63.232H245.869ZM252.783 63.072C253.849 63.072 254.713 63.3973 255.375 64.048C256.036 64.688 256.367 65.616 256.367 66.832V72H254.927V67.04C254.927 66.1653 254.708 65.4987 254.271 65.04C253.833 64.5707 253.236 64.336 252.479 64.336C251.711 64.336 251.097 64.576 250.639 65.056C250.191 65.536 249.967 66.2347 249.967 67.152V72H248.511V63.232H249.967V64.48C250.255 64.032 250.644 63.6853 251.135 63.44C251.636 63.1947 252.185 63.072 252.783 63.072ZM258.361 67.584C258.361 66.688 258.542 65.904 258.905 65.232C259.268 64.5493 259.764 64.0213 260.393 63.648C261.033 63.2747 261.748 63.088 262.537 63.088C263.22 63.088 263.854 63.248 264.441 63.568C265.028 63.8773 265.476 64.288 265.785 64.8V60.16H267.257V72H265.785V70.352C265.497 70.8747 265.07 71.3067 264.505 71.648C263.94 71.9787 263.278 72.144 262.521 72.144C261.742 72.144 261.033 71.952 260.393 71.568C259.764 71.184 259.268 70.6453 258.905 69.952C258.542 69.2587 258.361 68.4693 258.361 67.584ZM265.785 67.6C265.785 66.9387 265.652 66.3627 265.385 65.872C265.118 65.3813 264.756 65.008 264.297 64.752C263.849 64.4853 263.353 64.352 262.809 64.352C262.265 64.352 261.769 64.48 261.321 64.736C260.873 64.992 260.516 65.3653 260.249 65.856C259.982 66.3467 259.849 66.9227 259.849 67.584C259.849 68.256 259.982 68.8427 260.249 69.344C260.516 69.8347 260.873 70.2133 261.321 70.48C261.769 70.736 262.265 70.864 262.809 70.864C263.353 70.864 263.849 70.736 264.297 70.48C264.756 70.2133 265.118 69.8347 265.385 69.344C265.652 68.8427 265.785 68.2613 265.785 67.6ZM281.855 63.232L276.575 76.128H275.071L276.799 71.904L273.263 63.232H274.879L277.631 70.336L280.351 63.232H281.855ZM287.303 72.144C286.482 72.144 285.735 71.9573 285.063 71.584C284.402 71.2107 283.879 70.6827 283.495 70C283.122 69.3067 282.935 68.5067 282.935 67.6C282.935 66.704 283.127 65.9147 283.511 65.232C283.906 64.5387 284.439 64.0107 285.111 63.648C285.783 63.2747 286.535 63.088 287.367 63.088C288.199 63.088 288.951 63.2747 289.623 63.648C290.295 64.0107 290.823 64.5333 291.207 65.216C291.602 65.8987 291.799 66.6933 291.799 67.6C291.799 68.5067 291.596 69.3067 291.191 70C290.796 70.6827 290.258 71.2107 289.575 71.584C288.892 71.9573 288.135 72.144 287.303 72.144ZM287.303 70.864C287.826 70.864 288.316 70.7413 288.775 70.496C289.234 70.2507 289.602 69.8827 289.879 69.392C290.167 68.9013 290.311 68.304 290.311 67.6C290.311 66.896 290.172 66.2987 289.895 65.808C289.618 65.3173 289.255 64.9547 288.807 64.72C288.359 64.4747 287.874 64.352 287.351 64.352C286.818 64.352 286.327 64.4747 285.879 64.72C285.442 64.9547 285.09 65.3173 284.823 65.808C284.556 66.2987 284.423 66.896 284.423 67.6C284.423 68.3147 284.551 68.9173 284.807 69.408C285.074 69.8987 285.426 70.2667 285.863 70.512C286.3 70.7467 286.78 70.864 287.303 70.864ZM301.649 63.232V72H300.193V70.704C299.916 71.152 299.527 71.504 299.025 71.76C298.535 72.0053 297.991 72.128 297.393 72.128C296.711 72.128 296.097 71.9893 295.553 71.712C295.009 71.424 294.577 70.9973 294.257 70.432C293.948 69.8667 293.793 69.1787 293.793 68.368V63.232H295.233V68.176C295.233 69.04 295.452 69.7067 295.889 70.176C296.327 70.6347 296.924 70.864 297.681 70.864C298.46 70.864 299.073 70.624 299.521 70.144C299.969 69.664 300.193 68.9653 300.193 68.048V63.232H301.649ZM312.517 72.144C311.696 72.144 310.949 71.9573 310.277 71.584C309.616 71.2107 309.093 70.6827 308.709 70C308.336 69.3067 308.149 68.5067 308.149 67.6C308.149 66.704 308.341 65.9147 308.725 65.232C309.12 64.5387 309.653 64.0107 310.325 63.648C310.997 63.2747 311.749 63.088 312.581 63.088C313.413 63.088 314.165 63.2747 314.837 63.648C315.509 64.0107 316.037 64.5333 316.421 65.216C316.816 65.8987 317.013 66.6933 317.013 67.6C317.013 68.5067 316.811 69.3067 316.405 70C316.011 70.6827 315.472 71.2107 314.789 71.584C314.107 71.9573 313.349 72.144 312.517 72.144ZM312.517 70.864C313.04 70.864 313.531 70.7413 313.989 70.496C314.448 70.2507 314.816 69.8827 315.093 69.392C315.381 68.9013 315.525 68.304 315.525 67.6C315.525 66.896 315.387 66.2987 315.109 65.808C314.832 65.3173 314.469 64.9547 314.021 64.72C313.573 64.4747 313.088 64.352 312.565 64.352C312.032 64.352 311.541 64.4747 311.093 64.72C310.656 64.9547 310.304 65.3173 310.037 65.808C309.771 66.2987 309.637 66.896 309.637 67.6C309.637 68.3147 309.765 68.9173 310.021 69.408C310.288 69.8987 310.64 70.2667 311.077 70.512C311.515 70.7467 311.995 70.864 312.517 70.864ZM323.36 63.072C324.426 63.072 325.29 63.3973 325.952 64.048C326.613 64.688 326.944 65.616 326.944 66.832V72H325.504V67.04C325.504 66.1653 325.285 65.4987 324.848 65.04C324.41 64.5707 323.813 64.336 323.056 64.336C322.288 64.336 321.674 64.576 321.216 65.056C320.768 65.536 320.544 66.2347 320.544 67.152V72H319.088V63.232H320.544V64.48C320.832 64.032 321.221 63.6853 321.712 63.44C322.213 63.1947 322.762 63.072 323.36 63.072ZM335.684 64.432V69.6C335.684 70.0267 335.774 70.3307 335.956 70.512C336.137 70.6827 336.452 70.768 336.9 70.768H337.972V72H336.66C335.849 72 335.241 71.8133 334.836 71.44C334.43 71.0667 334.228 70.4533 334.228 69.6V64.432H333.092V63.232H334.228V61.024H335.684V63.232H337.972V64.432H335.684ZM343.72 72.144C342.898 72.144 342.152 71.9573 341.48 71.584C340.818 71.2107 340.296 70.6827 339.912 70C339.538 69.3067 339.352 68.5067 339.352 67.6C339.352 66.704 339.544 65.9147 339.928 65.232C340.322 64.5387 340.856 64.0107 341.528 63.648C342.2 63.2747 342.952 63.088 343.784 63.088C344.616 63.088 345.368 63.2747 346.04 63.648C346.712 64.0107 347.24 64.5333 347.624 65.216C348.018 65.8987 348.216 66.6933 348.216 67.6C348.216 68.5067 348.013 69.3067 347.608 70C347.213 70.6827 346.674 71.2107 345.992 71.584C345.309 71.9573 344.552 72.144 343.72 72.144ZM343.72 70.864C344.242 70.864 344.733 70.7413 345.192 70.496C345.65 70.2507 346.018 69.8827 346.296 69.392C346.584 68.9013 346.728 68.304 346.728 67.6C346.728 66.896 346.589 66.2987 346.312 65.808C346.034 65.3173 345.672 64.9547 345.224 64.72C344.776 64.4747 344.29 64.352 343.768 64.352C343.234 64.352 342.744 64.4747 342.296 64.72C341.858 64.9547 341.506 65.3173 341.24 65.808C340.973 66.2987 340.84 66.896 340.84 67.6C340.84 68.3147 340.968 68.9173 341.224 69.408C341.49 69.8987 341.842 70.2667 342.28 70.512C342.717 70.7467 343.197 70.864 343.72 70.864ZM351.746 64.848C352.034 64.3467 352.461 63.9307 353.026 63.6C353.602 63.2587 354.269 63.088 355.026 63.088C355.805 63.088 356.509 63.2747 357.138 63.648C357.778 64.0213 358.279 64.5493 358.642 65.232C359.005 65.904 359.186 66.688 359.186 67.584C359.186 68.4693 359.005 69.2587 358.642 69.952C358.279 70.6453 357.778 71.184 357.138 71.568C356.509 71.952 355.805 72.144 355.026 72.144C354.279 72.144 353.618 71.9787 353.042 71.648C352.477 71.3067 352.045 70.8853 351.746 70.384V76.16H350.29V63.232H351.746V64.848ZM357.698 67.584C357.698 66.9227 357.565 66.3467 357.298 65.856C357.031 65.3653 356.669 64.992 356.21 64.736C355.762 64.48 355.266 64.352 354.722 64.352C354.189 64.352 353.693 64.4853 353.234 64.752C352.786 65.008 352.423 65.3867 352.146 65.888C351.879 66.3787 351.746 66.9493 351.746 67.6C351.746 68.2613 351.879 68.8427 352.146 69.344C352.423 69.8347 352.786 70.2133 353.234 70.48C353.693 70.736 354.189 70.864 354.722 70.864C355.266 70.864 355.762 70.736 356.21 70.48C356.669 70.2133 357.031 69.8347 357.298 69.344C357.565 68.8427 357.698 68.256 357.698 67.584ZM369.512 72.144C368.691 72.144 367.944 71.9573 367.272 71.584C366.611 71.2107 366.088 70.6827 365.704 70C365.331 69.3067 365.144 68.5067 365.144 67.6C365.144 66.704 365.336 65.9147 365.72 65.232C366.115 64.5387 366.648 64.0107 367.32 63.648C367.992 63.2747 368.744 63.088 369.576 63.088C370.408 63.088 371.16 63.2747 371.832 63.648C372.504 64.0107 373.032 64.5333 373.416 65.216C373.811 65.8987 374.008 66.6933 374.008 67.6C374.008 68.5067 373.806 69.3067 373.4 70C373.006 70.6827 372.467 71.2107 371.784 71.584C371.102 71.9573 370.344 72.144 369.512 72.144ZM369.512 70.864C370.035 70.864 370.526 70.7413 370.984 70.496C371.443 70.2507 371.811 69.8827 372.088 69.392C372.376 68.9013 372.52 68.304 372.52 67.6C372.52 66.896 372.382 66.2987 372.104 65.808C371.827 65.3173 371.464 64.9547 371.016 64.72C370.568 64.4747 370.083 64.352 369.56 64.352C369.027 64.352 368.536 64.4747 368.088 64.72C367.651 64.9547 367.299 65.3173 367.032 65.808C366.766 66.2987 366.632 66.896 366.632 67.6C366.632 68.3147 366.76 68.9173 367.016 69.408C367.283 69.8987 367.635 70.2667 368.072 70.512C368.51 70.7467 368.99 70.864 369.512 70.864ZM379.651 64.432H377.811V72H376.355V64.432H375.219V63.232H376.355V62.608C376.355 61.6267 376.605 60.912 377.107 60.464C377.619 60.0053 378.435 59.776 379.555 59.776V60.992C378.915 60.992 378.461 61.12 378.195 61.376C377.939 61.6213 377.811 62.032 377.811 62.608V63.232H379.651V64.432ZM135.056 100.144C134.235 100.144 133.488 99.9573 132.816 99.584C132.155 99.2107 131.632 98.6827 131.248 98C130.875 97.3067 130.688 96.5067 130.688 95.6C130.688 94.704 130.88 93.9147 131.264 93.232C131.659 92.5387 132.192 92.0107 132.864 91.648C133.536 91.2747 134.288 91.088 135.12 91.088C135.952 91.088 136.704 91.2747 137.376 91.648C138.048 92.0107 138.576 92.5333 138.96 93.216C139.355 93.8987 139.552 94.6933 139.552 95.6C139.552 96.5067 139.349 97.3067 138.944 98C138.549 98.6827 138.011 99.2107 137.328 99.584C136.645 99.9573 135.888 100.144 135.056 100.144ZM135.056 98.864C135.579 98.864 136.069 98.7413 136.528 98.496C136.987 98.2507 137.355 97.8827 137.632 97.392C137.92 96.9013 138.064 96.304 138.064 95.6C138.064 94.896 137.925 94.2987 137.648 93.808C137.371 93.3173 137.008 92.9547 136.56 92.72C136.112 92.4747 135.627 92.352 135.104 92.352C134.571 92.352 134.08 92.4747 133.632 92.72C133.195 92.9547 132.843 93.3173 132.576 93.808C132.309 94.2987 132.176 94.896 132.176 95.6C132.176 96.3147 132.304 96.9173 132.56 97.408C132.827 97.8987 133.179 98.2667 133.616 98.512C134.053 98.7467 134.533 98.864 135.056 98.864ZM143.402 92.432V97.6C143.402 98.0267 143.493 98.3307 143.674 98.512C143.856 98.6827 144.17 98.768 144.618 98.768H145.69V100H144.378C143.568 100 142.96 99.8133 142.554 99.44C142.149 99.0667 141.946 98.4533 141.946 97.6V92.432H140.81V91.232H141.946V89.024H143.402V91.232H145.69V92.432H143.402ZM151.966 91.072C152.628 91.072 153.225 91.216 153.759 91.504C154.292 91.7813 154.708 92.2027 155.007 92.768C155.316 93.3333 155.47 94.0213 155.47 94.832V100H154.03V95.04C154.03 94.1653 153.812 93.4987 153.374 93.04C152.937 92.5707 152.34 92.336 151.582 92.336C150.815 92.336 150.201 92.576 149.742 93.056C149.294 93.536 149.07 94.2347 149.07 95.152V100H147.614V88.16H149.07V92.48C149.358 92.032 149.753 91.6853 150.254 91.44C150.766 91.1947 151.337 91.072 151.966 91.072ZM166.009 95.28C166.009 95.5573 165.993 95.8507 165.961 96.16H158.953C159.006 97.024 159.3 97.7013 159.833 98.192C160.377 98.672 161.033 98.912 161.801 98.912C162.43 98.912 162.953 98.768 163.369 98.48C163.796 98.1813 164.094 97.7867 164.265 97.296H165.833C165.598 98.1387 165.129 98.8267 164.425 99.36C163.721 99.8827 162.846 100.144 161.801 100.144C160.969 100.144 160.222 99.9573 159.561 99.584C158.91 99.2107 158.398 98.6827 158.025 98C157.652 97.3067 157.465 96.5067 157.465 95.6C157.465 94.6933 157.646 93.8987 158.009 93.216C158.372 92.5333 158.878 92.0107 159.529 91.648C160.19 91.2747 160.948 91.088 161.801 91.088C162.633 91.088 163.369 91.2693 164.009 91.632C164.649 91.9947 165.14 92.496 165.481 93.136C165.833 93.7653 166.009 94.48 166.009 95.28ZM164.505 94.976C164.505 94.4213 164.382 93.9467 164.137 93.552C163.892 93.1467 163.556 92.8427 163.129 92.64C162.713 92.4267 162.249 92.32 161.737 92.32C161.001 92.32 160.372 92.5547 159.849 93.024C159.337 93.4933 159.044 94.144 158.969 94.976H164.505ZM169.547 92.656C169.803 92.1547 170.165 91.7653 170.635 91.488C171.115 91.2107 171.696 91.072 172.379 91.072V92.576H171.995C170.363 92.576 169.547 93.4613 169.547 95.232V100H168.091V91.232H169.547V92.656ZM177.323 100.144C176.651 100.144 176.049 100.032 175.515 99.808C174.982 99.5733 174.561 99.2533 174.251 98.848C173.942 98.432 173.771 97.9573 173.739 97.424H175.243C175.286 97.8613 175.489 98.2187 175.851 98.496C176.225 98.7733 176.71 98.912 177.307 98.912C177.862 98.912 178.299 98.7893 178.619 98.544C178.939 98.2987 179.099 97.9893 179.099 97.616C179.099 97.232 178.929 96.9493 178.587 96.768C178.246 96.576 177.718 96.3893 177.003 96.208C176.353 96.0373 175.819 95.8667 175.403 95.696C174.998 95.5147 174.646 95.2533 174.347 94.912C174.059 94.56 173.915 94.1013 173.915 93.536C173.915 93.088 174.049 92.6773 174.315 92.304C174.582 91.9307 174.961 91.6373 175.451 91.424C175.942 91.2 176.502 91.088 177.131 91.088C178.102 91.088 178.886 91.3333 179.483 91.824C180.081 92.3147 180.401 92.9867 180.443 93.84H178.987C178.955 93.3813 178.769 93.0133 178.427 92.736C178.097 92.4587 177.649 92.32 177.083 92.32C176.561 92.32 176.145 92.432 175.835 92.656C175.526 92.88 175.371 93.1733 175.371 93.536C175.371 93.824 175.462 94.064 175.643 94.256C175.835 94.4373 176.07 94.5867 176.347 94.704C176.635 94.8107 177.03 94.9333 177.531 95.072C178.161 95.2427 178.673 95.4133 179.067 95.584C179.462 95.744 179.798 95.9893 180.075 96.32C180.363 96.6507 180.513 97.0827 180.523 97.616C180.523 98.096 180.39 98.528 180.123 98.912C179.857 99.296 179.478 99.6 178.987 99.824C178.507 100.037 177.953 100.144 177.323 100.144Z" fill="#797979"/>
<g clip-path="url(#clip0_2_1586)">
<path d="M46.5138 50.487C46.2007 50.1739 45.6938 50.1739 45.3807 50.487C45.0684 50.7993 45.0684 51.3062 45.3807 51.6193C45.6938 51.9316 46.2007 51.9316 46.5138 51.6193C46.8262 51.3062 46.8262 50.7993 46.5138 50.487Z" fill="#0073C6"/>
<path d="M56.7055 40.2947C55.1408 38.7301 52.6078 38.73 51.043 40.2947C49.4823 41.8554 49.4823 44.3954 51.0432 45.9574C52.6044 47.5176 55.1445 47.5182 56.7055 45.9572C58.2701 44.3926 58.2704 41.8595 56.7055 40.2947ZM55.5731 44.8247C54.6367 45.7611 53.1125 45.7611 52.1757 44.8248C51.2392 43.8877 51.2391 42.3635 52.1755 41.4272C53.1143 40.4884 54.6342 40.4883 55.5731 41.4272C56.5118 42.3659 56.512 43.8858 55.5731 44.8247Z" fill="#0073C6"/>
<path d="M65.7653 31.2346C65.608 31.0774 65.3934 30.9922 65.1703 31.0006C64.9892 31.0071 60.6782 31.1803 55.5537 32.9916C51.4473 34.4415 48.0245 36.5174 45.3804 39.1616C44.7879 39.7541 44.2113 40.3823 43.6597 41.0351C41.0453 39.4961 38.9503 39.9787 37.6259 40.6874C34.5764 42.3194 32.6889 46.7506 32.6889 49.9201C32.6891 50.2439 32.8843 50.536 33.1835 50.6599C33.2825 50.701 33.3866 50.7209 33.4898 50.7209C33.6982 50.7209 33.903 50.6395 34.0562 50.4863C35.6644 48.8781 37.648 48.9787 38.296 49.0639L38.5764 49.3444C38.0245 50.6576 37.5799 51.9635 37.2538 53.2337C37.1361 53.6933 37.1758 54.1797 37.3508 54.6246C36.5798 54.9799 35.836 55.5016 35.1883 56.1493C33.127 58.2107 32.7084 63.2343 32.6916 63.4471C32.6732 63.6807 32.7579 63.9107 32.9236 64.0764C33.0744 64.2271 33.2784 64.3109 33.4898 64.3109C33.5107 64.3109 33.5318 64.3101 33.5529 64.3084C33.7657 64.2917 38.7895 63.8731 40.8508 61.8119C41.4982 61.1644 42.0198 60.4207 42.3751 59.6498C42.8462 59.835 43.3309 59.8579 43.7669 59.7462C45.0364 59.4202 46.3422 58.9757 47.6556 58.4238L47.9361 58.7042C48.0212 59.3523 48.1218 61.3359 46.5136 62.9439C46.2847 63.1729 46.2162 63.5174 46.3401 63.8165C46.464 64.1158 46.756 64.3108 47.0799 64.3108C50.2494 64.3108 54.6805 62.4233 56.3125 59.3739C57.0212 58.0496 57.5038 55.9546 55.9648 53.3402C56.6172 52.7887 57.2456 52.2122 57.8384 51.6194C60.4825 48.9753 62.5583 45.5525 64.0082 41.4464C65.8196 36.3216 65.9928 32.0105 65.9993 31.8295C66.0073 31.6073 65.9225 31.3918 65.7653 31.2346ZM34.4793 48.1977C34.9767 45.7903 36.4216 43.1486 38.3819 42.0995C39.6919 41.3985 41.1238 41.4672 42.6462 42.3005C41.3492 44.0064 40.2216 45.8441 39.2817 47.7848C39.2698 47.7775 39.1257 47.5962 38.8579 47.5359C38.7478 47.511 36.629 47.0552 34.4793 48.1977ZM39.7183 60.6793C38.6172 61.7804 36.0343 62.3611 34.4018 62.5982C34.639 60.9656 35.2198 58.3828 36.3208 57.2818C36.9374 56.6652 37.6523 56.1977 38.3709 55.9344L41.0657 58.6292C40.8024 59.3478 40.335 60.0627 39.7183 60.6793ZM43.3691 58.1947C43.1373 58.2541 42.8689 58.1669 42.6693 57.9677C41.6334 56.9317 41.2281 56.5265 41.1009 56.3994C40.8677 56.1662 40.2959 55.5944 39.0328 54.3312C38.8331 54.1311 38.746 53.8628 38.8052 53.6314C39.0617 52.6325 39.3971 51.6077 39.805 50.573L46.4271 57.195C45.3922 57.603 44.3676 57.9384 43.3691 58.1947ZM54.9006 58.6182C53.8514 60.5784 51.2098 62.0233 48.8025 62.5207C49.5701 61.0763 49.7393 59.2377 49.4588 58.1227C49.3937 57.8638 49.2248 57.7336 49.2153 57.7183C51.1558 56.7784 52.9936 55.6508 54.6995 54.3538C55.5329 55.8764 55.6015 57.3084 54.9006 58.6182ZM56.7061 50.487C55.9845 51.2085 55.2075 51.9056 54.3966 52.5588C52.4473 54.1283 50.3019 55.4577 48.0129 56.5161L40.484 48.9873C41.5423 46.6982 42.8718 44.5527 44.4411 42.6037C45.0949 41.7923 45.7919 41.0152 46.5132 40.294C48.8855 37.9216 51.9472 36.0335 55.6157 34.6745L62.3256 41.3844C60.9667 45.0528 59.0786 48.1145 56.7061 50.487ZM62.9018 39.6954L57.3046 34.0983C60.3541 33.1511 63.007 32.7965 64.3312 32.669C64.2036 33.9934 63.8488 36.6463 62.9018 39.6954Z" fill="#0073C6"/>
<path d="M44.2484 64.0761C43.9356 63.7634 43.4285 63.7636 43.1159 64.0763L40.8513 66.3417C40.5386 66.6545 40.5387 67.1615 40.8514 67.4742C41.1643 67.7868 41.6713 67.7868 41.984 67.474L44.2486 65.2086C44.5612 64.8958 44.5611 64.3887 44.2484 64.0761Z" fill="#0073C6"/>
<path d="M32.9241 52.7517C32.6115 52.4389 32.1045 52.4389 31.7916 52.7515L29.5262 55.0161C29.2134 55.3288 29.2133 55.8358 29.526 56.1486C29.8385 56.4612 30.3455 56.4615 30.6584 56.1488L32.9238 53.8842C33.2366 53.5715 33.2367 53.0645 32.9241 52.7517Z" fill="#0073C6"/>
<path d="M38.5863 65.2094C38.2738 64.8967 37.7666 64.8967 37.4539 65.2093L32.0294 70.633C31.7166 70.9457 31.7166 71.4528 32.0293 71.7655C32.3418 72.0782 32.849 72.0783 33.1618 71.7655L38.5862 66.3419C38.899 66.0292 38.899 65.5221 38.5863 65.2094Z" fill="#0073C6"/>
<path d="M32.18 65.2094C31.8674 64.8967 31.3603 64.8967 31.0476 65.2093L25.6231 70.633C25.3103 70.9457 25.3103 71.4528 25.623 71.7655C25.9356 72.0782 26.4427 72.0783 26.7555 71.7655L32.18 66.3419C32.4927 66.0292 32.4927 65.5221 32.18 65.2094Z" fill="#0073C6"/>
<path d="M31.7908 58.4138C31.4782 58.1012 30.971 58.1012 30.6583 58.4139L25.2346 63.8383C24.9219 64.1511 24.9219 64.6581 25.2347 64.9709C25.5474 65.2836 26.0545 65.2836 26.3672 64.9708L31.7909 59.5463C32.1036 59.2335 32.1036 58.7266 31.7908 58.4138Z" fill="#0073C6"/>
<path d="M49.9109 47.0891C49.5981 46.7764 49.0912 46.7764 48.7784 47.0891L47.6461 48.2214C47.3334 48.5341 47.3334 49.0412 47.6461 49.354C47.9588 49.6667 48.4658 49.6667 48.7786 49.354L49.9109 48.2217C50.2236 47.909 50.2236 47.4019 49.9109 47.0891Z" fill="#0073C6"/>
</g>
<defs>
<clipPath id="clip0_2_1586">
<rect width="41" height="41" fill="white" transform="translate(25 31)"/>
</clipPath>
</defs>
</svg>
