<svg width="485" height="107" viewBox="0 0 485 107" fill="none" xmlns="http://www.w3.org/2000/svg">
<rect y="6" width="91" height="90" rx="20" fill="#FFF2F2"/>
<path d="M154.575 13.625L149.425 31H146.2L142.55 17.85L138.675 31L135.475 31.025L130.55 13.625H133.575L137.175 27.775L141.075 13.625H144.275L147.9 27.7L151.525 13.625H154.575ZM169.801 23.775C169.801 24.2917 169.767 24.7583 169.701 25.175H159.176C159.259 26.275 159.667 27.1583 160.401 27.825C161.134 28.4917 162.034 28.825 163.101 28.825C164.634 28.825 165.717 28.1833 166.351 26.9H169.426C169.009 28.1667 168.251 29.2083 167.151 30.025C166.067 30.825 164.717 31.225 163.101 31.225C161.784 31.225 160.601 30.9333 159.551 30.35C158.517 29.75 157.701 28.9167 157.101 27.85C156.517 26.7667 156.226 25.5167 156.226 24.1C156.226 22.6833 156.509 21.4417 157.076 20.375C157.659 19.2917 158.467 18.4583 159.501 17.875C160.551 17.2917 161.751 17 163.101 17C164.401 17 165.559 17.2833 166.576 17.85C167.592 18.4167 168.384 19.2167 168.951 20.25C169.517 21.2667 169.801 22.4417 169.801 23.775ZM166.826 22.875C166.809 21.825 166.434 20.9833 165.701 20.35C164.967 19.7167 164.059 19.4 162.976 19.4C161.992 19.4 161.151 19.7167 160.451 20.35C159.751 20.9667 159.334 21.8083 159.201 22.875H166.826ZM175.705 19.275C176.189 18.6083 176.847 18.0667 177.68 17.65C178.53 17.2167 179.472 17 180.505 17C181.722 17 182.822 17.2917 183.805 17.875C184.789 18.4583 185.564 19.2917 186.13 20.375C186.697 21.4417 186.98 22.6667 186.98 24.05C186.98 25.4333 186.697 26.675 186.13 27.775C185.564 28.8583 184.78 29.7083 183.78 30.325C182.797 30.925 181.705 31.225 180.505 31.225C179.439 31.225 178.489 31.0167 177.655 30.6C176.839 30.1833 176.189 29.65 175.705 29V31H172.855V12.5H175.705V19.275ZM184.08 24.05C184.08 23.1 183.88 22.2833 183.48 21.6C183.097 20.9 182.58 20.375 181.93 20.025C181.297 19.6583 180.614 19.475 179.88 19.475C179.164 19.475 178.48 19.6583 177.83 20.025C177.197 20.3917 176.68 20.925 176.28 21.625C175.897 22.325 175.705 23.15 175.705 24.1C175.705 25.05 175.897 25.8833 176.28 26.6C176.68 27.3 177.197 27.8333 177.83 28.2C178.48 28.5667 179.164 28.75 179.88 28.75C180.614 28.75 181.297 28.5667 181.93 28.2C182.58 27.8167 183.097 27.2667 183.48 26.55C183.88 25.8333 184.08 25 184.08 24.05ZM207.268 27.45H199.993L198.743 31H195.768L201.993 13.6H205.293L211.518 31H208.518L207.268 27.45ZM206.468 25.125L203.643 17.05L200.793 25.125H206.468ZM217.325 19.25C217.808 18.6167 218.466 18.0833 219.3 17.65C220.133 17.2167 221.075 17 222.125 17C223.325 17 224.416 17.3 225.4 17.9C226.4 18.4833 227.183 19.3083 227.75 20.375C228.316 21.4417 228.6 22.6667 228.6 24.05C228.6 25.4333 228.316 26.675 227.75 27.775C227.183 28.8583 226.4 29.7083 225.4 30.325C224.416 30.925 223.325 31.225 222.125 31.225C221.075 31.225 220.141 31.0167 219.325 30.6C218.508 30.1667 217.841 29.6333 217.325 29V37.55H214.475V17.225H217.325V19.25ZM225.7 24.05C225.7 23.1 225.5 22.2833 225.1 21.6C224.716 20.9 224.2 20.375 223.55 20.025C222.916 19.6583 222.233 19.475 221.5 19.475C220.783 19.475 220.1 19.6583 219.45 20.025C218.816 20.3917 218.3 20.925 217.9 21.625C217.516 22.325 217.325 23.15 217.325 24.1C217.325 25.05 217.516 25.8833 217.9 26.6C218.3 27.3 218.816 27.8333 219.45 28.2C220.1 28.5667 220.783 28.75 221.5 28.75C222.233 28.75 222.916 28.5667 223.55 28.2C224.2 27.8167 224.716 27.2667 225.1 26.55C225.5 25.8333 225.7 25 225.7 24.05ZM234.518 19.25C235.001 18.6167 235.66 18.0833 236.493 17.65C237.326 17.2167 238.268 17 239.318 17C240.518 17 241.61 17.3 242.593 17.9C243.593 18.4833 244.376 19.3083 244.943 20.375C245.51 21.4417 245.793 22.6667 245.793 24.05C245.793 25.4333 245.51 26.675 244.943 27.775C244.376 28.8583 243.593 29.7083 242.593 30.325C241.61 30.925 240.518 31.225 239.318 31.225C238.268 31.225 237.335 31.0167 236.518 30.6C235.701 30.1667 235.035 29.6333 234.518 29V37.55H231.668V17.225H234.518V19.25ZM242.893 24.05C242.893 23.1 242.693 22.2833 242.293 21.6C241.91 20.9 241.393 20.375 240.743 20.025C240.11 19.6583 239.426 19.475 238.693 19.475C237.976 19.475 237.293 19.6583 236.643 20.025C236.01 20.3917 235.493 20.925 235.093 21.625C234.71 22.325 234.518 23.15 234.518 24.1C234.518 25.05 234.71 25.8833 235.093 26.6C235.493 27.3 236.01 27.8333 236.643 28.2C237.293 28.5667 237.976 28.75 238.693 28.75C239.426 28.75 240.11 28.5667 240.743 28.2C241.393 27.8167 241.91 27.2667 242.293 26.55C242.693 25.8333 242.893 25 242.893 24.05ZM251.711 12.5V31H248.861V12.5H251.711ZM257.153 15.4C256.636 15.4 256.203 15.225 255.853 14.875C255.503 14.525 255.328 14.0917 255.328 13.575C255.328 13.0583 255.503 12.625 255.853 12.275C256.203 11.925 256.636 11.75 257.153 11.75C257.653 11.75 258.078 11.925 258.428 12.275C258.778 12.625 258.953 13.0583 258.953 13.575C258.953 14.0917 258.778 14.525 258.428 14.875C258.078 15.225 257.653 15.4 257.153 15.4ZM258.553 17.225V31H255.703V17.225H258.553ZM261.595 24.1C261.595 22.6833 261.878 21.4417 262.445 20.375C263.028 19.2917 263.828 18.4583 264.845 17.875C265.862 17.2917 267.028 17 268.345 17C270.012 17 271.387 17.4 272.47 18.2C273.57 18.9833 274.312 20.1083 274.695 21.575H271.62C271.37 20.8917 270.97 20.3583 270.42 19.975C269.87 19.5917 269.178 19.4 268.345 19.4C267.178 19.4 266.245 19.8167 265.545 20.65C264.862 21.4667 264.52 22.6167 264.52 24.1C264.52 25.5833 264.862 26.7417 265.545 27.575C266.245 28.4083 267.178 28.825 268.345 28.825C269.995 28.825 271.087 28.1 271.62 26.65H274.695C274.295 28.05 273.545 29.1667 272.445 30C271.345 30.8167 269.978 31.225 268.345 31.225C267.028 31.225 265.862 30.9333 264.845 30.35C263.828 29.75 263.028 28.9167 262.445 27.85C261.878 26.7667 261.595 25.5167 261.595 24.1ZM276.835 24.05C276.835 22.6667 277.118 21.4417 277.685 20.375C278.268 19.3083 279.052 18.4833 280.035 17.9C281.035 17.3 282.135 17 283.335 17C284.418 17 285.36 17.2167 286.16 17.65C286.977 18.0667 287.627 18.5917 288.11 19.225V17.225H290.985V31H288.11V28.95C287.627 29.6 286.968 30.1417 286.135 30.575C285.302 31.0083 284.352 31.225 283.285 31.225C282.102 31.225 281.018 30.925 280.035 30.325C279.052 29.7083 278.268 28.8583 277.685 27.775C277.118 26.675 276.835 25.4333 276.835 24.05ZM288.11 24.1C288.11 23.15 287.91 22.325 287.51 21.625C287.127 20.925 286.618 20.3917 285.985 20.025C285.352 19.6583 284.668 19.475 283.935 19.475C283.202 19.475 282.518 19.6583 281.885 20.025C281.252 20.375 280.735 20.9 280.335 21.6C279.952 22.2833 279.76 23.1 279.76 24.05C279.76 25 279.952 25.8333 280.335 26.55C280.735 27.2667 281.252 27.8167 281.885 28.2C282.535 28.5667 283.218 28.75 283.935 28.75C284.668 28.75 285.352 28.5667 285.985 28.2C286.618 27.8333 287.127 27.3 287.51 26.6C287.91 25.8833 288.11 25.05 288.11 24.1ZM298.304 19.55V27.175C298.304 27.6917 298.42 28.0667 298.654 28.3C298.904 28.5167 299.32 28.625 299.904 28.625H301.654V31H299.404C298.12 31 297.137 30.7 296.454 30.1C295.77 29.5 295.429 28.525 295.429 27.175V19.55H293.804V17.225H295.429V13.8H298.304V17.225H301.654V19.55H298.304ZM305.98 15.4C305.464 15.4 305.03 15.225 304.68 14.875C304.33 14.525 304.155 14.0917 304.155 13.575C304.155 13.0583 304.33 12.625 304.68 12.275C305.03 11.925 305.464 11.75 305.98 11.75C306.48 11.75 306.905 11.925 307.255 12.275C307.605 12.625 307.78 13.0583 307.78 13.575C307.78 14.0917 307.605 14.525 307.255 14.875C306.905 15.225 306.48 15.4 305.98 15.4ZM307.38 17.225V31H304.53V17.225H307.38ZM317.347 31.225C316.047 31.225 314.872 30.9333 313.822 30.35C312.772 29.75 311.947 28.9167 311.347 27.85C310.747 26.7667 310.447 25.5167 310.447 24.1C310.447 22.7 310.755 21.4583 311.372 20.375C311.989 19.2917 312.83 18.4583 313.897 17.875C314.964 17.2917 316.155 17 317.472 17C318.789 17 319.98 17.2917 321.047 17.875C322.114 18.4583 322.955 19.2917 323.572 20.375C324.189 21.4583 324.497 22.7 324.497 24.1C324.497 25.5 324.18 26.7417 323.547 27.825C322.914 28.9083 322.047 29.75 320.947 30.35C319.864 30.9333 318.664 31.225 317.347 31.225ZM317.347 28.75C318.08 28.75 318.764 28.575 319.397 28.225C320.047 27.875 320.572 27.35 320.972 26.65C321.372 25.95 321.572 25.1 321.572 24.1C321.572 23.1 321.38 22.2583 320.997 21.575C320.614 20.875 320.105 20.35 319.472 20C318.839 19.65 318.155 19.475 317.422 19.475C316.689 19.475 316.005 19.65 315.372 20C314.755 20.35 314.264 20.875 313.897 21.575C313.53 22.2583 313.347 23.1 313.347 24.1C313.347 25.5833 313.722 26.7333 314.472 27.55C315.239 28.35 316.197 28.75 317.347 28.75ZM334.514 17C335.598 17 336.564 17.225 337.414 17.675C338.281 18.125 338.956 18.7917 339.439 19.675C339.923 20.5583 340.164 21.625 340.164 22.875V31H337.339V23.3C337.339 22.0667 337.031 21.125 336.414 20.475C335.798 19.8083 334.956 19.475 333.889 19.475C332.823 19.475 331.973 19.8083 331.339 20.475C330.723 21.125 330.414 22.0667 330.414 23.3V31H327.564V17.225H330.414V18.8C330.881 18.2333 331.473 17.7917 332.189 17.475C332.923 17.1583 333.698 17 334.514 17Z" fill="black"/>
<path d="M138.688 63.112C138.688 64.04 138.368 64.8133 137.728 65.432C137.099 66.04 136.133 66.344 134.832 66.344H132.688V71H131.232V59.848H134.832C136.091 59.848 137.045 60.152 137.696 60.76C138.357 61.368 138.688 62.152 138.688 63.112ZM134.832 65.144C135.643 65.144 136.24 64.968 136.624 64.616C137.008 64.264 137.2 63.7627 137.2 63.112C137.2 61.736 136.411 61.048 134.832 61.048H132.688V65.144H134.832ZM142.114 59.16V71H140.658V59.16H142.114ZM144.211 66.584C144.211 65.688 144.392 64.904 144.755 64.232C145.118 63.5493 145.614 63.0213 146.243 62.648C146.883 62.2747 147.592 62.088 148.371 62.088C149.139 62.088 149.806 62.2533 150.371 62.584C150.936 62.9147 151.358 63.3307 151.635 63.832V62.232H153.107V71H151.635V69.368C151.347 69.88 150.915 70.3067 150.339 70.648C149.774 70.9787 149.112 71.144 148.355 71.144C147.576 71.144 146.872 70.952 146.243 70.568C145.614 70.184 145.118 69.6453 144.755 68.952C144.392 68.2587 144.211 67.4693 144.211 66.584ZM151.635 66.6C151.635 65.9387 151.502 65.3627 151.235 64.872C150.968 64.3813 150.606 64.008 150.147 63.752C149.699 63.4853 149.203 63.352 148.659 63.352C148.115 63.352 147.619 63.48 147.171 63.736C146.723 63.992 146.366 64.3653 146.099 64.856C145.832 65.3467 145.699 65.9227 145.699 66.584C145.699 67.256 145.832 67.8427 146.099 68.344C146.366 68.8347 146.723 69.2133 147.171 69.48C147.619 69.736 148.115 69.864 148.659 69.864C149.203 69.864 149.699 69.736 150.147 69.48C150.606 69.2133 150.968 68.8347 151.235 68.344C151.502 67.8427 151.635 67.2613 151.635 66.6ZM157.504 63.432V68.6C157.504 69.0267 157.594 69.3307 157.776 69.512C157.957 69.6827 158.272 69.768 158.72 69.768H159.792V71H158.48C157.669 71 157.061 70.8133 156.656 70.44C156.25 70.0667 156.048 69.4533 156.048 68.6V63.432H154.912V62.232H156.048V60.024H157.504V62.232H159.792V63.432H157.504ZM165.284 63.432H163.444V71H161.988V63.432H160.852V62.232H161.988V61.608C161.988 60.6267 162.238 59.912 162.74 59.464C163.252 59.0053 164.068 58.776 165.188 58.776V59.992C164.548 59.992 164.094 60.12 163.828 60.376C163.572 60.6213 163.444 61.032 163.444 61.608V62.232H165.284V63.432ZM170.965 71.144C170.144 71.144 169.397 70.9573 168.725 70.584C168.064 70.2107 167.541 69.6827 167.157 69C166.784 68.3067 166.597 67.5067 166.597 66.6C166.597 65.704 166.789 64.9147 167.173 64.232C167.568 63.5387 168.101 63.0107 168.773 62.648C169.445 62.2747 170.197 62.088 171.029 62.088C171.861 62.088 172.613 62.2747 173.285 62.648C173.957 63.0107 174.485 63.5333 174.869 64.216C175.264 64.8987 175.461 65.6933 175.461 66.6C175.461 67.5067 175.259 68.3067 174.853 69C174.459 69.6827 173.92 70.2107 173.237 70.584C172.555 70.9573 171.797 71.144 170.965 71.144ZM170.965 69.864C171.488 69.864 171.979 69.7413 172.437 69.496C172.896 69.2507 173.264 68.8827 173.541 68.392C173.829 67.9013 173.973 67.304 173.973 66.6C173.973 65.896 173.835 65.2987 173.557 64.808C173.28 64.3173 172.917 63.9547 172.469 63.72C172.021 63.4747 171.536 63.352 171.013 63.352C170.48 63.352 169.989 63.4747 169.541 63.72C169.104 63.9547 168.752 64.3173 168.485 64.808C168.219 65.2987 168.085 65.896 168.085 66.6C168.085 67.3147 168.213 67.9173 168.469 68.408C168.736 68.8987 169.088 69.2667 169.525 69.512C169.963 69.7467 170.443 69.864 170.965 69.864ZM178.992 63.656C179.248 63.1547 179.61 62.7653 180.08 62.488C180.56 62.2107 181.141 62.072 181.824 62.072V63.576H181.44C179.808 63.576 178.992 64.4613 178.992 66.232V71H177.536V62.232H178.992V63.656ZM194.208 62.072C194.891 62.072 195.499 62.216 196.032 62.504C196.566 62.7813 196.987 63.2027 197.296 63.768C197.606 64.3333 197.76 65.0213 197.76 65.832V71H196.32V66.04C196.32 65.1653 196.102 64.4987 195.664 64.04C195.238 63.5707 194.656 63.336 193.92 63.336C193.163 63.336 192.56 63.5813 192.112 64.072C191.664 64.552 191.44 65.2507 191.44 66.168V71H190V66.04C190 65.1653 189.782 64.4987 189.344 64.04C188.918 63.5707 188.336 63.336 187.6 63.336C186.843 63.336 186.24 63.5813 185.792 64.072C185.344 64.552 185.12 65.2507 185.12 66.168V71H183.664V62.232H185.12V63.496C185.408 63.0373 185.792 62.6853 186.272 62.44C186.763 62.1947 187.302 62.072 187.888 62.072C188.624 62.072 189.275 62.2373 189.84 62.568C190.406 62.8987 190.827 63.384 191.104 64.024C191.35 63.4053 191.755 62.9253 192.32 62.584C192.886 62.2427 193.515 62.072 194.208 62.072ZM205.487 60.808C205.209 60.808 204.975 60.712 204.783 60.52C204.591 60.328 204.495 60.0933 204.495 59.816C204.495 59.5387 204.591 59.304 204.783 59.112C204.975 58.92 205.209 58.824 205.487 58.824C205.753 58.824 205.977 58.92 206.159 59.112C206.351 59.304 206.447 59.5387 206.447 59.816C206.447 60.0933 206.351 60.328 206.159 60.52C205.977 60.712 205.753 60.808 205.487 60.808ZM206.191 62.232V71H204.735V62.232H206.191ZM213.104 62.072C214.171 62.072 215.035 62.3973 215.696 63.048C216.357 63.688 216.688 64.616 216.688 65.832V71H215.248V66.04C215.248 65.1653 215.029 64.4987 214.592 64.04C214.155 63.5707 213.557 63.336 212.8 63.336C212.032 63.336 211.419 63.576 210.96 64.056C210.512 64.536 210.288 65.2347 210.288 66.152V71H208.832V62.232H210.288V63.48C210.576 63.032 210.965 62.6853 211.456 62.44C211.957 62.1947 212.507 62.072 213.104 62.072ZM218.682 66.584C218.682 65.688 218.864 64.904 219.226 64.232C219.589 63.5493 220.085 63.0213 220.714 62.648C221.354 62.2747 222.069 62.088 222.858 62.088C223.541 62.088 224.176 62.248 224.762 62.568C225.349 62.8773 225.797 63.288 226.106 63.8V59.16H227.578V71H226.106V69.352C225.818 69.8747 225.392 70.3067 224.826 70.648C224.261 70.9787 223.6 71.144 222.842 71.144C222.064 71.144 221.354 70.952 220.714 70.568C220.085 70.184 219.589 69.6453 219.226 68.952C218.864 68.2587 218.682 67.4693 218.682 66.584ZM226.106 66.6C226.106 65.9387 225.973 65.3627 225.706 64.872C225.44 64.3813 225.077 64.008 224.618 63.752C224.17 63.4853 223.674 63.352 223.13 63.352C222.586 63.352 222.09 63.48 221.642 63.736C221.194 63.992 220.837 64.3653 220.57 64.856C220.304 65.3467 220.17 65.9227 220.17 66.584C220.17 67.256 220.304 67.8427 220.57 68.344C220.837 68.8347 221.194 69.2133 221.642 69.48C222.09 69.736 222.586 69.864 223.13 69.864C223.674 69.864 224.17 69.736 224.618 69.48C225.077 69.2133 225.44 68.8347 225.706 68.344C225.973 67.8427 226.106 67.2613 226.106 66.6ZM238.199 66.28C238.199 66.5573 238.183 66.8507 238.151 67.16H231.143C231.196 68.024 231.49 68.7013 232.023 69.192C232.567 69.672 233.223 69.912 233.991 69.912C234.62 69.912 235.143 69.768 235.559 69.48C235.986 69.1813 236.284 68.7867 236.455 68.296H238.023C237.788 69.1387 237.319 69.8267 236.615 70.36C235.911 70.8827 235.036 71.144 233.991 71.144C233.159 71.144 232.412 70.9573 231.751 70.584C231.1 70.2107 230.588 69.6827 230.215 69C229.842 68.3067 229.655 67.5067 229.655 66.6C229.655 65.6933 229.836 64.8987 230.199 64.216C230.562 63.5333 231.068 63.0107 231.719 62.648C232.38 62.2747 233.138 62.088 233.991 62.088C234.823 62.088 235.559 62.2693 236.199 62.632C236.839 62.9947 237.33 63.496 237.671 64.136C238.023 64.7653 238.199 65.48 238.199 66.28ZM236.695 65.976C236.695 65.4213 236.572 64.9467 236.327 64.552C236.082 64.1467 235.746 63.8427 235.319 63.64C234.903 63.4267 234.439 63.32 233.927 63.32C233.191 63.32 232.562 63.5547 232.039 64.024C231.527 64.4933 231.234 65.144 231.159 65.976H236.695ZM241.737 63.848C242.025 63.3467 242.451 62.9307 243.017 62.6C243.593 62.2587 244.259 62.088 245.017 62.088C245.795 62.088 246.499 62.2747 247.129 62.648C247.769 63.0213 248.27 63.5493 248.633 64.232C248.995 64.904 249.177 65.688 249.177 66.584C249.177 67.4693 248.995 68.2587 248.633 68.952C248.27 69.6453 247.769 70.184 247.129 70.568C246.499 70.952 245.795 71.144 245.017 71.144C244.27 71.144 243.609 70.9787 243.033 70.648C242.467 70.3067 242.035 69.8853 241.737 69.384V75.16H240.281V62.232H241.737V63.848ZM247.689 66.584C247.689 65.9227 247.555 65.3467 247.289 64.856C247.022 64.3653 246.659 63.992 246.201 63.736C245.753 63.48 245.257 63.352 244.713 63.352C244.179 63.352 243.683 63.4853 243.225 63.752C242.777 64.008 242.414 64.3867 242.137 64.888C241.87 65.3787 241.737 65.9493 241.737 66.6C241.737 67.2613 241.87 67.8427 242.137 68.344C242.414 68.8347 242.777 69.2133 243.225 69.48C243.683 69.736 244.179 69.864 244.713 69.864C245.257 69.864 245.753 69.736 246.201 69.48C246.659 69.2133 247.022 68.8347 247.289 68.344C247.555 67.8427 247.689 67.256 247.689 66.584ZM259.253 66.28C259.253 66.5573 259.237 66.8507 259.205 67.16H252.197C252.251 68.024 252.544 68.7013 253.077 69.192C253.621 69.672 254.277 69.912 255.045 69.912C255.675 69.912 256.197 69.768 256.613 69.48C257.04 69.1813 257.339 68.7867 257.509 68.296H259.077C258.843 69.1387 258.373 69.8267 257.669 70.36C256.965 70.8827 256.091 71.144 255.045 71.144C254.213 71.144 253.467 70.9573 252.805 70.584C252.155 70.2107 251.643 69.6827 251.269 69C250.896 68.3067 250.709 67.5067 250.709 66.6C250.709 65.6933 250.891 64.8987 251.253 64.216C251.616 63.5333 252.123 63.0107 252.773 62.648C253.435 62.2747 254.192 62.088 255.045 62.088C255.877 62.088 256.613 62.2693 257.253 62.632C257.893 62.9947 258.384 63.496 258.725 64.136C259.077 64.7653 259.253 65.48 259.253 66.28ZM257.749 65.976C257.749 65.4213 257.627 64.9467 257.381 64.552C257.136 64.1467 256.8 63.8427 256.373 63.64C255.957 63.4267 255.493 63.32 254.981 63.32C254.245 63.32 253.616 63.5547 253.093 64.024C252.581 64.4933 252.288 65.144 252.213 65.976H257.749ZM265.607 62.072C266.674 62.072 267.538 62.3973 268.199 63.048C268.86 63.688 269.191 64.616 269.191 65.832V71H267.751V66.04C267.751 65.1653 267.532 64.4987 267.095 64.04C266.658 63.5707 266.06 63.336 265.303 63.336C264.535 63.336 263.922 63.576 263.463 64.056C263.015 64.536 262.791 65.2347 262.791 66.152V71H261.335V62.232H262.791V63.48C263.079 63.032 263.468 62.6853 263.959 62.44C264.46 62.1947 265.01 62.072 265.607 62.072ZM271.185 66.584C271.185 65.688 271.367 64.904 271.729 64.232C272.092 63.5493 272.588 63.0213 273.217 62.648C273.857 62.2747 274.572 62.088 275.361 62.088C276.044 62.088 276.679 62.248 277.265 62.568C277.852 62.8773 278.3 63.288 278.609 63.8V59.16H280.081V71H278.609V69.352C278.321 69.8747 277.895 70.3067 277.329 70.648C276.764 70.9787 276.103 71.144 275.345 71.144C274.567 71.144 273.857 70.952 273.217 70.568C272.588 70.184 272.092 69.6453 271.729 68.952C271.367 68.2587 271.185 67.4693 271.185 66.584ZM278.609 66.6C278.609 65.9387 278.476 65.3627 278.209 64.872C277.943 64.3813 277.58 64.008 277.121 63.752C276.673 63.4853 276.177 63.352 275.633 63.352C275.089 63.352 274.593 63.48 274.145 63.736C273.697 63.992 273.34 64.3653 273.073 64.856C272.807 65.3467 272.673 65.9227 272.673 66.584C272.673 67.256 272.807 67.8427 273.073 68.344C273.34 68.8347 273.697 69.2133 274.145 69.48C274.593 69.736 275.089 69.864 275.633 69.864C276.177 69.864 276.673 69.736 277.121 69.48C277.58 69.2133 277.943 68.8347 278.209 68.344C278.476 67.8427 278.609 67.2613 278.609 66.6ZM282.158 66.584C282.158 65.688 282.339 64.904 282.702 64.232C283.065 63.5493 283.561 63.0213 284.19 62.648C284.83 62.2747 285.539 62.088 286.318 62.088C287.086 62.088 287.753 62.2533 288.318 62.584C288.883 62.9147 289.305 63.3307 289.582 63.832V62.232H291.054V71H289.582V69.368C289.294 69.88 288.862 70.3067 288.286 70.648C287.721 70.9787 287.059 71.144 286.302 71.144C285.523 71.144 284.819 70.952 284.19 70.568C283.561 70.184 283.065 69.6453 282.702 68.952C282.339 68.2587 282.158 67.4693 282.158 66.584ZM289.582 66.6C289.582 65.9387 289.449 65.3627 289.182 64.872C288.915 64.3813 288.553 64.008 288.094 63.752C287.646 63.4853 287.15 63.352 286.606 63.352C286.062 63.352 285.566 63.48 285.118 63.736C284.67 63.992 284.313 64.3653 284.046 64.856C283.779 65.3467 283.646 65.9227 283.646 66.584C283.646 67.256 283.779 67.8427 284.046 68.344C284.313 68.8347 284.67 69.2133 285.118 69.48C285.566 69.736 286.062 69.864 286.606 69.864C287.15 69.864 287.646 69.736 288.094 69.48C288.553 69.2133 288.915 68.8347 289.182 68.344C289.449 67.8427 289.582 67.2613 289.582 66.6ZM297.947 62.072C299.013 62.072 299.877 62.3973 300.539 63.048C301.2 63.688 301.531 64.616 301.531 65.832V71H300.091V66.04C300.091 65.1653 299.872 64.4987 299.435 64.04C298.997 63.5707 298.4 63.336 297.643 63.336C296.875 63.336 296.261 63.576 295.803 64.056C295.355 64.536 295.131 65.2347 295.131 66.152V71H293.675V62.232H295.131V63.48C295.419 63.032 295.808 62.6853 296.299 62.44C296.8 62.1947 297.349 62.072 297.947 62.072ZM305.845 63.432V68.6C305.845 69.0267 305.936 69.3307 306.117 69.512C306.298 69.6827 306.613 69.768 307.061 69.768H308.133V71H306.821C306.01 71 305.402 70.8133 304.997 70.44C304.592 70.0667 304.389 69.4533 304.389 68.6V63.432H303.253V62.232H304.389V60.024H305.845V62.232H308.133V63.432H305.845ZM315.939 63.864C316.237 63.3413 316.675 62.9147 317.251 62.584C317.827 62.2533 318.483 62.088 319.219 62.088C320.008 62.088 320.717 62.2747 321.347 62.648C321.976 63.0213 322.472 63.5493 322.835 64.232C323.197 64.904 323.379 65.688 323.379 66.584C323.379 67.4693 323.197 68.2587 322.835 68.952C322.472 69.6453 321.971 70.184 321.331 70.568C320.701 70.952 319.997 71.144 319.219 71.144C318.461 71.144 317.795 70.9787 317.219 70.648C316.653 70.3173 316.227 69.896 315.939 69.384V71H314.483V59.16H315.939V63.864ZM321.891 66.584C321.891 65.9227 321.757 65.3467 321.491 64.856C321.224 64.3653 320.861 63.992 320.403 63.736C319.955 63.48 319.459 63.352 318.915 63.352C318.381 63.352 317.885 63.4853 317.427 63.752C316.979 64.008 316.616 64.3867 316.339 64.888C316.072 65.3787 315.939 65.9493 315.939 66.6C315.939 67.2613 316.072 67.8427 316.339 68.344C316.616 68.8347 316.979 69.2133 317.427 69.48C317.885 69.736 318.381 69.864 318.915 69.864C319.459 69.864 319.955 69.736 320.403 69.48C320.861 69.2133 321.224 68.8347 321.491 68.344C321.757 67.8427 321.891 67.256 321.891 66.584ZM333.231 62.232V71H331.775V69.704C331.498 70.152 331.108 70.504 330.607 70.76C330.116 71.0053 329.572 71.128 328.975 71.128C328.292 71.128 327.679 70.9893 327.135 70.712C326.591 70.424 326.159 69.9973 325.839 69.432C325.53 68.8667 325.375 68.1787 325.375 67.368V62.232H326.815V67.176C326.815 68.04 327.034 68.7067 327.471 69.176C327.908 69.6347 328.506 69.864 329.263 69.864C330.042 69.864 330.655 69.624 331.103 69.144C331.551 68.664 331.775 67.9653 331.775 67.048V62.232H333.231ZM338.953 71.144C338.281 71.144 337.679 71.032 337.145 70.808C336.612 70.5733 336.191 70.2533 335.881 69.848C335.572 69.432 335.401 68.9573 335.369 68.424H336.873C336.916 68.8613 337.119 69.2187 337.481 69.496C337.855 69.7733 338.34 69.912 338.937 69.912C339.492 69.912 339.929 69.7893 340.249 69.544C340.569 69.2987 340.729 68.9893 340.729 68.616C340.729 68.232 340.559 67.9493 340.217 67.768C339.876 67.576 339.348 67.3893 338.633 67.208C337.983 67.0373 337.449 66.8667 337.033 66.696C336.628 66.5147 336.276 66.2533 335.977 65.912C335.689 65.56 335.545 65.1013 335.545 64.536C335.545 64.088 335.679 63.6773 335.945 63.304C336.212 62.9307 336.591 62.6373 337.081 62.424C337.572 62.2 338.132 62.088 338.761 62.088C339.732 62.088 340.516 62.3333 341.113 62.824C341.711 63.3147 342.031 63.9867 342.073 64.84H340.617C340.585 64.3813 340.399 64.0133 340.057 63.736C339.727 63.4587 339.279 63.32 338.713 63.32C338.191 63.32 337.775 63.432 337.465 63.656C337.156 63.88 337.001 64.1733 337.001 64.536C337.001 64.824 337.092 65.064 337.273 65.256C337.465 65.4373 337.7 65.5867 337.977 65.704C338.265 65.8107 338.66 65.9333 339.161 66.072C339.791 66.2427 340.303 66.4133 340.697 66.584C341.092 66.744 341.428 66.9893 341.705 67.32C341.993 67.6507 342.143 68.0827 342.153 68.616C342.153 69.096 342.02 69.528 341.753 69.912C341.487 70.296 341.108 70.6 340.617 70.824C340.137 71.0373 339.583 71.144 338.953 71.144ZM345.121 60.808C344.844 60.808 344.609 60.712 344.417 60.52C344.225 60.328 344.129 60.0933 344.129 59.816C344.129 59.5387 344.225 59.304 344.417 59.112C344.609 58.92 344.844 58.824 345.121 58.824C345.388 58.824 345.612 58.92 345.793 59.112C345.985 59.304 346.081 59.5387 346.081 59.816C346.081 60.0933 345.985 60.328 345.793 60.52C345.612 60.712 345.388 60.808 345.121 60.808ZM345.825 62.232V71H344.369V62.232H345.825ZM352.738 62.072C353.805 62.072 354.669 62.3973 355.33 63.048C355.992 63.688 356.322 64.616 356.322 65.832V71H354.882V66.04C354.882 65.1653 354.664 64.4987 354.226 64.04C353.789 63.5707 353.192 63.336 352.434 63.336C351.666 63.336 351.053 63.576 350.594 64.056C350.146 64.536 349.922 65.2347 349.922 66.152V71H348.466V62.232H349.922V63.48C350.21 63.032 350.6 62.6853 351.09 62.44C351.592 62.1947 352.141 62.072 352.738 62.072ZM366.861 66.28C366.861 66.5573 366.845 66.8507 366.813 67.16H359.805C359.858 68.024 360.151 68.7013 360.685 69.192C361.229 69.672 361.885 69.912 362.653 69.912C363.282 69.912 363.805 69.768 364.221 69.48C364.647 69.1813 364.946 68.7867 365.117 68.296H366.685C366.45 69.1387 365.981 69.8267 365.277 70.36C364.573 70.8827 363.698 71.144 362.653 71.144C361.821 71.144 361.074 70.9573 360.413 70.584C359.762 70.2107 359.25 69.6827 358.877 69C358.503 68.3067 358.317 67.5067 358.317 66.6C358.317 65.6933 358.498 64.8987 358.861 64.216C359.223 63.5333 359.73 63.0107 360.381 62.648C361.042 62.2747 361.799 62.088 362.653 62.088C363.485 62.088 364.221 62.2693 364.861 62.632C365.501 62.9947 365.991 63.496 366.333 64.136C366.685 64.7653 366.861 65.48 366.861 66.28ZM365.357 65.976C365.357 65.4213 365.234 64.9467 364.989 64.552C364.743 64.1467 364.407 63.8427 363.981 63.64C363.565 63.4267 363.101 63.32 362.589 63.32C361.853 63.32 361.223 63.5547 360.701 64.024C360.189 64.4933 359.895 65.144 359.821 65.976H365.357ZM372.047 71.144C371.375 71.144 370.772 71.032 370.239 70.808C369.705 70.5733 369.284 70.2533 368.975 69.848C368.665 69.432 368.495 68.9573 368.463 68.424H369.967C370.009 68.8613 370.212 69.2187 370.575 69.496C370.948 69.7733 371.433 69.912 372.031 69.912C372.585 69.912 373.023 69.7893 373.343 69.544C373.663 69.2987 373.823 68.9893 373.823 68.616C373.823 68.232 373.652 67.9493 373.311 67.768C372.969 67.576 372.441 67.3893 371.727 67.208C371.076 67.0373 370.543 66.8667 370.127 66.696C369.721 66.5147 369.369 66.2533 369.071 65.912C368.783 65.56 368.639 65.1013 368.639 64.536C368.639 64.088 368.772 63.6773 369.039 63.304C369.305 62.9307 369.684 62.6373 370.175 62.424C370.665 62.2 371.225 62.088 371.855 62.088C372.825 62.088 373.609 62.3333 374.207 62.824C374.804 63.3147 375.124 63.9867 375.167 64.84H373.711C373.679 64.3813 373.492 64.0133 373.151 63.736C372.82 63.4587 372.372 63.32 371.807 63.32C371.284 63.32 370.868 63.432 370.559 63.656C370.249 63.88 370.095 64.1733 370.095 64.536C370.095 64.824 370.185 65.064 370.367 65.256C370.559 65.4373 370.793 65.5867 371.071 65.704C371.359 65.8107 371.753 65.9333 372.255 66.072C372.884 66.2427 373.396 66.4133 373.791 66.584C374.185 66.744 374.521 66.9893 374.799 67.32C375.087 67.6507 375.236 68.0827 375.247 68.616C375.247 69.096 375.113 69.528 374.847 69.912C374.58 70.296 374.201 70.6 373.711 70.824C373.231 71.0373 372.676 71.144 372.047 71.144ZM380.566 71.144C379.894 71.144 379.291 71.032 378.758 70.808C378.225 70.5733 377.803 70.2533 377.494 69.848C377.185 69.432 377.014 68.9573 376.982 68.424H378.486C378.529 68.8613 378.731 69.2187 379.094 69.496C379.467 69.7733 379.953 69.912 380.55 69.912C381.105 69.912 381.542 69.7893 381.862 69.544C382.182 69.2987 382.342 68.9893 382.342 68.616C382.342 68.232 382.171 67.9493 381.83 67.768C381.489 67.576 380.961 67.3893 380.246 67.208C379.595 67.0373 379.062 66.8667 378.646 66.696C378.241 66.5147 377.889 66.2533 377.59 65.912C377.302 65.56 377.158 65.1013 377.158 64.536C377.158 64.088 377.291 63.6773 377.558 63.304C377.825 62.9307 378.203 62.6373 378.694 62.424C379.185 62.2 379.745 62.088 380.374 62.088C381.345 62.088 382.129 62.3333 382.726 62.824C383.323 63.3147 383.643 63.9867 383.686 64.84H382.23C382.198 64.3813 382.011 64.0133 381.67 63.736C381.339 63.4587 380.891 63.32 380.326 63.32C379.803 63.32 379.387 63.432 379.078 63.656C378.769 63.88 378.614 64.1733 378.614 64.536C378.614 64.824 378.705 65.064 378.886 65.256C379.078 65.4373 379.313 65.5867 379.59 65.704C379.878 65.8107 380.273 65.9333 380.774 66.072C381.403 66.2427 381.915 66.4133 382.31 66.584C382.705 66.744 383.041 66.9893 383.318 67.32C383.606 67.6507 383.755 68.0827 383.766 68.616C383.766 69.096 383.633 69.528 383.366 69.912C383.099 70.296 382.721 70.6 382.23 70.824C381.75 71.0373 381.195 71.144 380.566 71.144ZM393.511 71.144C392.839 71.144 392.236 71.032 391.703 70.808C391.17 70.5733 390.748 70.2533 390.439 69.848C390.13 69.432 389.959 68.9573 389.927 68.424H391.431C391.474 68.8613 391.676 69.2187 392.039 69.496C392.412 69.7733 392.898 69.912 393.495 69.912C394.05 69.912 394.487 69.7893 394.807 69.544C395.127 69.2987 395.287 68.9893 395.287 68.616C395.287 68.232 395.116 67.9493 394.775 67.768C394.434 67.576 393.906 67.3893 393.191 67.208C392.54 67.0373 392.007 66.8667 391.591 66.696C391.186 66.5147 390.834 66.2533 390.535 65.912C390.247 65.56 390.103 65.1013 390.103 64.536C390.103 64.088 390.236 63.6773 390.503 63.304C390.77 62.9307 391.148 62.6373 391.639 62.424C392.13 62.2 392.69 62.088 393.319 62.088C394.29 62.088 395.074 62.3333 395.671 62.824C396.268 63.3147 396.588 63.9867 396.631 64.84H395.175C395.143 64.3813 394.956 64.0133 394.615 63.736C394.284 63.4587 393.836 63.32 393.271 63.32C392.748 63.32 392.332 63.432 392.023 63.656C391.714 63.88 391.559 64.1733 391.559 64.536C391.559 64.824 391.65 65.064 391.831 65.256C392.023 65.4373 392.258 65.5867 392.535 65.704C392.823 65.8107 393.218 65.9333 393.719 66.072C394.348 66.2427 394.86 66.4133 395.255 66.584C395.65 66.744 395.986 66.9893 396.263 67.32C396.551 67.6507 396.7 68.0827 396.711 68.616C396.711 69.096 396.578 69.528 396.311 69.912C396.044 70.296 395.666 70.6 395.175 70.824C394.695 71.0373 394.14 71.144 393.511 71.144ZM402.75 71.144C401.929 71.144 401.182 70.9573 400.51 70.584C399.849 70.2107 399.326 69.6827 398.942 69C398.569 68.3067 398.382 67.5067 398.382 66.6C398.382 65.704 398.574 64.9147 398.958 64.232C399.353 63.5387 399.886 63.0107 400.558 62.648C401.23 62.2747 401.982 62.088 402.814 62.088C403.646 62.088 404.398 62.2747 405.07 62.648C405.742 63.0107 406.27 63.5333 406.654 64.216C407.049 64.8987 407.246 65.6933 407.246 66.6C407.246 67.5067 407.044 68.3067 406.638 69C406.244 69.6827 405.705 70.2107 405.022 70.584C404.34 70.9573 403.582 71.144 402.75 71.144ZM402.75 69.864C403.273 69.864 403.764 69.7413 404.222 69.496C404.681 69.2507 405.049 68.8827 405.326 68.392C405.614 67.9013 405.758 67.304 405.758 66.6C405.758 65.896 405.62 65.2987 405.342 64.808C405.065 64.3173 404.702 63.9547 404.254 63.72C403.806 63.4747 403.321 63.352 402.798 63.352C402.265 63.352 401.774 63.4747 401.326 63.72C400.889 63.9547 400.537 64.3173 400.27 64.808C400.004 65.2987 399.87 65.896 399.87 66.6C399.87 67.3147 399.998 67.9173 400.254 68.408C400.521 68.8987 400.873 69.2667 401.31 69.512C401.748 69.7467 402.228 69.864 402.75 69.864ZM410.777 59.16V71H409.321V59.16H410.777ZM421.194 62.232V71H419.738V69.704C419.461 70.152 419.072 70.504 418.57 70.76C418.08 71.0053 417.536 71.128 416.938 71.128C416.256 71.128 415.642 70.9893 415.098 70.712C414.554 70.424 414.122 69.9973 413.802 69.432C413.493 68.8667 413.338 68.1787 413.338 67.368V62.232H414.778V67.176C414.778 68.04 414.997 68.7067 415.434 69.176C415.872 69.6347 416.469 69.864 417.226 69.864C418.005 69.864 418.618 69.624 419.066 69.144C419.514 68.664 419.738 67.9653 419.738 67.048V62.232H421.194ZM425.589 63.432V68.6C425.589 69.0267 425.679 69.3307 425.861 69.512C426.042 69.6827 426.357 69.768 426.805 69.768H427.877V71H426.565C425.754 71 425.146 70.8133 424.741 70.44C424.335 70.0667 424.133 69.4533 424.133 68.6V63.432H422.997V62.232H424.133V60.024H425.589V62.232H427.877V63.432H425.589ZM430.553 60.808C430.275 60.808 430.041 60.712 429.849 60.52C429.657 60.328 429.561 60.0933 429.561 59.816C429.561 59.5387 429.657 59.304 429.849 59.112C430.041 58.92 430.275 58.824 430.553 58.824C430.819 58.824 431.043 58.92 431.225 59.112C431.417 59.304 431.513 59.5387 431.513 59.816C431.513 60.0933 431.417 60.328 431.225 60.52C431.043 60.712 430.819 60.808 430.553 60.808ZM431.257 62.232V71H429.801V62.232H431.257ZM437.722 71.144C436.901 71.144 436.154 70.9573 435.482 70.584C434.821 70.2107 434.298 69.6827 433.914 69C433.541 68.3067 433.354 67.5067 433.354 66.6C433.354 65.704 433.546 64.9147 433.93 64.232C434.325 63.5387 434.858 63.0107 435.53 62.648C436.202 62.2747 436.954 62.088 437.786 62.088C438.618 62.088 439.37 62.2747 440.042 62.648C440.714 63.0107 441.242 63.5333 441.626 64.216C442.021 64.8987 442.218 65.6933 442.218 66.6C442.218 67.5067 442.016 68.3067 441.61 69C441.216 69.6827 440.677 70.2107 439.994 70.584C439.312 70.9573 438.554 71.144 437.722 71.144ZM437.722 69.864C438.245 69.864 438.736 69.7413 439.194 69.496C439.653 69.2507 440.021 68.8827 440.298 68.392C440.586 67.9013 440.73 67.304 440.73 66.6C440.73 65.896 440.592 65.2987 440.314 64.808C440.037 64.3173 439.674 63.9547 439.226 63.72C438.778 63.4747 438.293 63.352 437.77 63.352C437.237 63.352 436.746 63.4747 436.298 63.72C435.861 63.9547 435.509 64.3173 435.242 64.808C434.976 65.2987 434.842 65.896 434.842 66.6C434.842 67.3147 434.97 67.9173 435.226 68.408C435.493 68.8987 435.845 69.2667 436.282 69.512C436.72 69.7467 437.2 69.864 437.722 69.864ZM448.565 62.072C449.631 62.072 450.495 62.3973 451.157 63.048C451.818 63.688 452.149 64.616 452.149 65.832V71H450.709V66.04C450.709 65.1653 450.49 64.4987 450.053 64.04C449.615 63.5707 449.018 63.336 448.261 63.336C447.493 63.336 446.879 63.576 446.421 64.056C445.973 64.536 445.749 65.2347 445.749 66.152V71H444.293V62.232H445.749V63.48C446.037 63.032 446.426 62.6853 446.917 62.44C447.418 62.1947 447.967 62.072 448.565 62.072ZM457.791 71.144C457.119 71.144 456.516 71.032 455.983 70.808C455.45 70.5733 455.028 70.2533 454.719 69.848C454.41 69.432 454.239 68.9573 454.207 68.424H455.711C455.754 68.8613 455.956 69.2187 456.319 69.496C456.692 69.7733 457.178 69.912 457.775 69.912C458.33 69.912 458.767 69.7893 459.087 69.544C459.407 69.2987 459.567 68.9893 459.567 68.616C459.567 68.232 459.396 67.9493 459.055 67.768C458.714 67.576 458.186 67.3893 457.471 67.208C456.82 67.0373 456.287 66.8667 455.871 66.696C455.466 66.5147 455.114 66.2533 454.815 65.912C454.527 65.56 454.383 65.1013 454.383 64.536C454.383 64.088 454.516 63.6773 454.783 63.304C455.05 62.9307 455.428 62.6373 455.919 62.424C456.41 62.2 456.97 62.088 457.599 62.088C458.57 62.088 459.354 62.3333 459.951 62.824C460.548 63.3147 460.868 63.9867 460.911 64.84H459.455C459.423 64.3813 459.236 64.0133 458.895 63.736C458.564 63.4587 458.116 63.32 457.551 63.32C457.028 63.32 456.612 63.432 456.303 63.656C455.994 63.88 455.839 64.1733 455.839 64.536C455.839 64.824 455.93 65.064 456.111 65.256C456.303 65.4373 456.538 65.5867 456.815 65.704C457.103 65.8107 457.498 65.9333 457.999 66.072C458.628 66.2427 459.14 66.4133 459.535 66.584C459.93 66.744 460.266 66.9893 460.543 67.32C460.831 67.6507 460.98 68.0827 460.991 68.616C460.991 69.096 460.858 69.528 460.591 69.912C460.324 70.296 459.946 70.6 459.455 70.824C458.975 71.0373 458.42 71.144 457.791 71.144ZM134.8 91.432H132.96V99H131.504V91.432H130.368V90.232H131.504V89.608C131.504 88.6267 131.755 87.912 132.256 87.464C132.768 87.0053 133.584 86.776 134.704 86.776V87.992C134.064 87.992 133.611 88.12 133.344 88.376C133.088 88.6213 132.96 89.032 132.96 89.608V90.232H134.8V91.432ZM140.482 99.144C139.66 99.144 138.914 98.9573 138.242 98.584C137.58 98.2107 137.058 97.6827 136.674 97C136.3 96.3067 136.114 95.5067 136.114 94.6C136.114 93.704 136.306 92.9147 136.69 92.232C137.084 91.5387 137.618 91.0107 138.29 90.648C138.962 90.2747 139.714 90.088 140.546 90.088C141.378 90.088 142.13 90.2747 142.802 90.648C143.474 91.0107 144.002 91.5333 144.386 92.216C144.78 92.8987 144.978 93.6933 144.978 94.6C144.978 95.5067 144.775 96.3067 144.37 97C143.975 97.6827 143.436 98.2107 142.754 98.584C142.071 98.9573 141.314 99.144 140.482 99.144ZM140.482 97.864C141.004 97.864 141.495 97.7413 141.954 97.496C142.412 97.2507 142.78 96.8827 143.058 96.392C143.346 95.9013 143.49 95.304 143.49 94.6C143.49 93.896 143.351 93.2987 143.074 92.808C142.796 92.3173 142.434 91.9547 141.986 91.72C141.538 91.4747 141.052 91.352 140.53 91.352C139.996 91.352 139.506 91.4747 139.058 91.72C138.62 91.9547 138.268 92.3173 138.002 92.808C137.735 93.2987 137.602 93.896 137.602 94.6C137.602 95.3147 137.73 95.9173 137.986 96.408C138.252 96.8987 138.604 97.2667 139.042 97.512C139.479 97.7467 139.959 97.864 140.482 97.864ZM148.508 91.656C148.764 91.1547 149.127 90.7653 149.596 90.488C150.076 90.2107 150.657 90.072 151.34 90.072V91.576H150.956C149.324 91.576 148.508 92.4613 148.508 94.232V99H147.052V90.232H148.508V91.656ZM168.15 90.072C168.833 90.072 169.441 90.216 169.974 90.504C170.508 90.7813 170.929 91.2027 171.238 91.768C171.548 92.3333 171.702 93.0213 171.702 93.832V99H170.262V94.04C170.262 93.1653 170.044 92.4987 169.606 92.04C169.18 91.5707 168.598 91.336 167.862 91.336C167.105 91.336 166.502 91.5813 166.054 92.072C165.606 92.552 165.382 93.2507 165.382 94.168V99H163.942V94.04C163.942 93.1653 163.724 92.4987 163.286 92.04C162.86 91.5707 162.278 91.336 161.542 91.336C160.785 91.336 160.182 91.5813 159.734 92.072C159.286 92.552 159.062 93.2507 159.062 94.168V99H157.606V90.232H159.062V91.496C159.35 91.0373 159.734 90.6853 160.214 90.44C160.705 90.1947 161.244 90.072 161.83 90.072C162.566 90.072 163.217 90.2373 163.782 90.568C164.348 90.8987 164.769 91.384 165.046 92.024C165.292 91.4053 165.697 90.9253 166.262 90.584C166.828 90.2427 167.457 90.072 168.15 90.072ZM173.707 94.584C173.707 93.688 173.888 92.904 174.251 92.232C174.613 91.5493 175.109 91.0213 175.739 90.648C176.379 90.2747 177.088 90.088 177.867 90.088C178.635 90.088 179.301 90.2533 179.867 90.584C180.432 90.9147 180.853 91.3307 181.131 91.832V90.232H182.603V99H181.131V97.368C180.843 97.88 180.411 98.3067 179.835 98.648C179.269 98.9787 178.608 99.144 177.851 99.144C177.072 99.144 176.368 98.952 175.739 98.568C175.109 98.184 174.613 97.6453 174.251 96.952C173.888 96.2587 173.707 95.4693 173.707 94.584ZM181.131 94.6C181.131 93.9387 180.997 93.3627 180.731 92.872C180.464 92.3813 180.101 92.008 179.643 91.752C179.195 91.4853 178.699 91.352 178.155 91.352C177.611 91.352 177.115 91.48 176.667 91.736C176.219 91.992 175.861 92.3653 175.595 92.856C175.328 93.3467 175.195 93.9227 175.195 94.584C175.195 95.256 175.328 95.8427 175.595 96.344C175.861 96.8347 176.219 97.2133 176.667 97.48C177.115 97.736 177.611 97.864 178.155 97.864C178.699 97.864 179.195 97.736 179.643 97.48C180.101 97.2133 180.464 96.8347 180.731 96.344C180.997 95.8427 181.131 95.2613 181.131 94.6ZM189.799 99L187.719 95.736L185.719 99H184.199L187.031 94.648L184.199 90.232H185.847L187.927 93.48L189.911 90.232H191.431L188.615 94.568L191.447 99H189.799ZM193.791 88.808C193.514 88.808 193.279 88.712 193.087 88.52C192.895 88.328 192.799 88.0933 192.799 87.816C192.799 87.5387 192.895 87.304 193.087 87.112C193.279 86.92 193.514 86.824 193.791 86.824C194.058 86.824 194.282 86.92 194.463 87.112C194.655 87.304 194.751 87.5387 194.751 87.816C194.751 88.0933 194.655 88.328 194.463 88.52C194.282 88.712 194.058 88.808 193.791 88.808ZM194.495 90.232V99H193.039V90.232H194.495ZM207.681 90.072C208.364 90.072 208.972 90.216 209.505 90.504C210.038 90.7813 210.46 91.2027 210.769 91.768C211.078 92.3333 211.233 93.0213 211.233 93.832V99H209.793V94.04C209.793 93.1653 209.574 92.4987 209.137 92.04C208.71 91.5707 208.129 91.336 207.393 91.336C206.636 91.336 206.033 91.5813 205.585 92.072C205.137 92.552 204.913 93.2507 204.913 94.168V99H203.473V94.04C203.473 93.1653 203.254 92.4987 202.817 92.04C202.39 91.5707 201.809 91.336 201.073 91.336C200.316 91.336 199.713 91.5813 199.265 92.072C198.817 92.552 198.593 93.2507 198.593 94.168V99H197.137V90.232H198.593V91.496C198.881 91.0373 199.265 90.6853 199.745 90.44C200.236 90.1947 200.774 90.072 201.361 90.072C202.097 90.072 202.748 90.2373 203.313 90.568C203.878 90.8987 204.3 91.384 204.577 92.024C204.822 91.4053 205.228 90.9253 205.793 90.584C206.358 90.2427 206.988 90.072 207.681 90.072ZM221.557 90.232V99H220.101V97.704C219.824 98.152 219.435 98.504 218.933 98.76C218.443 99.0053 217.899 99.128 217.301 99.128C216.619 99.128 216.005 98.9893 215.461 98.712C214.917 98.424 214.485 97.9973 214.165 97.432C213.856 96.8667 213.701 96.1787 213.701 95.368V90.232H215.141V95.176C215.141 96.04 215.36 96.7067 215.797 97.176C216.235 97.6347 216.832 97.864 217.589 97.864C218.368 97.864 218.981 97.624 219.429 97.144C219.877 96.664 220.101 95.9653 220.101 95.048V90.232H221.557ZM234.72 90.072C235.402 90.072 236.01 90.216 236.544 90.504C237.077 90.7813 237.498 91.2027 237.808 91.768C238.117 92.3333 238.272 93.0213 238.272 93.832V99H236.832V94.04C236.832 93.1653 236.613 92.4987 236.176 92.04C235.749 91.5707 235.168 91.336 234.432 91.336C233.674 91.336 233.072 91.5813 232.624 92.072C232.176 92.552 231.952 93.2507 231.952 94.168V99H230.512V94.04C230.512 93.1653 230.293 92.4987 229.856 92.04C229.429 91.5707 228.848 91.336 228.112 91.336C227.354 91.336 226.752 91.5813 226.304 92.072C225.856 92.552 225.632 93.2507 225.632 94.168V99H224.176V90.232H225.632V91.496C225.92 91.0373 226.304 90.6853 226.784 90.44C227.274 90.1947 227.813 90.072 228.4 90.072C229.136 90.072 229.786 90.2373 230.352 90.568C230.917 90.8987 231.338 91.384 231.616 92.024C231.861 91.4053 232.266 90.9253 232.832 90.584C233.397 90.2427 234.026 90.072 234.72 90.072ZM244.702 94.584C244.702 93.688 244.883 92.904 245.246 92.232C245.608 91.5493 246.104 91.0213 246.734 90.648C247.374 90.2747 248.083 90.088 248.862 90.088C249.63 90.088 250.296 90.2533 250.862 90.584C251.427 90.9147 251.848 91.3307 252.126 91.832V90.232H253.598V99H252.126V97.368C251.838 97.88 251.406 98.3067 250.83 98.648C250.264 98.9787 249.603 99.144 248.846 99.144C248.067 99.144 247.363 98.952 246.734 98.568C246.104 98.184 245.608 97.6453 245.246 96.952C244.883 96.2587 244.702 95.4693 244.702 94.584ZM252.126 94.6C252.126 93.9387 251.992 93.3627 251.726 92.872C251.459 92.3813 251.096 92.008 250.638 91.752C250.19 91.4853 249.694 91.352 249.15 91.352C248.606 91.352 248.11 91.48 247.662 91.736C247.214 91.992 246.856 92.3653 246.59 92.856C246.323 93.3467 246.19 93.9227 246.19 94.584C246.19 95.256 246.323 95.8427 246.59 96.344C246.856 96.8347 247.214 97.2133 247.662 97.48C248.11 97.736 248.606 97.864 249.15 97.864C249.694 97.864 250.19 97.736 250.638 97.48C251.096 97.2133 251.459 96.8347 251.726 96.344C251.992 95.8427 252.126 95.2613 252.126 94.6ZM259.482 97.656L262.202 90.232H263.754L260.314 99H258.618L255.178 90.232H256.746L259.482 97.656ZM264.803 94.584C264.803 93.688 264.984 92.904 265.347 92.232C265.71 91.5493 266.206 91.0213 266.835 90.648C267.475 90.2747 268.184 90.088 268.963 90.088C269.731 90.088 270.398 90.2533 270.963 90.584C271.528 90.9147 271.95 91.3307 272.227 91.832V90.232H273.699V99H272.227V97.368C271.939 97.88 271.507 98.3067 270.931 98.648C270.366 98.9787 269.704 99.144 268.947 99.144C268.168 99.144 267.464 98.952 266.835 98.568C266.206 98.184 265.71 97.6453 265.347 96.952C264.984 96.2587 264.803 95.4693 264.803 94.584ZM272.227 94.6C272.227 93.9387 272.094 93.3627 271.827 92.872C271.56 92.3813 271.198 92.008 270.739 91.752C270.291 91.4853 269.795 91.352 269.251 91.352C268.707 91.352 268.211 91.48 267.763 91.736C267.315 91.992 266.958 92.3653 266.691 92.856C266.424 93.3467 266.291 93.9227 266.291 94.584C266.291 95.256 266.424 95.8427 266.691 96.344C266.958 96.8347 267.315 97.2133 267.763 97.48C268.211 97.736 268.707 97.864 269.251 97.864C269.795 97.864 270.291 97.736 270.739 97.48C271.198 97.2133 271.56 96.8347 271.827 96.344C272.094 95.8427 272.227 95.2613 272.227 94.6ZM277.071 88.808C276.794 88.808 276.559 88.712 276.367 88.52C276.175 88.328 276.079 88.0933 276.079 87.816C276.079 87.5387 276.175 87.304 276.367 87.112C276.559 86.92 276.794 86.824 277.071 86.824C277.338 86.824 277.562 86.92 277.743 87.112C277.935 87.304 278.031 87.5387 278.031 87.816C278.031 88.0933 277.935 88.328 277.743 88.52C277.562 88.712 277.338 88.808 277.071 88.808ZM277.775 90.232V99H276.319V90.232H277.775ZM281.873 87.16V99H280.417V87.16H281.873ZM283.971 94.584C283.971 93.688 284.152 92.904 284.515 92.232C284.877 91.5493 285.373 91.0213 286.003 90.648C286.643 90.2747 287.352 90.088 288.131 90.088C288.899 90.088 289.565 90.2533 290.131 90.584C290.696 90.9147 291.117 91.3307 291.395 91.832V90.232H292.867V99H291.395V97.368C291.107 97.88 290.675 98.3067 290.099 98.648C289.533 98.9787 288.872 99.144 288.115 99.144C287.336 99.144 286.632 98.952 286.003 98.568C285.373 98.184 284.877 97.6453 284.515 96.952C284.152 96.2587 283.971 95.4693 283.971 94.584ZM291.395 94.6C291.395 93.9387 291.261 93.3627 290.995 92.872C290.728 92.3813 290.365 92.008 289.907 91.752C289.459 91.4853 288.963 91.352 288.419 91.352C287.875 91.352 287.379 91.48 286.931 91.736C286.483 91.992 286.125 92.3653 285.859 92.856C285.592 93.3467 285.459 93.9227 285.459 94.584C285.459 95.256 285.592 95.8427 285.859 96.344C286.125 96.8347 286.483 97.2133 286.931 97.48C287.379 97.736 287.875 97.864 288.419 97.864C288.963 97.864 289.459 97.736 289.907 97.48C290.365 97.2133 290.728 96.8347 290.995 96.344C291.261 95.8427 291.395 95.2613 291.395 94.6ZM296.943 91.864C297.242 91.3413 297.679 90.9147 298.255 90.584C298.831 90.2533 299.487 90.088 300.223 90.088C301.012 90.088 301.722 90.2747 302.351 90.648C302.98 91.0213 303.476 91.5493 303.839 92.232C304.202 92.904 304.383 93.688 304.383 94.584C304.383 95.4693 304.202 96.2587 303.839 96.952C303.476 97.6453 302.975 98.184 302.335 98.568C301.706 98.952 301.002 99.144 300.223 99.144C299.466 99.144 298.799 98.9787 298.223 98.648C297.658 98.3173 297.231 97.896 296.943 97.384V99H295.487V87.16H296.943V91.864ZM302.895 94.584C302.895 93.9227 302.762 93.3467 302.495 92.856C302.228 92.3653 301.866 91.992 301.407 91.736C300.959 91.48 300.463 91.352 299.919 91.352C299.386 91.352 298.89 91.4853 298.431 91.752C297.983 92.008 297.62 92.3867 297.343 92.888C297.076 93.3787 296.943 93.9493 296.943 94.6C296.943 95.2613 297.076 95.8427 297.343 96.344C297.62 96.8347 297.983 97.2133 298.431 97.48C298.89 97.736 299.386 97.864 299.919 97.864C300.463 97.864 300.959 97.736 301.407 97.48C301.866 97.2133 302.228 96.8347 302.495 96.344C302.762 95.8427 302.895 95.256 302.895 94.584ZM307.211 88.808C306.934 88.808 306.699 88.712 306.507 88.52C306.315 88.328 306.219 88.0933 306.219 87.816C306.219 87.5387 306.315 87.304 306.507 87.112C306.699 86.92 306.934 86.824 307.211 86.824C307.478 86.824 307.702 86.92 307.883 87.112C308.075 87.304 308.171 87.5387 308.171 87.816C308.171 88.0933 308.075 88.328 307.883 88.52C307.702 88.712 307.478 88.808 307.211 88.808ZM307.915 90.232V99H306.459V90.232H307.915ZM312.013 87.16V99H310.557V87.16H312.013ZM315.407 88.808C315.129 88.808 314.895 88.712 314.703 88.52C314.511 88.328 314.415 88.0933 314.415 87.816C314.415 87.5387 314.511 87.304 314.703 87.112C314.895 86.92 315.129 86.824 315.407 86.824C315.673 86.824 315.897 86.92 316.079 87.112C316.271 87.304 316.367 87.5387 316.367 87.816C316.367 88.0933 316.271 88.328 316.079 88.52C315.897 88.712 315.673 88.808 315.407 88.808ZM316.111 90.232V99H314.655V90.232H316.111ZM320.528 91.432V96.6C320.528 97.0267 320.619 97.3307 320.8 97.512C320.981 97.6827 321.296 97.768 321.744 97.768H322.816V99H321.504C320.693 99 320.085 98.8133 319.68 98.44C319.275 98.0667 319.072 97.4533 319.072 96.6V91.432H317.936V90.232H319.072V88.024H320.528V90.232H322.816V91.432H320.528ZM332.292 90.232L327.012 103.128H325.508L327.236 98.904L323.7 90.232H325.316L328.068 97.336L330.788 90.232H332.292Z" fill="#797979"/>
<g clip-path="url(#clip0_2_1632)">
<path d="M45.5 31C34.1956 31 25 40.1965 25 51.5C25 62.8035 34.1956 72 45.5 72C56.8044 72 66 62.8035 66 51.5C66 40.1965 56.8044 31 45.5 31ZM45.5 70.2917C35.1382 70.2917 26.7083 61.8618 26.7083 51.5C26.7083 41.1382 35.1382 32.7083 45.5 32.7083C55.8618 32.7083 64.2917 41.1382 64.2917 51.5C64.2917 61.8618 55.8618 70.2917 45.5 70.2917Z" fill="#FF4E4E"/>
<path d="M41.2292 39.5416H36.1042C34.6911 39.5416 33.5417 40.6911 33.5417 42.1041V47.2291C33.5417 48.6422 34.6911 49.7916 36.1042 49.7916H41.2292C42.6422 49.7916 43.7916 48.6422 43.7916 47.2291V42.1041C43.7916 40.6911 42.6422 39.5416 41.2292 39.5416ZM42.0833 47.2291C42.0833 47.7004 41.6995 48.0833 41.2291 48.0833H36.1041C35.6336 48.0833 35.2499 47.7005 35.2499 47.2291V42.1041C35.2499 41.6329 35.6336 41.2499 36.1041 41.2499H41.2291C41.6995 41.2499 42.0833 41.6328 42.0833 42.1041V47.2291Z" fill="#FF4E4E"/>
<path d="M54.8958 39.5416H49.7708C48.3578 39.5416 47.2083 40.6911 47.2083 42.1041V47.2291C47.2083 48.6422 48.3578 49.7916 49.7708 49.7916H54.8958C56.3089 49.7916 57.4583 48.6422 57.4583 47.2291V42.1041C57.4583 40.6911 56.3089 39.5416 54.8958 39.5416ZM55.75 47.2291C55.75 47.7004 55.3663 48.0833 54.8958 48.0833H49.7708C49.3004 48.0833 48.9166 47.7005 48.9166 47.2291V42.1041C48.9166 41.6329 49.3004 41.2499 49.7708 41.2499H54.8958C55.3663 41.2499 55.75 41.6328 55.75 42.1041V47.2291Z" fill="#FF4E4E"/>
<path d="M41.2292 53.2083H36.1042C34.6911 53.2083 33.5417 54.3577 33.5417 55.7708V60.8958C33.5417 62.3088 34.6911 63.4583 36.1042 63.4583H41.2292C42.6422 63.4583 43.7916 62.3088 43.7916 60.8958V55.7708C43.7916 54.3578 42.6422 53.2083 41.2292 53.2083ZM42.0833 60.8958C42.0833 61.367 41.6995 61.7499 41.2291 61.7499H36.1041C35.6336 61.7499 35.2499 61.3671 35.2499 60.8958V55.7708C35.2499 55.2995 35.6336 54.9166 36.1041 54.9166H41.2291C41.6995 54.9166 42.0833 55.2994 42.0833 55.7708V60.8958Z" fill="#FF4E4E"/>
<path d="M54.8958 53.2083H49.7708C48.3578 53.2083 47.2083 54.3577 47.2083 55.7708V60.8958C47.2083 62.3088 48.3578 63.4583 49.7708 63.4583H54.8958C56.3089 63.4583 57.4583 62.3088 57.4583 60.8958V55.7708C57.4583 54.3578 56.3089 53.2083 54.8958 53.2083ZM55.75 60.8958C55.75 61.367 55.3663 61.7499 54.8958 61.7499H49.7708C49.3004 61.7499 48.9166 61.3671 48.9166 60.8958V55.7708C48.9166 55.2995 49.3004 54.9166 49.7708 54.9166H54.8958C55.3663 54.9166 55.75 55.2994 55.75 55.7708V60.8958Z" fill="#FF4E4E"/>
</g>
<defs>
<clipPath id="clip0_2_1632">
<rect width="41" height="41" fill="white" transform="translate(25 31)"/>
</clipPath>
</defs>
</svg>
