<svg width="453" height="105" viewBox="0 0 453 105" fill="none" xmlns="http://www.w3.org/2000/svg">
<rect y="6" width="91" height="90" rx="20" fill="#F1E8FF"/>
<path d="M150.475 13.625V31H147.625V19.1L142.325 31H140.35L135.025 19.1V31H132.175V13.625H135.25L141.35 27.25L147.425 13.625H150.475ZM160.446 31.225C159.146 31.225 157.971 30.9333 156.921 30.35C155.871 29.75 155.046 28.9167 154.446 27.85C153.846 26.7667 153.546 25.5167 153.546 24.1C153.546 22.7 153.854 21.4583 154.471 20.375C155.087 19.2917 155.929 18.4583 156.996 17.875C158.062 17.2917 159.254 17 160.571 17C161.887 17 163.079 17.2917 164.146 17.875C165.212 18.4583 166.054 19.2917 166.671 20.375C167.287 21.4583 167.596 22.7 167.596 24.1C167.596 25.5 167.279 26.7417 166.646 27.825C166.012 28.9083 165.146 29.75 164.046 30.35C162.962 30.9333 161.762 31.225 160.446 31.225ZM160.446 28.75C161.179 28.75 161.862 28.575 162.496 28.225C163.146 27.875 163.671 27.35 164.071 26.65C164.471 25.95 164.671 25.1 164.671 24.1C164.671 23.1 164.479 22.2583 164.096 21.575C163.712 20.875 163.204 20.35 162.571 20C161.937 19.65 161.254 19.475 160.521 19.475C159.787 19.475 159.104 19.65 158.471 20C157.854 20.35 157.362 20.875 156.996 21.575C156.629 22.2583 156.446 23.1 156.446 24.1C156.446 25.5833 156.821 26.7333 157.571 27.55C158.337 28.35 159.296 28.75 160.446 28.75ZM173.513 19.275C173.996 18.6083 174.655 18.0667 175.488 17.65C176.338 17.2167 177.28 17 178.313 17C179.53 17 180.63 17.2917 181.613 17.875C182.596 18.4583 183.371 19.2917 183.938 20.375C184.505 21.4417 184.788 22.6667 184.788 24.05C184.788 25.4333 184.505 26.675 183.938 27.775C183.371 28.8583 182.588 29.7083 181.588 30.325C180.605 30.925 179.513 31.225 178.313 31.225C177.246 31.225 176.296 31.0167 175.463 30.6C174.646 30.1833 173.996 29.65 173.513 29V31H170.663V12.5H173.513V19.275ZM181.888 24.05C181.888 23.1 181.688 22.2833 181.288 21.6C180.905 20.9 180.388 20.375 179.738 20.025C179.105 19.6583 178.421 19.475 177.688 19.475C176.971 19.475 176.288 19.6583 175.638 20.025C175.005 20.3917 174.488 20.925 174.088 21.625C173.705 22.325 173.513 23.15 173.513 24.1C173.513 25.05 173.705 25.8833 174.088 26.6C174.488 27.3 175.005 27.8333 175.638 28.2C176.288 28.5667 176.971 28.75 177.688 28.75C178.421 28.75 179.105 28.5667 179.738 28.2C180.388 27.8167 180.905 27.2667 181.288 26.55C181.688 25.8333 181.888 25 181.888 24.05ZM189.306 15.4C188.79 15.4 188.356 15.225 188.006 14.875C187.656 14.525 187.481 14.0917 187.481 13.575C187.481 13.0583 187.656 12.625 188.006 12.275C188.356 11.925 188.79 11.75 189.306 11.75C189.806 11.75 190.231 11.925 190.581 12.275C190.931 12.625 191.106 13.0583 191.106 13.575C191.106 14.0917 190.931 14.525 190.581 14.875C190.231 15.225 189.806 15.4 189.306 15.4ZM190.706 17.225V31H187.856V17.225H190.706ZM197.548 12.5V31H194.698V12.5H197.548ZM214.165 23.775C214.165 24.2917 214.132 24.7583 214.065 25.175H203.54C203.623 26.275 204.032 27.1583 204.765 27.825C205.498 28.4917 206.398 28.825 207.465 28.825C208.998 28.825 210.082 28.1833 210.715 26.9H213.79C213.373 28.1667 212.615 29.2083 211.515 30.025C210.432 30.825 209.082 31.225 207.465 31.225C206.148 31.225 204.965 30.9333 203.915 30.35C202.882 29.75 202.065 28.9167 201.465 27.85C200.882 26.7667 200.59 25.5167 200.59 24.1C200.59 22.6833 200.873 21.4417 201.44 20.375C202.023 19.2917 202.832 18.4583 203.865 17.875C204.915 17.2917 206.115 17 207.465 17C208.765 17 209.923 17.2833 210.94 17.85C211.957 18.4167 212.748 19.2167 213.315 20.25C213.882 21.2667 214.165 22.4417 214.165 23.775ZM211.19 22.875C211.173 21.825 210.798 20.9833 210.065 20.35C209.332 19.7167 208.423 19.4 207.34 19.4C206.357 19.4 205.515 19.7167 204.815 20.35C204.115 20.9667 203.698 21.8083 203.565 22.875H211.19ZM234.439 27.45H227.164L225.914 31H222.939L229.164 13.6H232.464L238.689 31H235.689L234.439 27.45ZM233.639 25.125L230.814 17.05L227.964 25.125H233.639ZM244.496 19.25C244.979 18.6167 245.637 18.0833 246.471 17.65C247.304 17.2167 248.246 17 249.296 17C250.496 17 251.587 17.3 252.571 17.9C253.571 18.4833 254.354 19.3083 254.921 20.375C255.487 21.4417 255.771 22.6667 255.771 24.05C255.771 25.4333 255.487 26.675 254.921 27.775C254.354 28.8583 253.571 29.7083 252.571 30.325C251.587 30.925 250.496 31.225 249.296 31.225C248.246 31.225 247.312 31.0167 246.496 30.6C245.679 30.1667 245.012 29.6333 244.496 29V37.55H241.646V17.225H244.496V19.25ZM252.871 24.05C252.871 23.1 252.671 22.2833 252.271 21.6C251.887 20.9 251.371 20.375 250.721 20.025C250.087 19.6583 249.404 19.475 248.671 19.475C247.954 19.475 247.271 19.6583 246.621 20.025C245.987 20.3917 245.471 20.925 245.071 21.625C244.687 22.325 244.496 23.15 244.496 24.1C244.496 25.05 244.687 25.8833 245.071 26.6C245.471 27.3 245.987 27.8333 246.621 28.2C247.271 28.5667 247.954 28.75 248.671 28.75C249.404 28.75 250.087 28.5667 250.721 28.2C251.371 27.8167 251.887 27.2667 252.271 26.55C252.671 25.8333 252.871 25 252.871 24.05ZM261.689 19.25C262.172 18.6167 262.831 18.0833 263.664 17.65C264.497 17.2167 265.439 17 266.489 17C267.689 17 268.781 17.3 269.764 17.9C270.764 18.4833 271.547 19.3083 272.114 20.375C272.681 21.4417 272.964 22.6667 272.964 24.05C272.964 25.4333 272.681 26.675 272.114 27.775C271.547 28.8583 270.764 29.7083 269.764 30.325C268.781 30.925 267.689 31.225 266.489 31.225C265.439 31.225 264.506 31.0167 263.689 30.6C262.872 30.1667 262.206 29.6333 261.689 29V37.55H258.839V17.225H261.689V19.25ZM270.064 24.05C270.064 23.1 269.864 22.2833 269.464 21.6C269.081 20.9 268.564 20.375 267.914 20.025C267.281 19.6583 266.597 19.475 265.864 19.475C265.147 19.475 264.464 19.6583 263.814 20.025C263.181 20.3917 262.664 20.925 262.264 21.625C261.881 22.325 261.689 23.15 261.689 24.1C261.689 25.05 261.881 25.8833 262.264 26.6C262.664 27.3 263.181 27.8333 263.814 28.2C264.464 28.5667 265.147 28.75 265.864 28.75C266.597 28.75 267.281 28.5667 267.914 28.2C268.564 27.8167 269.081 27.2667 269.464 26.55C269.864 25.8333 270.064 25 270.064 24.05ZM278.882 12.5V31H276.032V12.5H278.882ZM284.324 15.4C283.807 15.4 283.374 15.225 283.024 14.875C282.674 14.525 282.499 14.0917 282.499 13.575C282.499 13.0583 282.674 12.625 283.024 12.275C283.374 11.925 283.807 11.75 284.324 11.75C284.824 11.75 285.249 11.925 285.599 12.275C285.949 12.625 286.124 13.0583 286.124 13.575C286.124 14.0917 285.949 14.525 285.599 14.875C285.249 15.225 284.824 15.4 284.324 15.4ZM285.724 17.225V31H282.874V17.225H285.724ZM288.766 24.1C288.766 22.6833 289.049 21.4417 289.616 20.375C290.199 19.2917 290.999 18.4583 292.016 17.875C293.032 17.2917 294.199 17 295.516 17C297.182 17 298.557 17.4 299.641 18.2C300.741 18.9833 301.482 20.1083 301.866 21.575H298.791C298.541 20.8917 298.141 20.3583 297.591 19.975C297.041 19.5917 296.349 19.4 295.516 19.4C294.349 19.4 293.416 19.8167 292.716 20.65C292.032 21.4667 291.691 22.6167 291.691 24.1C291.691 25.5833 292.032 26.7417 292.716 27.575C293.416 28.4083 294.349 28.825 295.516 28.825C297.166 28.825 298.257 28.1 298.791 26.65H301.866C301.466 28.05 300.716 29.1667 299.616 30C298.516 30.8167 297.149 31.225 295.516 31.225C294.199 31.225 293.032 30.9333 292.016 30.35C290.999 29.75 290.199 28.9167 289.616 27.85C289.049 26.7667 288.766 25.5167 288.766 24.1ZM304.006 24.05C304.006 22.6667 304.289 21.4417 304.856 20.375C305.439 19.3083 306.223 18.4833 307.206 17.9C308.206 17.3 309.306 17 310.506 17C311.589 17 312.531 17.2167 313.331 17.65C314.148 18.0667 314.798 18.5917 315.281 19.225V17.225H318.156V31H315.281V28.95C314.798 29.6 314.139 30.1417 313.306 30.575C312.473 31.0083 311.523 31.225 310.456 31.225C309.273 31.225 308.189 30.925 307.206 30.325C306.223 29.7083 305.439 28.8583 304.856 27.775C304.289 26.675 304.006 25.4333 304.006 24.05ZM315.281 24.1C315.281 23.15 315.081 22.325 314.681 21.625C314.298 20.925 313.789 20.3917 313.156 20.025C312.523 19.6583 311.839 19.475 311.106 19.475C310.373 19.475 309.689 19.6583 309.056 20.025C308.423 20.375 307.906 20.9 307.506 21.6C307.123 22.2833 306.931 23.1 306.931 24.05C306.931 25 307.123 25.8333 307.506 26.55C307.906 27.2667 308.423 27.8167 309.056 28.2C309.706 28.5667 310.389 28.75 311.106 28.75C311.839 28.75 312.523 28.5667 313.156 28.2C313.789 27.8333 314.298 27.3 314.681 26.6C315.081 25.8833 315.281 25.05 315.281 24.1ZM325.474 19.55V27.175C325.474 27.6917 325.591 28.0667 325.824 28.3C326.074 28.5167 326.491 28.625 327.074 28.625H328.824V31H326.574C325.291 31 324.308 30.7 323.624 30.1C322.941 29.5 322.599 28.525 322.599 27.175V19.55H320.974V17.225H322.599V13.8H325.474V17.225H328.824V19.55H325.474ZM333.151 15.4C332.635 15.4 332.201 15.225 331.851 14.875C331.501 14.525 331.326 14.0917 331.326 13.575C331.326 13.0583 331.501 12.625 331.851 12.275C332.201 11.925 332.635 11.75 333.151 11.75C333.651 11.75 334.076 11.925 334.426 12.275C334.776 12.625 334.951 13.0583 334.951 13.575C334.951 14.0917 334.776 14.525 334.426 14.875C334.076 15.225 333.651 15.4 333.151 15.4ZM334.551 17.225V31H331.701V17.225H334.551ZM344.518 31.225C343.218 31.225 342.043 30.9333 340.993 30.35C339.943 29.75 339.118 28.9167 338.518 27.85C337.918 26.7667 337.618 25.5167 337.618 24.1C337.618 22.7 337.926 21.4583 338.543 20.375C339.16 19.2917 340.001 18.4583 341.068 17.875C342.135 17.2917 343.326 17 344.643 17C345.96 17 347.151 17.2917 348.218 17.875C349.285 18.4583 350.126 19.2917 350.743 20.375C351.36 21.4583 351.668 22.7 351.668 24.1C351.668 25.5 351.351 26.7417 350.718 27.825C350.085 28.9083 349.218 29.75 348.118 30.35C347.035 30.9333 345.835 31.225 344.518 31.225ZM344.518 28.75C345.251 28.75 345.935 28.575 346.568 28.225C347.218 27.875 347.743 27.35 348.143 26.65C348.543 25.95 348.743 25.1 348.743 24.1C348.743 23.1 348.551 22.2583 348.168 21.575C347.785 20.875 347.276 20.35 346.643 20C346.01 19.65 345.326 19.475 344.593 19.475C343.86 19.475 343.176 19.65 342.543 20C341.926 20.35 341.435 20.875 341.068 21.575C340.701 22.2583 340.518 23.1 340.518 24.1C340.518 25.5833 340.893 26.7333 341.643 27.55C342.41 28.35 343.368 28.75 344.518 28.75ZM361.685 17C362.769 17 363.735 17.225 364.585 17.675C365.452 18.125 366.127 18.7917 366.61 19.675C367.094 20.5583 367.335 21.625 367.335 22.875V31H364.51V23.3C364.51 22.0667 364.202 21.125 363.585 20.475C362.969 19.8083 362.127 19.475 361.06 19.475C359.994 19.475 359.144 19.8083 358.51 20.475C357.894 21.125 357.585 22.0667 357.585 23.3V31H354.735V17.225H357.585V18.8C358.052 18.2333 358.644 17.7917 359.36 17.475C360.094 17.1583 360.869 17 361.685 17ZM376.221 31.225C375.137 31.225 374.162 31.0333 373.296 30.65C372.446 30.25 371.771 29.7167 371.271 29.05C370.771 28.3667 370.504 27.6083 370.471 26.775H373.421C373.471 27.3583 373.746 27.85 374.246 28.25C374.762 28.6333 375.404 28.825 376.171 28.825C376.971 28.825 377.587 28.675 378.021 28.375C378.471 28.0583 378.696 27.6583 378.696 27.175C378.696 26.6583 378.446 26.275 377.946 26.025C377.462 25.775 376.687 25.5 375.621 25.2C374.587 24.9167 373.746 24.6417 373.096 24.375C372.446 24.1083 371.879 23.7 371.396 23.15C370.929 22.6 370.696 21.875 370.696 20.975C370.696 20.2417 370.912 19.575 371.346 18.975C371.779 18.3583 372.396 17.875 373.196 17.525C374.012 17.175 374.946 17 375.996 17C377.562 17 378.821 17.4 379.771 18.2C380.737 18.9833 381.254 20.0583 381.321 21.425H378.471C378.421 20.8083 378.171 20.3167 377.721 19.95C377.271 19.5833 376.662 19.4 375.896 19.4C375.146 19.4 374.571 19.5417 374.171 19.825C373.771 20.1083 373.571 20.4833 373.571 20.95C373.571 21.3167 373.704 21.625 373.971 21.875C374.237 22.125 374.562 22.325 374.946 22.475C375.329 22.6083 375.896 22.7833 376.646 23C377.646 23.2667 378.462 23.5417 379.096 23.825C379.746 24.0917 380.304 24.4917 380.771 25.025C381.237 25.5583 381.479 26.2667 381.496 27.15C381.496 27.9333 381.279 28.6333 380.846 29.25C380.412 29.8667 379.796 30.35 378.996 30.7C378.212 31.05 377.287 31.225 376.221 31.225Z" fill="black"/>
<path d="M138.096 60.848V62.032H135.056V72H133.6V62.032H130.544V60.848H138.096ZM144.4 63.072C145.062 63.072 145.659 63.216 146.192 63.504C146.726 63.7813 147.142 64.2027 147.44 64.768C147.75 65.3333 147.904 66.0213 147.904 66.832V72H146.464V67.04C146.464 66.1653 146.246 65.4987 145.808 65.04C145.371 64.5707 144.774 64.336 144.016 64.336C143.248 64.336 142.635 64.576 142.176 65.056C141.728 65.536 141.504 66.2347 141.504 67.152V72H140.048V60.16H141.504V64.48C141.792 64.032 142.187 63.6853 142.688 63.44C143.2 63.1947 143.771 63.072 144.4 63.072ZM158.443 67.28C158.443 67.5573 158.427 67.8507 158.395 68.16H151.387C151.44 69.024 151.733 69.7013 152.267 70.192C152.811 70.672 153.467 70.912 154.235 70.912C154.864 70.912 155.387 70.768 155.803 70.48C156.229 70.1813 156.528 69.7867 156.699 69.296H158.267C158.032 70.1387 157.563 70.8267 156.859 71.36C156.155 71.8827 155.28 72.144 154.235 72.144C153.403 72.144 152.656 71.9573 151.995 71.584C151.344 71.2107 150.832 70.6827 150.459 70C150.085 69.3067 149.899 68.5067 149.899 67.6C149.899 66.6933 150.08 65.8987 150.443 65.216C150.805 64.5333 151.312 64.0107 151.963 63.648C152.624 63.2747 153.381 63.088 154.235 63.088C155.067 63.088 155.803 63.2693 156.443 63.632C157.083 63.9947 157.573 64.496 157.915 65.136C158.267 65.7653 158.443 66.48 158.443 67.28ZM156.939 66.976C156.939 66.4213 156.816 65.9467 156.571 65.552C156.325 65.1467 155.989 64.8427 155.563 64.64C155.147 64.4267 154.683 64.32 154.171 64.32C153.435 64.32 152.805 64.5547 152.283 65.024C151.771 65.4933 151.477 66.144 151.403 66.976H156.939ZM168.054 72.144C167.382 72.144 166.779 72.032 166.246 71.808C165.713 71.5733 165.291 71.2533 164.982 70.848C164.673 70.432 164.502 69.9573 164.47 69.424H165.974C166.017 69.8613 166.219 70.2187 166.582 70.496C166.955 70.7733 167.441 70.912 168.038 70.912C168.593 70.912 169.03 70.7893 169.35 70.544C169.67 70.2987 169.83 69.9893 169.83 69.616C169.83 69.232 169.659 68.9493 169.318 68.768C168.977 68.576 168.449 68.3893 167.734 68.208C167.083 68.0373 166.55 67.8667 166.134 67.696C165.729 67.5147 165.377 67.2533 165.078 66.912C164.79 66.56 164.646 66.1013 164.646 65.536C164.646 65.088 164.779 64.6773 165.046 64.304C165.313 63.9307 165.691 63.6373 166.182 63.424C166.673 63.2 167.233 63.088 167.862 63.088C168.833 63.088 169.617 63.3333 170.214 63.824C170.811 64.3147 171.131 64.9867 171.174 65.84H169.718C169.686 65.3813 169.499 65.0133 169.158 64.736C168.827 64.4587 168.379 64.32 167.814 64.32C167.291 64.32 166.875 64.432 166.566 64.656C166.257 64.88 166.102 65.1733 166.102 65.536C166.102 65.824 166.193 66.064 166.374 66.256C166.566 66.4373 166.801 66.5867 167.078 66.704C167.366 66.8107 167.761 66.9333 168.262 67.072C168.891 67.2427 169.403 67.4133 169.798 67.584C170.193 67.744 170.529 67.9893 170.806 68.32C171.094 68.6507 171.243 69.0827 171.254 69.616C171.254 70.096 171.121 70.528 170.854 70.912C170.587 71.296 170.209 71.6 169.718 71.824C169.238 72.0373 168.683 72.144 168.054 72.144ZM174.221 61.808C173.944 61.808 173.709 61.712 173.517 61.52C173.325 61.328 173.229 61.0933 173.229 60.816C173.229 60.5387 173.325 60.304 173.517 60.112C173.709 59.92 173.944 59.824 174.221 59.824C174.488 59.824 174.712 59.92 174.893 60.112C175.085 60.304 175.181 60.5387 175.181 60.816C175.181 61.0933 175.085 61.328 174.893 61.52C174.712 61.712 174.488 61.808 174.221 61.808ZM174.925 63.232V72H173.469V63.232H174.925ZM188.111 63.072C188.794 63.072 189.402 63.216 189.935 63.504C190.468 63.7813 190.89 64.2027 191.199 64.768C191.508 65.3333 191.663 66.0213 191.663 66.832V72H190.223V67.04C190.223 66.1653 190.004 65.4987 189.567 65.04C189.14 64.5707 188.559 64.336 187.823 64.336C187.066 64.336 186.463 64.5813 186.015 65.072C185.567 65.552 185.343 66.2507 185.343 67.168V72H183.903V67.04C183.903 66.1653 183.684 65.4987 183.247 65.04C182.82 64.5707 182.239 64.336 181.503 64.336C180.746 64.336 180.143 64.5813 179.695 65.072C179.247 65.552 179.023 66.2507 179.023 67.168V72H177.567V63.232H179.023V64.496C179.311 64.0373 179.695 63.6853 180.175 63.44C180.666 63.1947 181.204 63.072 181.791 63.072C182.527 63.072 183.178 63.2373 183.743 63.568C184.308 63.8987 184.73 64.384 185.007 65.024C185.252 64.4053 185.658 63.9253 186.223 63.584C186.788 63.2427 187.418 63.072 188.111 63.072ZM195.667 64.848C195.955 64.3467 196.382 63.9307 196.947 63.6C197.523 63.2587 198.19 63.088 198.947 63.088C199.726 63.088 200.43 63.2747 201.059 63.648C201.699 64.0213 202.201 64.5493 202.563 65.232C202.926 65.904 203.107 66.688 203.107 67.584C203.107 68.4693 202.926 69.2587 202.563 69.952C202.201 70.6453 201.699 71.184 201.059 71.568C200.43 71.952 199.726 72.144 198.947 72.144C198.201 72.144 197.539 71.9787 196.963 71.648C196.398 71.3067 195.966 70.8853 195.667 70.384V76.16H194.211V63.232H195.667V64.848ZM201.619 67.584C201.619 66.9227 201.486 66.3467 201.219 65.856C200.953 65.3653 200.59 64.992 200.131 64.736C199.683 64.48 199.187 64.352 198.643 64.352C198.11 64.352 197.614 64.4853 197.155 64.752C196.707 65.008 196.345 65.3867 196.067 65.888C195.801 66.3787 195.667 66.9493 195.667 67.6C195.667 68.2613 195.801 68.8427 196.067 69.344C196.345 69.8347 196.707 70.2133 197.155 70.48C197.614 70.736 198.11 70.864 198.643 70.864C199.187 70.864 199.683 70.736 200.131 70.48C200.59 70.2133 200.953 69.8347 201.219 69.344C201.486 68.8427 201.619 68.256 201.619 67.584ZM206.64 60.16V72H205.184V60.16H206.64ZM217.281 67.28C217.281 67.5573 217.265 67.8507 217.233 68.16H210.225C210.279 69.024 210.572 69.7013 211.105 70.192C211.649 70.672 212.305 70.912 213.073 70.912C213.703 70.912 214.225 70.768 214.641 70.48C215.068 70.1813 215.367 69.7867 215.537 69.296H217.105C216.871 70.1387 216.401 70.8267 215.697 71.36C214.993 71.8827 214.119 72.144 213.073 72.144C212.241 72.144 211.495 71.9573 210.833 71.584C210.183 71.2107 209.671 70.6827 209.297 70C208.924 69.3067 208.737 68.5067 208.737 67.6C208.737 66.6933 208.919 65.8987 209.281 65.216C209.644 64.5333 210.151 64.0107 210.801 63.648C211.463 63.2747 212.22 63.088 213.073 63.088C213.905 63.088 214.641 63.2693 215.281 63.632C215.921 63.9947 216.412 64.496 216.753 65.136C217.105 65.7653 217.281 66.48 217.281 67.28ZM215.777 66.976C215.777 66.4213 215.655 65.9467 215.409 65.552C215.164 65.1467 214.828 64.8427 214.401 64.64C213.985 64.4267 213.521 64.32 213.009 64.32C212.273 64.32 211.644 64.5547 211.121 65.024C210.609 65.4933 210.316 66.144 210.241 66.976H215.777ZM222.467 72.144C221.795 72.144 221.193 72.032 220.659 71.808C220.126 71.5733 219.705 71.2533 219.395 70.848C219.086 70.432 218.915 69.9573 218.883 69.424H220.387C220.43 69.8613 220.633 70.2187 220.995 70.496C221.369 70.7733 221.854 70.912 222.451 70.912C223.006 70.912 223.443 70.7893 223.763 70.544C224.083 70.2987 224.243 69.9893 224.243 69.616C224.243 69.232 224.073 68.9493 223.731 68.768C223.39 68.576 222.862 68.3893 222.147 68.208C221.497 68.0373 220.963 67.8667 220.547 67.696C220.142 67.5147 219.79 67.2533 219.491 66.912C219.203 66.56 219.059 66.1013 219.059 65.536C219.059 65.088 219.193 64.6773 219.459 64.304C219.726 63.9307 220.105 63.6373 220.595 63.424C221.086 63.2 221.646 63.088 222.275 63.088C223.246 63.088 224.03 63.3333 224.627 63.824C225.225 64.3147 225.545 64.9867 225.587 65.84H224.131C224.099 65.3813 223.913 65.0133 223.571 64.736C223.241 64.4587 222.793 64.32 222.227 64.32C221.705 64.32 221.289 64.432 220.979 64.656C220.67 64.88 220.515 65.1733 220.515 65.536C220.515 65.824 220.606 66.064 220.787 66.256C220.979 66.4373 221.214 66.5867 221.491 66.704C221.779 66.8107 222.174 66.9333 222.675 67.072C223.305 67.2427 223.817 67.4133 224.211 67.584C224.606 67.744 224.942 67.9893 225.219 68.32C225.507 68.6507 225.657 69.0827 225.667 69.616C225.667 70.096 225.534 70.528 225.267 70.912C225.001 71.296 224.622 71.6 224.131 71.824C223.651 72.0373 223.097 72.144 222.467 72.144ZM229.659 64.432V69.6C229.659 70.0267 229.749 70.3307 229.931 70.512C230.112 70.6827 230.427 70.768 230.875 70.768H231.947V72H230.635C229.824 72 229.216 71.8133 228.811 71.44C228.405 71.0667 228.203 70.4533 228.203 69.6V64.432H227.067V63.232H228.203V61.024H229.659V63.232H231.947V64.432H229.659ZM239.752 64.864C240.051 64.3413 240.488 63.9147 241.064 63.584C241.64 63.2533 242.296 63.088 243.032 63.088C243.822 63.088 244.531 63.2747 245.16 63.648C245.79 64.0213 246.286 64.5493 246.648 65.232C247.011 65.904 247.192 66.688 247.192 67.584C247.192 68.4693 247.011 69.2587 246.648 69.952C246.286 70.6453 245.784 71.184 245.144 71.568C244.515 71.952 243.811 72.144 243.032 72.144C242.275 72.144 241.608 71.9787 241.032 71.648C240.467 71.3173 240.04 70.896 239.752 70.384V72H238.296V60.16H239.752V64.864ZM245.704 67.584C245.704 66.9227 245.571 66.3467 245.304 65.856C245.038 65.3653 244.675 64.992 244.216 64.736C243.768 64.48 243.272 64.352 242.728 64.352C242.195 64.352 241.699 64.4853 241.24 64.752C240.792 65.008 240.43 65.3867 240.152 65.888C239.886 66.3787 239.752 66.9493 239.752 67.6C239.752 68.2613 239.886 68.8427 240.152 69.344C240.43 69.8347 240.792 70.2133 241.24 70.48C241.699 70.736 242.195 70.864 242.728 70.864C243.272 70.864 243.768 70.736 244.216 70.48C244.675 70.2133 245.038 69.8347 245.304 69.344C245.571 68.8427 245.704 68.256 245.704 67.584ZM257.045 63.232V72H255.589V70.704C255.312 71.152 254.922 71.504 254.421 71.76C253.93 72.0053 253.386 72.128 252.789 72.128C252.106 72.128 251.493 71.9893 250.949 71.712C250.405 71.424 249.973 70.9973 249.653 70.432C249.344 69.8667 249.189 69.1787 249.189 68.368V63.232H250.629V68.176C250.629 69.04 250.848 69.7067 251.285 70.176C251.722 70.6347 252.32 70.864 253.077 70.864C253.856 70.864 254.469 70.624 254.917 70.144C255.365 69.664 255.589 68.9653 255.589 68.048V63.232H257.045ZM261.439 64.432V69.6C261.439 70.0267 261.53 70.3307 261.711 70.512C261.893 70.6827 262.207 70.768 262.655 70.768H263.727V72H262.415C261.605 72 260.997 71.8133 260.591 71.44C260.186 71.0667 259.983 70.4533 259.983 69.6V64.432H258.847V63.232H259.983V61.024H261.439V63.232H263.727V64.432H261.439ZM271.533 64.656C271.789 64.1547 272.152 63.7653 272.621 63.488C273.101 63.2107 273.682 63.072 274.365 63.072V64.576H273.981C272.349 64.576 271.533 65.4613 271.533 67.232V72H270.077V63.232H271.533V64.656ZM280.03 72.144C279.208 72.144 278.462 71.9573 277.79 71.584C277.128 71.2107 276.606 70.6827 276.222 70C275.848 69.3067 275.662 68.5067 275.662 67.6C275.662 66.704 275.854 65.9147 276.238 65.232C276.632 64.5387 277.166 64.0107 277.838 63.648C278.51 63.2747 279.262 63.088 280.094 63.088C280.926 63.088 281.678 63.2747 282.35 63.648C283.022 64.0107 283.55 64.5333 283.934 65.216C284.328 65.8987 284.526 66.6933 284.526 67.6C284.526 68.5067 284.323 69.3067 283.918 70C283.523 70.6827 282.984 71.2107 282.302 71.584C281.619 71.9573 280.862 72.144 280.03 72.144ZM280.03 70.864C280.552 70.864 281.043 70.7413 281.502 70.496C281.96 70.2507 282.328 69.8827 282.606 69.392C282.894 68.9013 283.038 68.304 283.038 67.6C283.038 66.896 282.899 66.2987 282.622 65.808C282.344 65.3173 281.982 64.9547 281.534 64.72C281.086 64.4747 280.6 64.352 280.078 64.352C279.544 64.352 279.054 64.4747 278.606 64.72C278.168 64.9547 277.816 65.3173 277.55 65.808C277.283 66.2987 277.15 66.896 277.15 67.6C277.15 68.3147 277.278 68.9173 277.534 69.408C277.8 69.8987 278.152 70.2667 278.59 70.512C279.027 70.7467 279.507 70.864 280.03 70.864ZM288.056 64.864C288.355 64.3413 288.792 63.9147 289.368 63.584C289.944 63.2533 290.6 63.088 291.336 63.088C292.125 63.088 292.835 63.2747 293.464 63.648C294.093 64.0213 294.589 64.5493 294.952 65.232C295.315 65.904 295.496 66.688 295.496 67.584C295.496 68.4693 295.315 69.2587 294.952 69.952C294.589 70.6453 294.088 71.184 293.448 71.568C292.819 71.952 292.115 72.144 291.336 72.144C290.579 72.144 289.912 71.9787 289.336 71.648C288.771 71.3173 288.344 70.896 288.056 70.384V72H286.6V60.16H288.056V64.864ZM294.008 67.584C294.008 66.9227 293.875 66.3467 293.608 65.856C293.341 65.3653 292.979 64.992 292.52 64.736C292.072 64.48 291.576 64.352 291.032 64.352C290.499 64.352 290.003 64.4853 289.544 64.752C289.096 65.008 288.733 65.3867 288.456 65.888C288.189 66.3787 288.056 66.9493 288.056 67.6C288.056 68.2613 288.189 68.8427 288.456 69.344C288.733 69.8347 289.096 70.2133 289.544 70.48C290.003 70.736 290.499 70.864 291.032 70.864C291.576 70.864 292.072 70.736 292.52 70.48C292.979 70.2133 293.341 69.8347 293.608 69.344C293.875 68.8427 294.008 68.256 294.008 67.584ZM305.349 63.232V72H303.893V70.704C303.615 71.152 303.226 71.504 302.725 71.76C302.234 72.0053 301.69 72.128 301.093 72.128C300.41 72.128 299.797 71.9893 299.253 71.712C298.709 71.424 298.277 70.9973 297.957 70.432C297.647 69.8667 297.493 69.1787 297.493 68.368V63.232H298.933V68.176C298.933 69.04 299.151 69.7067 299.589 70.176C300.026 70.6347 300.623 70.864 301.381 70.864C302.159 70.864 302.773 70.624 303.221 70.144C303.669 69.664 303.893 68.9653 303.893 68.048V63.232H305.349ZM311.071 72.144C310.399 72.144 309.796 72.032 309.263 71.808C308.73 71.5733 308.308 71.2533 307.999 70.848C307.69 70.432 307.519 69.9573 307.487 69.424H308.991C309.034 69.8613 309.236 70.2187 309.599 70.496C309.972 70.7733 310.458 70.912 311.055 70.912C311.61 70.912 312.047 70.7893 312.367 70.544C312.687 70.2987 312.847 69.9893 312.847 69.616C312.847 69.232 312.676 68.9493 312.335 68.768C311.994 68.576 311.466 68.3893 310.751 68.208C310.1 68.0373 309.567 67.8667 309.151 67.696C308.746 67.5147 308.394 67.2533 308.095 66.912C307.807 66.56 307.663 66.1013 307.663 65.536C307.663 65.088 307.796 64.6773 308.063 64.304C308.33 63.9307 308.708 63.6373 309.199 63.424C309.69 63.2 310.25 63.088 310.879 63.088C311.85 63.088 312.634 63.3333 313.231 63.824C313.828 64.3147 314.148 64.9867 314.191 65.84H312.735C312.703 65.3813 312.516 65.0133 312.175 64.736C311.844 64.4587 311.396 64.32 310.831 64.32C310.308 64.32 309.892 64.432 309.583 64.656C309.274 64.88 309.119 65.1733 309.119 65.536C309.119 65.824 309.21 66.064 309.391 66.256C309.583 66.4373 309.818 66.5867 310.095 66.704C310.383 66.8107 310.778 66.9333 311.279 67.072C311.908 67.2427 312.42 67.4133 312.815 67.584C313.21 67.744 313.546 67.9893 313.823 68.32C314.111 68.6507 314.26 69.0827 314.271 69.616C314.271 70.096 314.138 70.528 313.871 70.912C313.604 71.296 313.226 71.6 312.735 71.824C312.255 72.0373 311.7 72.144 311.071 72.144ZM318.262 64.432V69.6C318.262 70.0267 318.353 70.3307 318.534 70.512C318.716 70.6827 319.03 70.768 319.478 70.768H320.55V72H319.238C318.428 72 317.82 71.8133 317.414 71.44C317.009 71.0667 316.806 70.4533 316.806 69.6V64.432H315.67V63.232H316.806V61.024H318.262V63.232H320.55V64.432H318.262ZM328.676 64.432V69.6C328.676 70.0267 328.767 70.3307 328.948 70.512C329.129 70.6827 329.444 70.768 329.892 70.768H330.964V72H329.652C328.841 72 328.233 71.8133 327.828 71.44C327.423 71.0667 327.22 70.4533 327.22 69.6V64.432H326.084V63.232H327.22V61.024H328.676V63.232H330.964V64.432H328.676ZM340.888 67.28C340.888 67.5573 340.872 67.8507 340.84 68.16H333.832C333.886 69.024 334.179 69.7013 334.712 70.192C335.256 70.672 335.912 70.912 336.68 70.912C337.31 70.912 337.832 70.768 338.248 70.48C338.675 70.1813 338.974 69.7867 339.144 69.296H340.712C340.478 70.1387 340.008 70.8267 339.304 71.36C338.6 71.8827 337.726 72.144 336.68 72.144C335.848 72.144 335.102 71.9573 334.44 71.584C333.79 71.2107 333.278 70.6827 332.904 70C332.531 69.3067 332.344 68.5067 332.344 67.6C332.344 66.6933 332.526 65.8987 332.888 65.216C333.251 64.5333 333.758 64.0107 334.408 63.648C335.07 63.2747 335.827 63.088 336.68 63.088C337.512 63.088 338.248 63.2693 338.888 63.632C339.528 63.9947 340.019 64.496 340.36 65.136C340.712 65.7653 340.888 66.48 340.888 67.28ZM339.384 66.976C339.384 66.4213 339.262 65.9467 339.016 65.552C338.771 65.1467 338.435 64.8427 338.008 64.64C337.592 64.4267 337.128 64.32 336.616 64.32C335.88 64.32 335.251 64.5547 334.728 65.024C334.216 65.4933 333.923 66.144 333.848 66.976H339.384ZM342.426 67.6C342.426 66.6933 342.607 65.904 342.97 65.232C343.333 64.5493 343.834 64.0213 344.474 63.648C345.125 63.2747 345.866 63.088 346.698 63.088C347.775 63.088 348.661 63.3493 349.354 63.872C350.058 64.3947 350.522 65.12 350.746 66.048H349.178C349.029 65.5147 348.735 65.0933 348.298 64.784C347.871 64.4747 347.338 64.32 346.698 64.32C345.866 64.32 345.194 64.608 344.682 65.184C344.17 65.7493 343.914 66.5547 343.914 67.6C343.914 68.656 344.17 69.472 344.682 70.048C345.194 70.624 345.866 70.912 346.698 70.912C347.338 70.912 347.871 70.7627 348.298 70.464C348.725 70.1653 349.018 69.7387 349.178 69.184H350.746C350.511 70.08 350.042 70.8 349.338 71.344C348.634 71.8773 347.754 72.144 346.698 72.144C345.866 72.144 345.125 71.9573 344.474 71.584C343.834 71.2107 343.333 70.6827 342.97 70C342.607 69.3173 342.426 68.5173 342.426 67.6ZM357.201 63.072C357.862 63.072 358.46 63.216 358.993 63.504C359.526 63.7813 359.942 64.2027 360.241 64.768C360.55 65.3333 360.705 66.0213 360.705 66.832V72H359.265V67.04C359.265 66.1653 359.046 65.4987 358.609 65.04C358.172 64.5707 357.574 64.336 356.817 64.336C356.049 64.336 355.436 64.576 354.977 65.056C354.529 65.536 354.305 66.2347 354.305 67.152V72H352.849V60.16H354.305V64.48C354.593 64.032 354.988 63.6853 355.489 63.44C356.001 63.1947 356.572 63.072 357.201 63.072ZM367.515 63.072C368.582 63.072 369.446 63.3973 370.107 64.048C370.769 64.688 371.099 65.616 371.099 66.832V72H369.659V67.04C369.659 66.1653 369.441 65.4987 369.003 65.04C368.566 64.5707 367.969 64.336 367.211 64.336C366.443 64.336 365.83 64.576 365.371 65.056C364.923 65.536 364.699 66.2347 364.699 67.152V72H363.243V63.232H364.699V64.48C364.987 64.032 365.377 63.6853 365.867 63.44C366.369 63.1947 366.918 63.072 367.515 63.072ZM377.462 72.144C376.64 72.144 375.894 71.9573 375.222 71.584C374.56 71.2107 374.038 70.6827 373.654 70C373.28 69.3067 373.094 68.5067 373.094 67.6C373.094 66.704 373.286 65.9147 373.67 65.232C374.064 64.5387 374.598 64.0107 375.27 63.648C375.942 63.2747 376.694 63.088 377.526 63.088C378.358 63.088 379.11 63.2747 379.782 63.648C380.454 64.0107 380.982 64.5333 381.366 65.216C381.76 65.8987 381.958 66.6933 381.958 67.6C381.958 68.5067 381.755 69.3067 381.35 70C380.955 70.6827 380.416 71.2107 379.734 71.584C379.051 71.9573 378.294 72.144 377.462 72.144ZM377.462 70.864C377.984 70.864 378.475 70.7413 378.934 70.496C379.392 70.2507 379.76 69.8827 380.038 69.392C380.326 68.9013 380.47 68.304 380.47 67.6C380.47 66.896 380.331 66.2987 380.054 65.808C379.776 65.3173 379.414 64.9547 378.966 64.72C378.518 64.4747 378.032 64.352 377.51 64.352C376.976 64.352 376.486 64.4747 376.038 64.72C375.6 64.9547 375.248 65.3173 374.982 65.808C374.715 66.2987 374.582 66.896 374.582 67.6C374.582 68.3147 374.71 68.9173 374.966 69.408C375.232 69.8987 375.584 70.2667 376.022 70.512C376.459 70.7467 376.939 70.864 377.462 70.864ZM385.488 60.16V72H384.032V60.16H385.488ZM391.953 72.144C391.132 72.144 390.385 71.9573 389.713 71.584C389.052 71.2107 388.529 70.6827 388.145 70C387.772 69.3067 387.585 68.5067 387.585 67.6C387.585 66.704 387.777 65.9147 388.161 65.232C388.556 64.5387 389.089 64.0107 389.761 63.648C390.433 63.2747 391.185 63.088 392.017 63.088C392.849 63.088 393.601 63.2747 394.273 63.648C394.945 64.0107 395.473 64.5333 395.857 65.216C396.252 65.8987 396.449 66.6933 396.449 67.6C396.449 68.5067 396.247 69.3067 395.841 70C395.447 70.6827 394.908 71.2107 394.225 71.584C393.543 71.9573 392.785 72.144 391.953 72.144ZM391.953 70.864C392.476 70.864 392.967 70.7413 393.425 70.496C393.884 70.2507 394.252 69.8827 394.529 69.392C394.817 68.9013 394.961 68.304 394.961 67.6C394.961 66.896 394.823 66.2987 394.545 65.808C394.268 65.3173 393.905 64.9547 393.457 64.72C393.009 64.4747 392.524 64.352 392.001 64.352C391.468 64.352 390.977 64.4747 390.529 64.72C390.092 64.9547 389.74 65.3173 389.473 65.808C389.207 66.2987 389.073 66.896 389.073 67.6C389.073 68.3147 389.201 68.9173 389.457 69.408C389.724 69.8987 390.076 70.2667 390.513 70.512C390.951 70.7467 391.431 70.864 391.953 70.864ZM402.14 63.088C402.897 63.088 403.559 63.2533 404.124 63.584C404.7 63.9147 405.127 64.3307 405.404 64.832V63.232H406.876V72.192C406.876 72.992 406.705 73.7013 406.364 74.32C406.023 74.9493 405.532 75.44 404.892 75.792C404.263 76.144 403.527 76.32 402.684 76.32C401.532 76.32 400.572 76.048 399.804 75.504C399.036 74.96 398.583 74.2187 398.444 73.28H399.884C400.044 73.8133 400.375 74.24 400.876 74.56C401.377 74.8907 401.98 75.056 402.684 75.056C403.484 75.056 404.135 74.8053 404.636 74.304C405.148 73.8027 405.404 73.0987 405.404 72.192V70.352C405.116 70.864 404.689 71.2907 404.124 71.632C403.559 71.9733 402.897 72.144 402.14 72.144C401.361 72.144 400.652 71.952 400.012 71.568C399.383 71.184 398.887 70.6453 398.524 69.952C398.161 69.2587 397.98 68.4693 397.98 67.584C397.98 66.688 398.161 65.904 398.524 65.232C398.887 64.5493 399.383 64.0213 400.012 63.648C400.652 63.2747 401.361 63.088 402.14 63.088ZM405.404 67.6C405.404 66.9387 405.271 66.3627 405.004 65.872C404.737 65.3813 404.375 65.008 403.916 64.752C403.468 64.4853 402.972 64.352 402.428 64.352C401.884 64.352 401.388 64.48 400.94 64.736C400.492 64.992 400.135 65.3653 399.868 65.856C399.601 66.3467 399.468 66.9227 399.468 67.584C399.468 68.256 399.601 68.8427 399.868 69.344C400.135 69.8347 400.492 70.2133 400.94 70.48C401.388 70.736 401.884 70.864 402.428 70.864C402.972 70.864 403.468 70.736 403.916 70.48C404.375 70.2133 404.737 69.8347 405.004 69.344C405.271 68.8427 405.404 68.2613 405.404 67.6ZM417.048 63.232L411.768 76.128H410.264L411.992 71.904L408.456 63.232H410.072L412.824 70.336L415.544 63.232H417.048ZM424.874 64.432V69.6C424.874 70.0267 424.964 70.3307 425.146 70.512C425.327 70.6827 425.642 70.768 426.09 70.768H427.162V72H425.85C425.039 72 424.431 71.8133 424.026 71.44C423.62 71.0667 423.418 70.4533 423.418 69.6V64.432H422.282V63.232H423.418V61.024H424.874V63.232H427.162V64.432H424.874ZM432.91 72.144C432.088 72.144 431.342 71.9573 430.67 71.584C430.008 71.2107 429.486 70.6827 429.102 70C428.728 69.3067 428.542 68.5067 428.542 67.6C428.542 66.704 428.734 65.9147 429.118 65.232C429.512 64.5387 430.046 64.0107 430.718 63.648C431.39 63.2747 432.142 63.088 432.974 63.088C433.806 63.088 434.558 63.2747 435.23 63.648C435.902 64.0107 436.43 64.5333 436.814 65.216C437.208 65.8987 437.406 66.6933 437.406 67.6C437.406 68.5067 437.203 69.3067 436.798 70C436.403 70.6827 435.864 71.2107 435.182 71.584C434.499 71.9573 433.742 72.144 432.91 72.144ZM432.91 70.864C433.432 70.864 433.923 70.7413 434.382 70.496C434.84 70.2507 435.208 69.8827 435.486 69.392C435.774 68.9013 435.918 68.304 435.918 67.6C435.918 66.896 435.779 66.2987 435.502 65.808C435.224 65.3173 434.862 64.9547 434.414 64.72C433.966 64.4747 433.48 64.352 432.958 64.352C432.424 64.352 431.934 64.4747 431.486 64.72C431.048 64.9547 430.696 65.3173 430.43 65.808C430.163 66.2987 430.03 66.896 430.03 67.6C430.03 68.3147 430.158 68.9173 430.414 69.408C430.68 69.8987 431.032 70.2667 431.47 70.512C431.907 70.7467 432.387 70.864 432.91 70.864ZM130.688 95.584C130.688 94.688 130.869 93.904 131.232 93.232C131.595 92.5493 132.091 92.0213 132.72 91.648C133.36 91.2747 134.069 91.088 134.848 91.088C135.616 91.088 136.283 91.2533 136.848 91.584C137.413 91.9147 137.835 92.3307 138.112 92.832V91.232H139.584V100H138.112V98.368C137.824 98.88 137.392 99.3067 136.816 99.648C136.251 99.9787 135.589 100.144 134.832 100.144C134.053 100.144 133.349 99.952 132.72 99.568C132.091 99.184 131.595 98.6453 131.232 97.952C130.869 97.2587 130.688 96.4693 130.688 95.584ZM138.112 95.6C138.112 94.9387 137.979 94.3627 137.712 93.872C137.445 93.3813 137.083 93.008 136.624 92.752C136.176 92.4853 135.68 92.352 135.136 92.352C134.592 92.352 134.096 92.48 133.648 92.736C133.2 92.992 132.843 93.3653 132.576 93.856C132.309 94.3467 132.176 94.9227 132.176 95.584C132.176 96.256 132.309 96.8427 132.576 97.344C132.843 97.8347 133.2 98.2133 133.648 98.48C134.096 98.736 134.592 98.864 135.136 98.864C135.68 98.864 136.176 98.736 136.624 98.48C137.083 98.2133 137.445 97.8347 137.712 97.344C137.979 96.8427 138.112 96.2613 138.112 95.6ZM141.66 95.6C141.66 94.6933 141.842 93.904 142.204 93.232C142.567 92.5493 143.068 92.0213 143.708 91.648C144.359 91.2747 145.1 91.088 145.932 91.088C147.01 91.088 147.895 91.3493 148.589 91.872C149.293 92.3947 149.757 93.12 149.981 94.048H148.413C148.263 93.5147 147.97 93.0933 147.533 92.784C147.106 92.4747 146.572 92.32 145.932 92.32C145.1 92.32 144.429 92.608 143.917 93.184C143.405 93.7493 143.148 94.5547 143.148 95.6C143.148 96.656 143.405 97.472 143.917 98.048C144.429 98.624 145.1 98.912 145.932 98.912C146.572 98.912 147.106 98.7627 147.533 98.464C147.959 98.1653 148.253 97.7387 148.413 97.184H149.981C149.746 98.08 149.277 98.8 148.573 99.344C147.869 99.8773 146.988 100.144 145.932 100.144C145.1 100.144 144.359 99.9573 143.708 99.584C143.068 99.2107 142.567 98.6827 142.204 98C141.842 97.3173 141.66 96.5173 141.66 95.6ZM151.539 95.6C151.539 94.6933 151.721 93.904 152.083 93.232C152.446 92.5493 152.947 92.0213 153.587 91.648C154.238 91.2747 154.979 91.088 155.811 91.088C156.889 91.088 157.774 91.3493 158.467 91.872C159.171 92.3947 159.635 93.12 159.859 94.048H158.291C158.142 93.5147 157.849 93.0933 157.411 92.784C156.985 92.4747 156.451 92.32 155.811 92.32C154.979 92.32 154.307 92.608 153.795 93.184C153.283 93.7493 153.027 94.5547 153.027 95.6C153.027 96.656 153.283 97.472 153.795 98.048C154.307 98.624 154.979 98.912 155.811 98.912C156.451 98.912 156.985 98.7627 157.411 98.464C157.838 98.1653 158.131 97.7387 158.291 97.184H159.859C159.625 98.08 159.155 98.8 158.451 99.344C157.747 99.8773 156.867 100.144 155.811 100.144C154.979 100.144 154.238 99.9573 153.587 99.584C152.947 99.2107 152.446 98.6827 152.083 98C151.721 97.3173 151.539 96.5173 151.539 95.6ZM165.786 100.144C164.965 100.144 164.218 99.9573 163.546 99.584C162.885 99.2107 162.362 98.6827 161.978 98C161.605 97.3067 161.418 96.5067 161.418 95.6C161.418 94.704 161.61 93.9147 161.994 93.232C162.389 92.5387 162.922 92.0107 163.594 91.648C164.266 91.2747 165.018 91.088 165.85 91.088C166.682 91.088 167.434 91.2747 168.106 91.648C168.778 92.0107 169.306 92.5333 169.69 93.216C170.085 93.8987 170.282 94.6933 170.282 95.6C170.282 96.5067 170.079 97.3067 169.674 98C169.279 98.6827 168.741 99.2107 168.058 99.584C167.375 99.9573 166.618 100.144 165.786 100.144ZM165.786 98.864C166.309 98.864 166.799 98.7413 167.258 98.496C167.717 98.2507 168.085 97.8827 168.362 97.392C168.65 96.9013 168.794 96.304 168.794 95.6C168.794 94.896 168.655 94.2987 168.378 93.808C168.101 93.3173 167.738 92.9547 167.29 92.72C166.842 92.4747 166.357 92.352 165.834 92.352C165.301 92.352 164.81 92.4747 164.362 92.72C163.925 92.9547 163.573 93.3173 163.306 93.808C163.039 94.2987 162.906 94.896 162.906 95.6C162.906 96.3147 163.034 96.9173 163.29 97.408C163.557 97.8987 163.909 98.2667 164.346 98.512C164.783 98.7467 165.263 98.864 165.786 98.864ZM182.9 91.072C183.583 91.072 184.191 91.216 184.724 91.504C185.258 91.7813 185.679 92.2027 185.988 92.768C186.298 93.3333 186.452 94.0213 186.452 94.832V100H185.012V95.04C185.012 94.1653 184.794 93.4987 184.356 93.04C183.93 92.5707 183.348 92.336 182.612 92.336C181.855 92.336 181.252 92.5813 180.804 93.072C180.356 93.552 180.132 94.2507 180.132 95.168V100H178.692V95.04C178.692 94.1653 178.474 93.4987 178.036 93.04C177.61 92.5707 177.028 92.336 176.292 92.336C175.535 92.336 174.932 92.5813 174.484 93.072C174.036 93.552 173.812 94.2507 173.812 95.168V100H172.356V91.232H173.812V92.496C174.1 92.0373 174.484 91.6853 174.964 91.44C175.455 91.1947 175.994 91.072 176.58 91.072C177.316 91.072 177.967 91.2373 178.532 91.568C179.098 91.8987 179.519 92.384 179.796 93.024C180.042 92.4053 180.447 91.9253 181.012 91.584C181.578 91.2427 182.207 91.072 182.9 91.072ZM190.457 92.848C190.745 92.3467 191.171 91.9307 191.737 91.6C192.313 91.2587 192.979 91.088 193.737 91.088C194.515 91.088 195.219 91.2747 195.849 91.648C196.489 92.0213 196.99 92.5493 197.353 93.232C197.715 93.904 197.897 94.688 197.897 95.584C197.897 96.4693 197.715 97.2587 197.353 97.952C196.99 98.6453 196.489 99.184 195.849 99.568C195.219 99.952 194.515 100.144 193.737 100.144C192.99 100.144 192.329 99.9787 191.753 99.648C191.187 99.3067 190.755 98.8853 190.457 98.384V104.16H189.001V91.232H190.457V92.848ZM196.409 95.584C196.409 94.9227 196.275 94.3467 196.009 93.856C195.742 93.3653 195.379 92.992 194.921 92.736C194.473 92.48 193.977 92.352 193.433 92.352C192.899 92.352 192.403 92.4853 191.945 92.752C191.497 93.008 191.134 93.3867 190.857 93.888C190.59 94.3787 190.457 94.9493 190.457 95.6C190.457 96.2613 190.59 96.8427 190.857 97.344C191.134 97.8347 191.497 98.2133 191.945 98.48C192.403 98.736 192.899 98.864 193.433 98.864C193.977 98.864 194.473 98.736 194.921 98.48C195.379 98.2133 195.742 97.8347 196.009 97.344C196.275 96.8427 196.409 96.256 196.409 95.584ZM199.429 95.584C199.429 94.688 199.611 93.904 199.973 93.232C200.336 92.5493 200.832 92.0213 201.461 91.648C202.101 91.2747 202.811 91.088 203.589 91.088C204.357 91.088 205.024 91.2533 205.589 91.584C206.155 91.9147 206.576 92.3307 206.853 92.832V91.232H208.325V100H206.853V98.368C206.565 98.88 206.133 99.3067 205.557 99.648C204.992 99.9787 204.331 100.144 203.573 100.144C202.795 100.144 202.091 99.952 201.461 99.568C200.832 99.184 200.336 98.6453 199.973 97.952C199.611 97.2587 199.429 96.4693 199.429 95.584ZM206.853 95.6C206.853 94.9387 206.72 94.3627 206.453 93.872C206.187 93.3813 205.824 93.008 205.365 92.752C204.917 92.4853 204.421 92.352 203.877 92.352C203.333 92.352 202.837 92.48 202.389 92.736C201.941 92.992 201.584 93.3653 201.317 93.856C201.051 94.3467 200.917 94.9227 200.917 95.584C200.917 96.256 201.051 96.8427 201.317 97.344C201.584 97.8347 201.941 98.2133 202.389 98.48C202.837 98.736 203.333 98.864 203.877 98.864C204.421 98.864 204.917 98.736 205.365 98.48C205.824 98.2133 206.187 97.8347 206.453 97.344C206.72 96.8427 206.853 96.2613 206.853 95.6ZM215.218 91.072C216.284 91.072 217.148 91.3973 217.81 92.048C218.471 92.688 218.802 93.616 218.802 94.832V100H217.362V95.04C217.362 94.1653 217.143 93.4987 216.706 93.04C216.268 92.5707 215.671 92.336 214.914 92.336C214.146 92.336 213.532 92.576 213.074 93.056C212.626 93.536 212.402 94.2347 212.402 95.152V100H210.946V91.232H212.402V92.48C212.69 92.032 213.079 91.6853 213.57 91.44C214.071 91.1947 214.62 91.072 215.218 91.072ZM228.892 91.232L223.612 104.128H222.108L223.836 99.904L220.3 91.232H221.916L224.668 98.336L227.388 91.232H228.892ZM246.621 91.232L243.885 100H242.381L240.269 93.04L238.157 100H236.653L233.901 91.232H235.389L237.405 98.592L239.581 91.232H241.069L243.197 98.608L245.181 91.232H246.621ZM248.978 89.808C248.701 89.808 248.466 89.712 248.274 89.52C248.082 89.328 247.986 89.0933 247.986 88.816C247.986 88.5387 248.082 88.304 248.274 88.112C248.466 87.92 248.701 87.824 248.978 87.824C249.245 87.824 249.469 87.92 249.65 88.112C249.842 88.304 249.938 88.5387 249.938 88.816C249.938 89.0933 249.842 89.328 249.65 89.52C249.469 89.712 249.245 89.808 248.978 89.808ZM249.682 91.232V100H248.226V91.232H249.682ZM254.1 92.432V97.6C254.1 98.0267 254.191 98.3307 254.372 98.512C254.553 98.6827 254.868 98.768 255.316 98.768H256.388V100H255.076C254.265 100 253.657 99.8133 253.252 99.44C252.847 99.0667 252.644 98.4533 252.644 97.6V92.432H251.508V91.232H252.644V89.024H254.1V91.232H256.388V92.432H254.1ZM262.664 91.072C263.325 91.072 263.923 91.216 264.456 91.504C264.989 91.7813 265.405 92.2027 265.704 92.768C266.013 93.3333 266.168 94.0213 266.168 94.832V100H264.728V95.04C264.728 94.1653 264.509 93.4987 264.072 93.04C263.635 92.5707 263.037 92.336 262.28 92.336C261.512 92.336 260.899 92.576 260.44 93.056C259.992 93.536 259.768 94.2347 259.768 95.152V100H258.312V88.16H259.768V92.48C260.056 92.032 260.451 91.6853 260.952 91.44C261.464 91.1947 262.035 91.072 262.664 91.072ZM280.684 91.232L275.404 104.128H273.9L275.628 99.904L272.092 91.232H273.708L276.46 98.336L279.18 91.232H280.684ZM286.132 100.144C285.31 100.144 284.564 99.9573 283.892 99.584C283.23 99.2107 282.708 98.6827 282.324 98C281.95 97.3067 281.764 96.5067 281.764 95.6C281.764 94.704 281.956 93.9147 282.34 93.232C282.734 92.5387 283.268 92.0107 283.94 91.648C284.612 91.2747 285.364 91.088 286.196 91.088C287.028 91.088 287.78 91.2747 288.452 91.648C289.124 92.0107 289.652 92.5333 290.036 93.216C290.43 93.8987 290.628 94.6933 290.628 95.6C290.628 96.5067 290.425 97.3067 290.02 98C289.625 98.6827 289.086 99.2107 288.404 99.584C287.721 99.9573 286.964 100.144 286.132 100.144ZM286.132 98.864C286.654 98.864 287.145 98.7413 287.604 98.496C288.062 98.2507 288.43 97.8827 288.708 97.392C288.996 96.9013 289.14 96.304 289.14 95.6C289.14 94.896 289.001 94.2987 288.724 93.808C288.446 93.3173 288.084 92.9547 287.636 92.72C287.188 92.4747 286.702 92.352 286.18 92.352C285.646 92.352 285.156 92.4747 284.708 92.72C284.27 92.9547 283.918 93.3173 283.652 93.808C283.385 94.2987 283.252 94.896 283.252 95.6C283.252 96.3147 283.38 96.9173 283.636 97.408C283.902 97.8987 284.254 98.2667 284.692 98.512C285.129 98.7467 285.609 98.864 286.132 98.864ZM300.478 91.232V100H299.022V98.704C298.745 99.152 298.355 99.504 297.854 99.76C297.363 100.005 296.819 100.128 296.222 100.128C295.539 100.128 294.926 99.9893 294.382 99.712C293.838 99.424 293.406 98.9973 293.086 98.432C292.777 97.8667 292.622 97.1787 292.622 96.368V91.232H294.062V96.176C294.062 97.04 294.281 97.7067 294.718 98.176C295.155 98.6347 295.753 98.864 296.51 98.864C297.289 98.864 297.902 98.624 298.35 98.144C298.798 97.664 299.022 96.9653 299.022 96.048V91.232H300.478Z" fill="#797979"/>
<path d="M53.8281 31.6406H37.1719C36.4925 31.6415 35.8413 31.9118 35.3609 32.3921C34.8805 32.8725 34.6103 33.5238 34.6094 34.2031V68.7969C34.6103 69.4762 34.8805 70.1275 35.3609 70.6079C35.8413 71.0882 36.4925 71.3585 37.1719 71.3594H53.8281C54.5075 71.3585 55.1587 71.0882 55.6391 70.6079C56.1195 70.1275 56.3897 69.4762 56.3906 68.7969V34.2031C56.3897 33.5238 56.1195 32.8725 55.6391 32.3921C55.1587 31.9118 54.5075 31.6415 53.8281 31.6406ZM48.4981 32.9219L48.1378 34.2031H42.7974L42.4771 32.9219H48.4981ZM55.1094 68.7969C55.1089 69.1365 54.9738 69.4622 54.7336 69.7024C54.4934 69.9426 54.1678 70.0777 53.8281 70.0781H37.1719C36.8322 70.0777 36.5066 69.9426 36.2664 69.7024C36.0262 69.4622 35.8911 69.1365 35.8906 68.7969V34.2031C35.8911 33.8635 36.0262 33.5378 36.2664 33.2976C36.5066 33.0575 36.8322 32.9223 37.1719 32.9219H41.1558L41.6755 34.9991C41.7101 35.1377 41.7901 35.2607 41.9027 35.3487C42.0153 35.4366 42.154 35.4844 42.2969 35.4844H48.623C48.7627 35.4844 48.8984 35.4388 49.0097 35.3545C49.1211 35.2702 49.2018 35.1519 49.2396 35.0175L49.829 32.9219H53.8281C54.1678 32.9223 54.4934 33.0575 54.7336 33.2976C54.9738 33.5378 55.1089 33.8635 55.1094 34.2031V68.7969Z" fill="#6E00FA"/>
<path d="M42.2969 67.5156H37.8125C37.6426 67.5156 37.4796 67.5831 37.3595 67.7033C37.2394 67.8234 37.1719 67.9863 37.1719 68.1562C37.1719 68.3262 37.2394 68.4891 37.3595 68.6092C37.4796 68.7294 37.6426 68.7969 37.8125 68.7969H42.2969C42.4668 68.7969 42.6297 68.7294 42.7499 68.6092C42.87 68.4891 42.9375 68.3262 42.9375 68.1562C42.9375 67.9863 42.87 67.8234 42.7499 67.7033C42.6297 67.5831 42.4668 67.5156 42.2969 67.5156Z" fill="#6E00FA"/>
<path d="M44.8594 67.5156H44.2188C44.0488 67.5156 43.8859 67.5831 43.7658 67.7033C43.6456 67.8234 43.5781 67.9863 43.5781 68.1562C43.5781 68.3262 43.6456 68.4891 43.7658 68.6092C43.8859 68.7294 44.0488 68.7969 44.2188 68.7969H44.8594C45.0293 68.7969 45.1922 68.7294 45.3124 68.6092C45.4325 68.4891 45.5 68.3262 45.5 68.1562C45.5 67.9863 45.4325 67.8234 45.3124 67.7033C45.1922 67.5831 45.0293 67.5156 44.8594 67.5156Z" fill="#6E00FA"/>
<path d="M47.7515 47.7475C47.6793 47.7043 47.5994 47.6756 47.5162 47.6632C47.4329 47.6508 47.3481 47.655 47.2665 47.6754C47.1849 47.6958 47.1081 47.7321 47.0405 47.7821C46.9729 47.8322 46.9158 47.8951 46.8725 47.9673L43.0288 54.3735C42.9413 54.5192 42.9154 54.6937 42.9566 54.8585C42.9978 55.0234 43.1028 55.1651 43.2485 55.2525C43.3942 55.3399 43.5686 55.3659 43.7335 55.3246C43.8983 55.2834 44.04 55.1784 44.1274 55.0327L47.9712 48.6265C48.0145 48.5543 48.0431 48.4744 48.0555 48.3912C48.0679 48.308 48.0638 48.2231 48.0434 48.1415C48.023 48.0599 47.9867 47.9831 47.9366 47.9155C47.8865 47.8479 47.8236 47.7908 47.7515 47.7475Z" fill="#6E00FA"/>
<path d="M49.844 47.8965C49.7915 47.8308 49.7264 47.7761 49.6527 47.7355C49.579 47.695 49.498 47.6693 49.4144 47.66C49.2455 47.6413 49.0761 47.6904 48.9434 47.7966C48.8107 47.9028 48.7257 48.0574 48.7069 48.2263C48.6882 48.3952 48.7373 48.5646 48.8435 48.6973L51.0857 51.5L48.8435 54.3027C48.7373 54.4354 48.6882 54.6048 48.7069 54.7737C48.7257 54.9426 48.8107 55.0972 48.9434 55.2034C49.0761 55.3096 49.2455 55.3587 49.4144 55.34C49.5833 55.3212 49.7378 55.2362 49.844 55.1035L52.4065 51.9004C52.4975 51.7868 52.5471 51.6456 52.5471 51.5C52.5471 51.3544 52.4975 51.2132 52.4065 51.0996L49.844 47.8965Z" fill="#6E00FA"/>
<path d="M41.1559 55.1035C41.2621 55.2362 41.4167 55.3213 41.5856 55.34C41.7545 55.3587 41.9239 55.3096 42.0566 55.2034C42.1893 55.0972 42.2743 54.9427 42.293 54.7737C42.3118 54.6048 42.2626 54.4354 42.1564 54.3027L39.9143 51.5L42.1564 48.6973C42.209 48.6316 42.2481 48.5562 42.2716 48.4754C42.295 48.3945 42.3023 48.3099 42.293 48.2263C42.2838 48.1426 42.2581 48.0617 42.2175 47.9879C42.177 47.9142 42.1223 47.8492 42.0566 47.7966C41.9909 47.7441 41.9155 47.7049 41.8347 47.6815C41.7539 47.658 41.6692 47.6508 41.5856 47.66C41.502 47.6693 41.421 47.695 41.3472 47.7355C41.2735 47.7761 41.2085 47.8308 41.1559 47.8965L38.5934 51.0996C38.5025 51.2132 38.4529 51.3545 38.4529 51.5C38.4529 51.6456 38.5025 51.7868 38.5934 51.9004L41.1559 55.1035Z" fill="#6E00FA"/>
</svg>
